<svg xmlns="http://www.w3.org/2000/svg" xmlns:xlink="http://www.w3.org/1999/xlink" width="193" height="214" viewBox="0 0 193 214">
  <defs>
    <filter id="Trazado_622313" x="0" y="0" width="193" height="214" filterUnits="userSpaceOnUse">
      <feOffset dy="5" input="SourceAlpha"/>
      <feGaussianBlur stdDeviation="3" result="blur"/>
      <feFlood flood-opacity="0.161"/>
      <feComposite operator="in" in2="blur"/>
      <feComposite in="SourceGraphic"/>
    </filter>
  </defs>
  <g id="Grupo_894052" data-name="Grupo 894052" transform="translate(-1155 -3444)">
    <g transform="matrix(1, 0, 0, 1, 1155, 3444)" filter="url(#Trazado_622313)">
      <g id="Trazado_622313-2" data-name="Trazado 622313" transform="translate(9 4)" fill="#fdfdfd" stroke-linecap="round">
        <path d="M 155 194 L 20 194 C 15.19202613830566 194 10.67184257507324 192.127685546875 7.272078990936279 188.7279205322266 C 3.872315883636475 185.3281860351562 2 180.8079681396484 2 176 L 2 20 C 2 15.19202613830566 3.872315883636475 10.67184257507324 7.272078990936279 7.272078990936279 C 10.67184257507324 3.872315883636475 15.19202613830566 2 20 2 L 155 2 C 159.8079681396484 2 164.3281860351562 3.872315883636475 167.7279205322266 7.272078990936279 C 171.127685546875 10.67184257507324 173 15.19202613830566 173 20 L 173 176 C 173 180.8079681396484 171.127685546875 185.3281860351562 167.7279205322266 188.7279205322266 C 164.3281860351562 192.127685546875 159.8079681396484 194 155 194 Z" stroke="none"/>
        <path d="M 20 4 C 15.72625732421875 4 11.70831298828125 5.664276123046875 8.686309814453125 8.686309814453125 C 5.664276123046875 11.70831298828125 4 15.72625732421875 4 20 L 4 176 C 4 180.2737426757812 5.664276123046875 184.2916870117188 8.686309814453125 187.3136901855469 C 11.70831298828125 190.3357238769531 15.72625732421875 192 20 192 L 155 192 C 159.2737426757812 192 163.2916870117188 190.3357238769531 166.3136901855469 187.3136901855469 C 169.3357238769531 184.2916870117188 171 180.2737426757812 171 176 L 171 20 C 171 15.72625732421875 169.3357238769531 11.70831298828125 166.3136901855469 8.686309814453125 C 163.2916870117188 5.664276123046875 159.2737426757812 4 155 4 L 20 4 M 20 0 L 155 0 C 166.0457000732422 0 175 8.954299926757812 175 20 L 175 176 C 175 187.0457000732422 166.0457000732422 196 155 196 L 20 196 C 8.954299926757812 196 0 187.0457000732422 0 176 L 0 20 C 0 8.954299926757812 8.954299926757812 0 20 0 Z" stroke="none" fill="#f6cc53"/>
      </g>
    </g>
    <path id="Trazado_622314" data-name="Trazado 622314" d="M22.656,17.156a3.693,3.693,0,0,1-2.8-1.129,4.19,4.19,0,0,1-1.078-3.02v-.266a5.073,5.073,0,0,1,.48-2.246,3.748,3.748,0,0,1,1.344-1.547,3.378,3.378,0,0,1,1.871-.559,3.166,3.166,0,0,1,2.563,1.086,4.7,4.7,0,0,1,.914,3.109v.6H20.227a3,3,0,0,0,.73,2.02,2.3,2.3,0,0,0,1.777.77,2.517,2.517,0,0,0,1.3-.312,3.259,3.259,0,0,0,.93-.828l.883.688A3.55,3.55,0,0,1,22.656,17.156Zm-.18-7.578a1.928,1.928,0,0,0-1.469.637A3.1,3.1,0,0,0,20.273,12h4.234v-.109a2.753,2.753,0,0,0-.594-1.707A1.815,1.815,0,0,0,22.477,9.578Zm5.18,6.664a.905.905,0,0,1,.223-.625.848.848,0,0,1,.668-.25.874.874,0,0,1,.676.25.887.887,0,0,1,.23.625.839.839,0,0,1-.23.6.89.89,0,0,1-.676.242.8.8,0,0,1-.891-.844Zm14.8-4.5h-4.93v4.031H43.25V17H36.023V5.625h7.148V6.852H37.523v3.664h4.93ZM46.461,17H45.016V5h1.445ZM54.9,5.625l3.719,9.281,3.719-9.281h1.945V17h-1.5V12.57l.141-4.781L59.188,17H58.039L54.313,7.813l.148,4.758V17h-1.5V5.625ZM66.32,12.7a4.993,4.993,0,0,1,.488-2.234A3.643,3.643,0,0,1,68.168,8.93a3.7,3.7,0,0,1,1.988-.539,3.565,3.565,0,0,1,2.793,1.2,4.6,4.6,0,0,1,1.066,3.18v.1a5.036,5.036,0,0,1-.473,2.215,3.589,3.589,0,0,1-1.352,1.527,3.743,3.743,0,0,1-2.02.547,3.556,3.556,0,0,1-2.785-1.2A4.575,4.575,0,0,1,66.32,12.8Zm1.453.172a3.616,3.616,0,0,0,.652,2.258,2.211,2.211,0,0,0,3.5-.012A3.955,3.955,0,0,0,72.57,12.7a3.61,3.61,0,0,0-.66-2.254,2.1,2.1,0,0,0-1.754-.863,2.075,2.075,0,0,0-1.727.852A3.925,3.925,0,0,0,67.773,12.867Zm7.7-.164A4.952,4.952,0,0,1,76.4,9.574a3.137,3.137,0,0,1,4.766-.168V5h1.445V17H81.281l-.07-.906A2.943,2.943,0,0,1,78.8,17.156a2.887,2.887,0,0,1-2.395-1.2,5.008,5.008,0,0,1-.926-3.141Zm1.445.164a3.749,3.749,0,0,0,.594,2.25,1.92,1.92,0,0,0,1.641.813A2.108,2.108,0,0,0,81.164,14.7V10.813a2.125,2.125,0,0,0-1.992-1.2,1.929,1.929,0,0,0-1.656.82A4.128,4.128,0,0,0,76.922,12.867Zm11.438,4.289a3.693,3.693,0,0,1-2.8-1.129,4.19,4.19,0,0,1-1.078-3.02v-.266a5.073,5.073,0,0,1,.48-2.246,3.748,3.748,0,0,1,1.344-1.547,3.378,3.378,0,0,1,1.871-.559,3.166,3.166,0,0,1,2.563,1.086,4.7,4.7,0,0,1,.914,3.109v.6H85.93a3,3,0,0,0,.73,2.02,2.3,2.3,0,0,0,1.777.77,2.517,2.517,0,0,0,1.3-.312,3.259,3.259,0,0,0,.93-.828l.883.688A3.55,3.55,0,0,1,88.359,17.156Zm-.18-7.578a1.928,1.928,0,0,0-1.469.637A3.1,3.1,0,0,0,85.977,12h4.234v-.109a2.753,2.753,0,0,0-.594-1.707A1.815,1.815,0,0,0,88.18,9.578ZM94.9,17H93.453V5H94.9Zm1.93-4.3a4.993,4.993,0,0,1,.488-2.234A3.643,3.643,0,0,1,98.676,8.93a3.7,3.7,0,0,1,1.988-.539,3.565,3.565,0,0,1,2.793,1.2,4.6,4.6,0,0,1,1.066,3.18v.1a5.036,5.036,0,0,1-.473,2.215,3.589,3.589,0,0,1-1.352,1.527,3.743,3.743,0,0,1-2.02.547,3.556,3.556,0,0,1-2.785-1.2A4.575,4.575,0,0,1,96.828,12.8Zm1.453.172a3.616,3.616,0,0,0,.652,2.258,2.211,2.211,0,0,0,3.5-.012,3.955,3.955,0,0,0,.648-2.418,3.61,3.61,0,0,0-.66-2.254,2.1,2.1,0,0,0-1.754-.863,2.075,2.075,0,0,0-1.727.852A3.925,3.925,0,0,0,98.281,12.867Zm16.008,2.141,3.25-9.383h1.641L114.961,17h-1.328L109.422,5.625h1.633ZM122.047,17H120.6V8.547h1.445ZM120.484,6.3a.863.863,0,0,1,.215-.594.807.807,0,0,1,.637-.242.819.819,0,0,1,.641.242.854.854,0,0,1,.219.594.826.826,0,0,1-.219.586.834.834,0,0,1-.641.234.821.821,0,0,1-.637-.234A.834.834,0,0,1,120.484,6.3Zm8.8,8.453a1.064,1.064,0,0,0-.441-.91,4.249,4.249,0,0,0-1.539-.559,7.277,7.277,0,0,1-1.742-.562,2.479,2.479,0,0,1-.953-.781,1.869,1.869,0,0,1-.309-1.078,2.193,2.193,0,0,1,.879-1.758,3.432,3.432,0,0,1,2.246-.719,3.532,3.532,0,0,1,2.332.742,2.357,2.357,0,0,1,.895,1.9H129.2a1.3,1.3,0,0,0-.5-1.023,1.888,1.888,0,0,0-1.27-.43,1.976,1.976,0,0,0-1.234.344,1.082,1.082,0,0,0-.445.9.877.877,0,0,0,.414.789,5.1,5.1,0,0,0,1.5.508,7.8,7.8,0,0,1,1.754.578,2.558,2.558,0,0,1,1,.809,1.988,1.988,0,0,1,.324,1.152,2.163,2.163,0,0,1-.906,1.816,3.8,3.8,0,0,1-2.352.684,4.257,4.257,0,0,1-1.8-.359,2.922,2.922,0,0,1-1.223-1,2.42,2.42,0,0,1-.441-1.395h1.445a1.5,1.5,0,0,0,.582,1.152,2.258,2.258,0,0,0,1.434.426,2.331,2.331,0,0,0,1.316-.332A1.02,1.02,0,0,0,129.281,14.758ZM134.57,6.5V8.547h1.578V9.664H134.57v5.249a1.173,1.173,0,0,0,.211.763.888.888,0,0,0,.719.254,3.5,3.5,0,0,0,.688-.094V17a4.215,4.215,0,0,1-1.109.155,1.8,1.8,0,0,1-1.461-.586,2.517,2.517,0,0,1-.492-1.664V9.664h-1.539V8.547h1.539V6.5ZM143.055,17a3.036,3.036,0,0,1-.2-.891,3.225,3.225,0,0,1-2.406,1.047,2.984,2.984,0,0,1-2.051-.707,2.287,2.287,0,0,1-.8-1.793,2.39,2.39,0,0,1,1-2.051,4.733,4.733,0,0,1,2.824-.73h1.406v-.664A1.623,1.623,0,0,0,142.375,10a1.821,1.821,0,0,0-1.336-.449,2.107,2.107,0,0,0-1.3.391,1.151,1.151,0,0,0-.523.945h-1.453a2,2,0,0,1,.449-1.223,3.066,3.066,0,0,1,1.219-.934,4.1,4.1,0,0,1,1.691-.344,3.342,3.342,0,0,1,2.289.73,2.635,2.635,0,0,1,.859,2.012v3.891a4.757,4.757,0,0,0,.3,1.852V17Zm-2.4-1.1a2.54,2.54,0,0,0,1.289-.352,2.127,2.127,0,0,0,.883-.914V12.9H141.7q-2.656,0-2.656,1.555a1.316,1.316,0,0,0,.453,1.063A1.742,1.742,0,0,0,140.656,15.9ZM24.7,37.391a4.185,4.185,0,0,1-1.332,2.785,4.365,4.365,0,0,1-2.98.98,4.008,4.008,0,0,1-3.23-1.445,5.815,5.815,0,0,1-1.215-3.867V34.75a6.481,6.481,0,0,1,.566-2.789,4.231,4.231,0,0,1,1.605-1.848,4.47,4.47,0,0,1,2.406-.645,4.11,4.11,0,0,1,2.906,1.012,4.235,4.235,0,0,1,1.273,2.8H23.191a3.268,3.268,0,0,0-.848-1.975A2.565,2.565,0,0,0,20.52,30.7a2.684,2.684,0,0,0-2.254,1.063,4.882,4.882,0,0,0-.816,3.026v1.1a5.018,5.018,0,0,0,.773,2.948,2.5,2.5,0,0,0,2.164,1.095,2.886,2.886,0,0,0,1.918-.566,3.143,3.143,0,0,0,.887-1.973Zm1.438-.7a4.993,4.993,0,0,1,.488-2.234,3.643,3.643,0,0,1,1.359-1.531,3.7,3.7,0,0,1,1.988-.539,3.565,3.565,0,0,1,2.793,1.2,4.6,4.6,0,0,1,1.066,3.18v.1a5.036,5.036,0,0,1-.473,2.215,3.589,3.589,0,0,1-1.352,1.527,3.743,3.743,0,0,1-2.02.547,3.556,3.556,0,0,1-2.785-1.2A4.575,4.575,0,0,1,26.137,36.8Zm1.453.172a3.616,3.616,0,0,0,.652,2.258,2.211,2.211,0,0,0,3.5-.012,3.955,3.955,0,0,0,.648-2.418,3.61,3.61,0,0,0-.66-2.254,2.1,2.1,0,0,0-1.754-.863,2.075,2.075,0,0,0-1.727.852A3.925,3.925,0,0,0,27.59,36.867Zm9.422-4.32.047,1.063a3.08,3.08,0,0,1,2.531-1.219q2.68,0,2.7,3.023V41H40.848V35.406a1.946,1.946,0,0,0-.418-1.352,1.675,1.675,0,0,0-1.277-.437,2.086,2.086,0,0,0-1.234.375,2.546,2.546,0,0,0-.828.984V41H35.645V32.547ZM46.434,30.5v2.047h1.578v1.117H46.434v5.249a1.173,1.173,0,0,0,.211.763.888.888,0,0,0,.719.254,3.5,3.5,0,0,0,.688-.094V41a4.215,4.215,0,0,1-1.109.155,1.8,1.8,0,0,1-1.461-.586,2.517,2.517,0,0,1-.492-1.664V33.664H43.449V32.547h1.539V30.5Zm7.352,3.344a4.331,4.331,0,0,0-.711-.055A1.9,1.9,0,0,0,51.145,35v6H49.7V32.547h1.406l.023.977a2.251,2.251,0,0,1,2.016-1.133,1.477,1.477,0,0,1,.641.109Zm.789,2.852a4.993,4.993,0,0,1,.488-2.234,3.643,3.643,0,0,1,1.359-1.531,3.7,3.7,0,0,1,1.988-.539,3.565,3.565,0,0,1,2.793,1.2,4.6,4.6,0,0,1,1.066,3.18v.1a5.036,5.036,0,0,1-.473,2.215,3.589,3.589,0,0,1-1.352,1.527,3.743,3.743,0,0,1-2.02.547,3.556,3.556,0,0,1-2.785-1.2A4.575,4.575,0,0,1,54.574,36.8Zm1.453.172a3.616,3.616,0,0,0,.652,2.258,2.211,2.211,0,0,0,3.5-.012,3.955,3.955,0,0,0,.648-2.418,3.61,3.61,0,0,0-.66-2.254,2.1,2.1,0,0,0-1.754-.863,2.075,2.075,0,0,0-1.727.852A3.925,3.925,0,0,0,56.027,36.867ZM65.652,41H64.207V29h1.445Zm7.531,0a3.036,3.036,0,0,1-.2-.891,3.225,3.225,0,0,1-2.406,1.047,2.984,2.984,0,0,1-2.051-.707,2.288,2.288,0,0,1-.8-1.793,2.39,2.39,0,0,1,1-2.051,4.733,4.733,0,0,1,2.824-.73h1.406v-.664A1.623,1.623,0,0,0,72.5,34a1.821,1.821,0,0,0-1.336-.449,2.107,2.107,0,0,0-1.3.391,1.151,1.151,0,0,0-.523.945H67.895a2,2,0,0,1,.449-1.223,3.066,3.066,0,0,1,1.219-.934,4.1,4.1,0,0,1,1.691-.344,3.342,3.342,0,0,1,2.289.73,2.635,2.635,0,0,1,.859,2.012v3.891a4.757,4.757,0,0,0,.3,1.852V41Zm-2.4-1.1a2.54,2.54,0,0,0,1.289-.352,2.127,2.127,0,0,0,.883-.914V36.9H71.824q-2.656,0-2.656,1.555a1.316,1.316,0,0,0,.453,1.063A1.742,1.742,0,0,0,70.785,39.9Zm5.531-3.2a4.952,4.952,0,0,1,.922-3.129A3.137,3.137,0,0,1,82,33.406V29h1.445V41H82.121l-.07-.906a2.943,2.943,0,0,1-2.414,1.063,2.887,2.887,0,0,1-2.395-1.2,5.008,5.008,0,0,1-.926-3.141Zm1.445.164a3.749,3.749,0,0,0,.594,2.25A1.92,1.92,0,0,0,80,39.93,2.108,2.108,0,0,0,82,38.7V34.813a2.125,2.125,0,0,0-1.992-1.2,1.929,1.929,0,0,0-1.656.82A4.128,4.128,0,0,0,77.762,36.867Zm7.547-.172a4.993,4.993,0,0,1,.488-2.234,3.643,3.643,0,0,1,1.359-1.531,3.7,3.7,0,0,1,1.988-.539,3.565,3.565,0,0,1,2.793,1.2A4.6,4.6,0,0,1,93,36.766v.1a5.036,5.036,0,0,1-.473,2.215,3.589,3.589,0,0,1-1.352,1.527,3.743,3.743,0,0,1-2.02.547,3.556,3.556,0,0,1-2.785-1.2A4.575,4.575,0,0,1,85.309,36.8Zm1.453.172a3.616,3.616,0,0,0,.652,2.258,2.211,2.211,0,0,0,3.5-.012,3.955,3.955,0,0,0,.648-2.418,3.61,3.61,0,0,0-.66-2.254,2.1,2.1,0,0,0-1.754-.863,2.075,2.075,0,0,0-1.727.852A3.925,3.925,0,0,0,86.762,36.867ZM98.9,33.844a4.331,4.331,0,0,0-.711-.055A1.9,1.9,0,0,0,96.262,35v6H94.816V32.547h1.406l.023.977a2.251,2.251,0,0,1,2.016-1.133,1.477,1.477,0,0,1,.641.109Zm5.234,2.539a12.079,12.079,0,0,1,.473-3.391,9.849,9.849,0,0,1,1.41-2.953,6,6,0,0,1,1.945-1.875l.3.953a6.222,6.222,0,0,0-1.871,2.672,11.583,11.583,0,0,0-.8,4.023l-.008.664a11.643,11.643,0,0,0,1.1,5.234,6.252,6.252,0,0,0,1.578,2.078l-.3.883a6.192,6.192,0,0,1-1.984-1.937A10.859,10.859,0,0,1,104.137,36.383Zm7.688-6.758,3.719,9.281,3.719-9.281h1.945V41h-1.5V36.57l.141-4.781L116.113,41h-1.148l-3.727-9.187.148,4.758V41h-1.5V29.625Zm15.8,9.383,3.25-9.383h1.641L128.293,41h-1.328l-4.211-11.375h1.633ZM142.4,37.391a4.185,4.185,0,0,1-1.332,2.785,4.365,4.365,0,0,1-2.98.98,4.008,4.008,0,0,1-3.23-1.445,5.815,5.815,0,0,1-1.215-3.867V34.75a6.481,6.481,0,0,1,.566-2.789,4.231,4.231,0,0,1,1.605-1.848,4.47,4.47,0,0,1,2.406-.645,4.11,4.11,0,0,1,2.906,1.012,4.235,4.235,0,0,1,1.273,2.8h-1.508a3.268,3.268,0,0,0-.848-1.975,2.565,2.565,0,0,0-1.824-.611,2.684,2.684,0,0,0-2.254,1.063,4.882,4.882,0,0,0-.816,3.026v1.1a5.018,5.018,0,0,0,.773,2.948,2.5,2.5,0,0,0,2.164,1.095,2.887,2.887,0,0,0,1.918-.566,3.143,3.143,0,0,0,.887-1.973Zm4.953-.93a12.085,12.085,0,0,1-.457,3.34,9.876,9.876,0,0,1-1.4,2.949,6.127,6.127,0,0,1-1.973,1.922l-.3-.883a6.281,6.281,0,0,0,1.934-2.863,12.387,12.387,0,0,0,.746-4.309v-.25a12.861,12.861,0,0,0-.344-3.051,10.3,10.3,0,0,0-.957-2.527,5.838,5.838,0,0,0-1.379-1.742l.3-.883a6.1,6.1,0,0,1,1.965,1.906,9.9,9.9,0,0,1,1.4,2.945A12.364,12.364,0,0,1,147.355,36.461Z" transform="translate(1172 3561.624)" fill="#12263f"/>
    <g id="Grupo_893979" data-name="Grupo 893979" transform="translate(1216 3475.881)">
      <g id="Grupo_891631" data-name="Grupo 891631" transform="translate(45.608 20.159)">
        <g id="Grupo_891630" data-name="Grupo 891630">
          <g id="Grupo_891629" data-name="Grupo 891629">
            <g id="Grupo_891628" data-name="Grupo 891628">
              <path id="Trazado_621053" data-name="Trazado 621053" d="M-791.277,1432.544a4.664,4.664,0,0,1,.719-.817l2.087-2.1c1.777-1.756,4.253-4.156,7.01-6.784l.063-.06,0,.355c-2.777-2.58-5.27-4.932-7.057-6.651l-2.1-2.054a4.582,4.582,0,0,1-.725-.8,4.58,4.58,0,0,1,.852.663l2.2,1.941c1.847,1.655,4.377,3.967,7.155,6.546l.189.176-.187.179-.063.06c-2.756,2.629-5.27,4.989-7.107,6.68l-2.193,1.984A4.72,4.72,0,0,1-791.277,1432.544Z" transform="translate(791.279 -1413.633)" fill="#f6cc53" stroke="#db4d79" stroke-linecap="round" stroke-linejoin="round" stroke-width="3"/>
            </g>
          </g>
        </g>
      </g>
      <g id="Grupo_891635" data-name="Grupo 891635" transform="translate(13.775 20.159)">
        <g id="Grupo_891634" data-name="Grupo 891634">
          <g id="Grupo_891633" data-name="Grupo 891633">
            <g id="Grupo_891632" data-name="Grupo 891632">
              <path id="Trazado_621054" data-name="Trazado 621054" d="M-815.4,1413.633a4.74,4.74,0,0,1-.72.817l-2.086,2.1c-1.777,1.755-4.253,4.155-7.01,6.784l-.063.06,0-.355c2.777,2.579,5.269,4.933,7.057,6.652l2.1,2.053a4.7,4.7,0,0,1,.725.8,4.7,4.7,0,0,1-.852-.663l-2.2-1.942c-1.846-1.654-4.376-3.967-7.154-6.546l-.19-.175.188-.179.063-.06c2.756-2.629,5.27-4.989,7.107-6.681l2.193-1.984A4.692,4.692,0,0,1-815.4,1413.633Z" transform="translate(825.804 -1413.632)" fill="#f6cc53" stroke="#db4d79" stroke-linecap="round" stroke-linejoin="round" stroke-width="3"/>
            </g>
          </g>
        </g>
      </g>
      <g id="Grupo_891639" data-name="Grupo 891639" transform="translate(29.671 15.445)">
        <g id="Grupo_891638" data-name="Grupo 891638">
          <g id="Grupo_891637" data-name="Grupo 891637">
            <g id="Grupo_891636" data-name="Grupo 891636">
              <path id="Trazado_621055" data-name="Trazado 621055" d="M-808.558,1436.6c-.125-.047,2.125-6.371,5.025-14.124s5.353-14,5.479-13.955-2.124,6.37-5.026,14.126S-808.433,1436.645-808.558,1436.6Z" transform="translate(808.563 -1408.518)" fill="#f6cc53" stroke="#db4d79" stroke-linecap="round" stroke-linejoin="round" stroke-width="3"/>
            </g>
          </g>
        </g>
      </g>
      <g id="Grupo_891643" data-name="Grupo 891643">
        <g id="Grupo_891642" data-name="Grupo 891642">
          <g id="Grupo_891641" data-name="Grupo 891641">
            <g id="Grupo_891640" data-name="Grupo 891640">
              <path id="Trazado_621056" data-name="Trazado 621056" d="M-770.776,1448.825s-.015-.367-.022-1.057-.013-1.72-.023-3.043c-.012-2.671-.03-6.563-.053-11.522-.025-9.92-.061-24.1-.1-41.19l.2.2-69.719.04h-.006l.242-.243c-.009,20.538-.019,39.933-.026,56.813l-.216-.217,50.347.109c6.123.023,10.953.043,14.271.057l3.788.026.979.012c.221,0,.34.013.34.013s-.1.008-.315.013l-.955.012-3.745.026-14.222.058-50.488.109h-.216v-.217c-.008-16.879-.017-36.275-.027-56.813v-.243h.249l69.719.041h.2v.2c-.043,17.146-.079,31.367-.105,41.317-.022,4.94-.04,8.816-.052,11.477-.01,1.306-.017,2.309-.023,3C-770.761,1448.487-770.776,1448.825-770.776,1448.825Z" transform="translate(840.744 -1391.769)" fill="#f6cc53" stroke="#db4d79" stroke-linecap="round" stroke-linejoin="round" stroke-width="1"/>
            </g>
          </g>
        </g>
      </g>
      <g id="Grupo_891647" data-name="Grupo 891647" transform="translate(0.212 8.43)">
        <g id="Grupo_891646" data-name="Grupo 891646">
          <g id="Grupo_891645" data-name="Grupo 891645">
            <g id="Grupo_891644" data-name="Grupo 891644">
              <path id="Trazado_621057" data-name="Trazado 621057" d="M-770.213,1401.155c0,.134-15.739.242-35.149.242s-35.153-.109-35.153-.242,15.735-.243,35.153-.243S-770.213,1401.02-770.213,1401.155Z" transform="translate(840.514 -1400.911)" fill="#f6cc53" stroke="#db4d79" stroke-linecap="round" stroke-linejoin="round" stroke-width="1"/>
            </g>
          </g>
        </g>
      </g>
      <g id="Grupo_891657" data-name="Grupo 891657" transform="translate(4.055 3.585)">
        <g id="Grupo_891650" data-name="Grupo 891650">
          <g id="Grupo_891649" data-name="Grupo 891649">
            <g id="Grupo_891648" data-name="Grupo 891648">
              <path id="Trazado_621058" data-name="Trazado 621058" d="M-834.468,1396.6a.941.941,0,0,1-.939.943.941.941,0,0,1-.94-.943.94.94,0,0,1,.94-.942A.94.94,0,0,1-834.468,1396.6Z" transform="translate(836.346 -1395.656)" fill="#f6cc53" stroke="#db4d79" stroke-linecap="round" stroke-linejoin="round" stroke-width="1"/>
            </g>
          </g>
        </g>
        <g id="Grupo_891653" data-name="Grupo 891653" transform="translate(3.423)">
          <g id="Grupo_891652" data-name="Grupo 891652">
            <g id="Grupo_891651" data-name="Grupo 891651">
              <path id="Trazado_621059" data-name="Trazado 621059" d="M-830.757,1396.6a.941.941,0,0,1-.939.943.941.941,0,0,1-.939-.943.94.94,0,0,1,.939-.942A.94.94,0,0,1-830.757,1396.6Z" transform="translate(832.634 -1395.656)" fill="#f6cc53" stroke="#db4d79" stroke-linecap="round" stroke-linejoin="round" stroke-width="1"/>
            </g>
          </g>
        </g>
        <g id="Grupo_891656" data-name="Grupo 891656" transform="translate(6.844)">
          <g id="Grupo_891655" data-name="Grupo 891655">
            <g id="Grupo_891654" data-name="Grupo 891654">
              <path id="Trazado_621060" data-name="Trazado 621060" d="M-827.046,1396.6a.94.94,0,0,1-.939.943.941.941,0,0,1-.939-.943.94.94,0,0,1,.939-.942A.939.939,0,0,1-827.046,1396.6Z" transform="translate(828.923 -1395.656)" fill="#f6cc53" stroke="#db4d79" stroke-linecap="round" stroke-linejoin="round" stroke-width="1"/>
            </g>
          </g>
        </g>
      </g>
    </g>
  </g>
</svg>
