<svg xmlns="http://www.w3.org/2000/svg" width="1050.146" height="792.328" viewBox="0 0 1050.146 792.328">
  <g id="Grupo_894041" data-name="Grupo 894041" transform="translate(10634.379 8031.528)">
    <path id="Trazado_622249" data-name="Trazado 622249" d="M-52.587,0h-3.579l-5.291-9.29V0h-3.6V-14.93h3.6l5.281,9.29v-9.29h3.589Zm1.682-5.65a6.548,6.548,0,0,1,.646-2.958A4.62,4.62,0,0,1-48.4-10.6a5.59,5.59,0,0,1,2.84-.7,5.1,5.1,0,0,1,3.927,1.543,5.922,5.922,0,0,1,1.436,4.2v.123a5.746,5.746,0,0,1-1.441,4.117,5.115,5.115,0,0,1-3.9,1.523,5.173,5.173,0,0,1-3.8-1.42A5.555,5.555,0,0,1-50.9-5.065Zm3.456.215a4.128,4.128,0,0,0,.482,2.256,1.606,1.606,0,0,0,1.425.718q1.846,0,1.887-2.84V-5.65q0-2.984-1.907-2.984-1.733,0-1.876,2.574Zm15.483-2.533L-33.1-8.049A2.044,2.044,0,0,0-35.2-7.024V0h-3.456V-11.095h3.24l.113,1.425a2.676,2.676,0,0,1,2.43-1.63,3.37,3.37,0,0,1,.964.123Zm4.512-3.127.113,1.3A3.815,3.815,0,0,1-24.174-11.3a2.808,2.808,0,0,1,2.84,1.671A3.692,3.692,0,0,1-18.073-11.3q3.374,0,3.466,4.081V0h-3.466V-7a2.115,2.115,0,0,0-.287-1.241,1.222,1.222,0,0,0-1.046-.39,1.637,1.637,0,0,0-1.528.913l.01.144V0h-3.466V-6.983a2.223,2.223,0,0,0-.277-1.261,1.219,1.219,0,0,0-1.056-.39,1.657,1.657,0,0,0-1.518.913V0H-30.7V-11.095ZM-6.383,0a3.9,3.9,0,0,1-.328-.995A3.213,3.213,0,0,1-9.377.205a3.936,3.936,0,0,1-2.666-.948,3.019,3.019,0,0,1-1.1-2.384,3.1,3.1,0,0,1,1.333-2.728,6.791,6.791,0,0,1,3.876-.923h1.066v-.587q0-1.535-1.323-1.535a1.081,1.081,0,0,0-1.23,1.216h-3.456A3.1,3.1,0,0,1-11.5-10.3a5.753,5.753,0,0,1,3.491-1A5.044,5.044,0,0,1-4.66-10.264,3.6,3.6,0,0,1-3.4-7.424v4.912A5.03,5.03,0,0,0-2.927-.174V0ZM-8.547-2.256a1.928,1.928,0,0,0,1.072-.277,1.735,1.735,0,0,0,.61-.625V-4.932h-1q-1.8,0-1.8,1.62a.989.989,0,0,0,.318.764A1.15,1.15,0,0,0-8.547-2.256Zm23.553-9.9H10.526V0h-3.6V-12.151h-4.4V-14.93H15.007Zm1.507,4.858.913-7.637h8.726v2.687H20.236L19.9-9.277a4.076,4.076,0,0,1,.969-.381,4.421,4.421,0,0,1,1.174-.165,4.38,4.38,0,0,1,3.42,1.318,5.308,5.308,0,0,1,1.195,3.7,5.3,5.3,0,0,1-.641,2.6,4.4,4.4,0,0,1-1.8,1.789,5.681,5.681,0,0,1-2.738.625,6.113,6.113,0,0,1-2.635-.579,4.728,4.728,0,0,1-1.928-1.588,3.859,3.859,0,0,1-.687-2.28h3.466a1.96,1.96,0,0,0,.523,1.3,1.66,1.66,0,0,0,1.241.481q1.743,0,1.743-2.579,0-2.384-2.133-2.384a2.128,2.128,0,0,0-1.8.778Zm20.3-7.852v2.717h-.154a5.188,5.188,0,0,0-3.184.928,3.918,3.918,0,0,0-1.533,2.579A4.041,4.041,0,0,1,34.9-10.069a3.769,3.769,0,0,1,3.086,1.415,5.707,5.707,0,0,1,1.148,3.712,5.226,5.226,0,0,1-.672,2.615A4.792,4.792,0,0,1,36.586-.467a5.392,5.392,0,0,1-2.671.672,5.573,5.573,0,0,1-2.84-.723,4.97,4.97,0,0,1-1.948-2.066,6.8,6.8,0,0,1-.718-3.1V-7.065a8.619,8.619,0,0,1,.99-4.148A7.174,7.174,0,0,1,32.223-14.1a8.077,8.077,0,0,1,4.071-1.046ZM33.7-7.424a1.977,1.977,0,0,0-1.148.318,2.018,2.018,0,0,0-.687.779v1.036q0,2.83,1.958,2.83a1.589,1.589,0,0,0,1.318-.708,2.884,2.884,0,0,0,.528-1.774,2.83,2.83,0,0,0-.538-1.789A1.722,1.722,0,0,0,33.7-7.424Zm17-3.517a3.447,3.447,0,0,1-.538,1.917A3.921,3.921,0,0,1,48.68-7.69a4.315,4.315,0,0,1,1.692,1.43A3.691,3.691,0,0,1,51-4.112,3.907,3.907,0,0,1,49.619-.954,5.727,5.727,0,0,1,45.82.205,5.832,5.832,0,0,1,41.985-.959a3.88,3.88,0,0,1-1.4-3.153A3.737,3.737,0,0,1,41.2-6.234,4.184,4.184,0,0,1,42.938-7.69a3.943,3.943,0,0,1-1.5-1.333,3.423,3.423,0,0,1-.543-1.917,3.831,3.831,0,0,1,1.323-3.076,5.317,5.317,0,0,1,3.568-1.128,5.35,5.35,0,0,1,3.589,1.128A3.831,3.831,0,0,1,50.7-10.941ZM47.532-4.389a1.971,1.971,0,0,0-.477-1.42,1.66,1.66,0,0,0-1.256-.5,1.677,1.677,0,0,0-1.261.5,1.958,1.958,0,0,0-.482,1.42,1.975,1.975,0,0,0,.487,1.41,1.672,1.672,0,0,0,1.277.518,1.606,1.606,0,0,0,1.241-.513A2.011,2.011,0,0,0,47.532-4.389Zm-1.743-8.09a1.277,1.277,0,0,0-1.061.456,1.98,1.98,0,0,0-.364,1.266,2.1,2.1,0,0,0,.369,1.292,1.274,1.274,0,0,0,1.087.492,1.221,1.221,0,0,0,1.061-.492,2.165,2.165,0,0,0,.354-1.292,1.985,1.985,0,0,0-.364-1.261A1.294,1.294,0,0,0,45.789-12.479Zm15.7,9.69H56.555L55.694,0H51.849l5.476-14.93h3.384L66.225,0H62.359ZM57.417-5.568h3.209l-1.61-5.178Z" transform="translate(-10487.633 -7239.406)" fill="#12263f"/>
    <path id="Trazado_622250" data-name="Trazado 622250" d="M-52.208,0h-3.579l-5.291-9.29V0h-3.6V-14.93h3.6L-55.8-5.64v-9.29h3.589Zm1.682-5.65a6.548,6.548,0,0,1,.646-2.958A4.62,4.62,0,0,1-48.024-10.6a5.59,5.59,0,0,1,2.84-.7,5.1,5.1,0,0,1,3.927,1.543,5.922,5.922,0,0,1,1.436,4.2v.123a5.746,5.746,0,0,1-1.441,4.117,5.115,5.115,0,0,1-3.9,1.523,5.173,5.173,0,0,1-3.8-1.42,5.555,5.555,0,0,1-1.548-3.85Zm3.456.215a4.128,4.128,0,0,0,.482,2.256,1.606,1.606,0,0,0,1.425.718q1.846,0,1.887-2.84V-5.65q0-2.984-1.907-2.984-1.733,0-1.876,2.574Zm15.483-2.533-1.138-.082a2.044,2.044,0,0,0-2.092,1.025V0h-3.456V-11.095h3.24l.113,1.425a2.676,2.676,0,0,1,2.43-1.63,3.37,3.37,0,0,1,.964.123Zm4.512-3.127.113,1.3A3.815,3.815,0,0,1-23.794-11.3a2.808,2.808,0,0,1,2.84,1.671A3.692,3.692,0,0,1-17.693-11.3q3.374,0,3.466,4.081V0h-3.466V-7a2.115,2.115,0,0,0-.287-1.241,1.222,1.222,0,0,0-1.046-.39,1.637,1.637,0,0,0-1.528.913l.01.144V0H-24.01V-6.983a2.223,2.223,0,0,0-.277-1.261,1.219,1.219,0,0,0-1.056-.39,1.657,1.657,0,0,0-1.518.913V0h-3.456V-11.095ZM-6,0a3.9,3.9,0,0,1-.328-.995A3.213,3.213,0,0,1-9,.205a3.936,3.936,0,0,1-2.666-.948,3.019,3.019,0,0,1-1.1-2.384,3.1,3.1,0,0,1,1.333-2.728,6.791,6.791,0,0,1,3.876-.923h1.066v-.587q0-1.535-1.323-1.535a1.081,1.081,0,0,0-1.23,1.216h-3.456A3.1,3.1,0,0,1-11.125-10.3a5.753,5.753,0,0,1,3.491-1,5.044,5.044,0,0,1,3.353,1.036A3.6,3.6,0,0,1-3.02-7.424v4.912A5.03,5.03,0,0,0-2.548-.174V0ZM-8.167-2.256A1.928,1.928,0,0,0-7.1-2.533a1.735,1.735,0,0,0,.61-.625V-4.932h-1q-1.8,0-1.8,1.62a.989.989,0,0,0,.318.764A1.15,1.15,0,0,0-8.167-2.256Zm23.553-9.9H10.905V0h-3.6V-12.151h-4.4V-14.93H15.386Zm1.507,4.858.913-7.637h8.726v2.687H20.615l-.338,2.966a4.076,4.076,0,0,1,.969-.381,4.421,4.421,0,0,1,1.174-.165,4.38,4.38,0,0,1,3.42,1.318,5.308,5.308,0,0,1,1.195,3.7,5.3,5.3,0,0,1-.641,2.6,4.4,4.4,0,0,1-1.8,1.789,5.681,5.681,0,0,1-2.738.625,6.113,6.113,0,0,1-2.635-.579,4.728,4.728,0,0,1-1.928-1.588,3.859,3.859,0,0,1-.687-2.28h3.466a1.96,1.96,0,0,0,.523,1.3,1.66,1.66,0,0,0,1.241.481q1.743,0,1.743-2.579,0-2.384-2.133-2.384a2.128,2.128,0,0,0-1.8.778Zm20.3-7.852v2.717h-.154a5.188,5.188,0,0,0-3.184.928,3.918,3.918,0,0,0-1.533,2.579,4.041,4.041,0,0,1,2.953-1.148,3.769,3.769,0,0,1,3.086,1.415,5.707,5.707,0,0,1,1.148,3.712,5.226,5.226,0,0,1-.672,2.615A4.792,4.792,0,0,1,36.965-.467a5.392,5.392,0,0,1-2.671.672,5.573,5.573,0,0,1-2.84-.723,4.97,4.97,0,0,1-1.948-2.066,6.8,6.8,0,0,1-.718-3.1V-7.065a8.619,8.619,0,0,1,.99-4.148A7.174,7.174,0,0,1,32.6-14.1a8.077,8.077,0,0,1,4.071-1.046ZM34.079-7.424a1.977,1.977,0,0,0-1.148.318,2.018,2.018,0,0,0-.687.779v1.036q0,2.83,1.958,2.83a1.589,1.589,0,0,0,1.318-.708,2.884,2.884,0,0,0,.528-1.774,2.83,2.83,0,0,0-.538-1.789A1.722,1.722,0,0,0,34.079-7.424Zm17-3.517a3.447,3.447,0,0,1-.538,1.917A3.921,3.921,0,0,1,49.06-7.69a4.315,4.315,0,0,1,1.692,1.43,3.691,3.691,0,0,1,.625,2.148A3.907,3.907,0,0,1,50-.954,5.727,5.727,0,0,1,46.2.205,5.832,5.832,0,0,1,42.364-.959a3.88,3.88,0,0,1-1.4-3.153,3.737,3.737,0,0,1,.615-2.123A4.184,4.184,0,0,1,43.318-7.69a3.943,3.943,0,0,1-1.5-1.333,3.423,3.423,0,0,1-.543-1.917A3.831,3.831,0,0,1,42.6-14.017a5.317,5.317,0,0,1,3.568-1.128,5.35,5.35,0,0,1,3.589,1.128A3.831,3.831,0,0,1,51.08-10.941ZM47.911-4.389a1.971,1.971,0,0,0-.477-1.42,1.66,1.66,0,0,0-1.256-.5,1.677,1.677,0,0,0-1.261.5,1.958,1.958,0,0,0-.482,1.42,1.975,1.975,0,0,0,.487,1.41,1.672,1.672,0,0,0,1.277.518,1.606,1.606,0,0,0,1.241-.513A2.011,2.011,0,0,0,47.911-4.389Zm-1.743-8.09a1.277,1.277,0,0,0-1.061.456,1.98,1.98,0,0,0-.364,1.266,2.1,2.1,0,0,0,.369,1.292,1.274,1.274,0,0,0,1.087.492,1.221,1.221,0,0,0,1.061-.492,2.165,2.165,0,0,0,.354-1.292,1.985,1.985,0,0,0-.364-1.261A1.294,1.294,0,0,0,46.168-12.479ZM53.387,0V-14.93H58.75a7.594,7.594,0,0,1,4.384,1.056,3.514,3.514,0,0,1,1.5,3.066A3.552,3.552,0,0,1,64.1-8.829a3.107,3.107,0,0,1-1.569,1.21A3.146,3.146,0,0,1,64.328-6.47a3.339,3.339,0,0,1,.625,2.051,3.953,3.953,0,0,1-1.389,3.3A6.612,6.612,0,0,1,59.447,0Zm3.6-6.347v3.579h2.358a2.243,2.243,0,0,0,1.5-.446,1.561,1.561,0,0,0,.523-1.256,1.655,1.655,0,0,0-1.856-1.876Zm0-2.358h1.876a2.666,2.666,0,0,0,1.682-.432,1.533,1.533,0,0,0,.5-1.244,1.609,1.609,0,0,0-.543-1.363,2.909,2.909,0,0,0-1.753-.416H56.986Z" transform="translate(-10085.447 -7239.406)" fill="#12263f"/>
    <path id="Trazado_622251" data-name="Trazado 622251" d="M19.8,15.848h4.758V17.9H19.8v5.391h-2.18V17.9H12.866V15.848h4.758v-4.98H19.8Zm22.648,2.789H36.732v-1.77h5.719Zm19.062-2.789h4.758V17.9H61.513v5.391h-2.18V17.9H54.575V15.848h4.758v-4.98h2.18Zm22.648,2.789H78.442v-1.77h5.719Zm19.062-2.789h4.758V17.9h-4.758v5.391h-2.18V17.9H96.285V15.848h4.758v-4.98h2.18Zm22.648,2.789h-5.719v-1.77h5.719Zm19.062-2.789h4.758V17.9h-4.758v5.391h-2.18V17.9h-4.758V15.848h4.758v-4.98h2.18Zm22.648,2.789h-5.719v-1.77h5.719Z" transform="translate(-10581 -7935.997)" fill="#12263f"/>
    <path id="Trazado_622252" data-name="Trazado 622252" d="M25.368,21H23.552V8.959L19.909,10.3V8.656l5.176-1.943h.283Zm23.561,0H39.612V19.7l4.922-5.469a11.693,11.693,0,0,0,1.509-2.017,3.366,3.366,0,0,0,.415-1.606,2.551,2.551,0,0,0-.674-1.826,2.356,2.356,0,0,0-1.8-.713,2.79,2.79,0,0,0-2.095.767,2.928,2.928,0,0,0-.747,2.134H39.339A4.194,4.194,0,0,1,40.6,7.8a4.688,4.688,0,0,1,3.384-1.211,4.5,4.5,0,0,1,3.135,1.04,3.548,3.548,0,0,1,1.152,2.769q0,2.1-2.676,5L41.79,19.525h7.139Zm13.492-7.988h1.357a2.983,2.983,0,0,0,2.012-.674,2.251,2.251,0,0,0,.732-1.768,2.205,2.205,0,0,0-2.49-2.5,2.59,2.59,0,0,0-1.87.669,2.341,2.341,0,0,0-.7,1.772H59.657A3.627,3.627,0,0,1,60.893,7.7a4.5,4.5,0,0,1,3.14-1.118A4.447,4.447,0,0,1,67.187,7.65a3.845,3.845,0,0,1,1.143,2.959,3.121,3.121,0,0,1-.6,1.8,3.626,3.626,0,0,1-1.636,1.3,3.494,3.494,0,0,1,1.812,1.23,3.417,3.417,0,0,1,.64,2.1,3.879,3.879,0,0,1-1.25,3.037A4.681,4.681,0,0,1,64.042,21.2a4.8,4.8,0,0,1-3.257-1.084A3.6,3.6,0,0,1,59.53,17.25h1.816a2.324,2.324,0,0,0,.732,1.8,2.786,2.786,0,0,0,1.963.674,2.734,2.734,0,0,0,2-.684,2.634,2.634,0,0,0,.693-1.963,2.391,2.391,0,0,0-.762-1.9,3.319,3.319,0,0,0-2.2-.684H62.421ZM87.6,16.225h1.973V17.7H87.6V21H85.786V17.7H79.312V16.635l6.367-9.854H87.6Zm-6.24,0h4.424V9.252l-.215.391Zm19.625-2.354.723-7.09H109v1.67h-5.752l-.43,3.877a4.588,4.588,0,0,1,2.373-.615A3.923,3.923,0,0,1,108.272,13a5.033,5.033,0,0,1,1.143,3.472,4.858,4.858,0,0,1-1.187,3.462,4.325,4.325,0,0,1-3.315,1.265,4.494,4.494,0,0,1-3.076-1.045,4.171,4.171,0,0,1-1.357-2.891h1.709a2.869,2.869,0,0,0,.869,1.841,2.7,2.7,0,0,0,1.855.62,2.438,2.438,0,0,0,1.978-.859,3.593,3.593,0,0,0,.718-2.373,3.3,3.3,0,0,0-.776-2.29,2.641,2.641,0,0,0-2.065-.864,2.978,2.978,0,0,0-1.855.518l-.479.391Zm26.441-7.1V8.3H127.1a4.757,4.757,0,0,0-3.359,1.25,5.2,5.2,0,0,0-1.445,3.408,3.856,3.856,0,0,1,3.066-1.289,3.687,3.687,0,0,1,2.964,1.309,5.047,5.047,0,0,1,1.108,3.379,5.031,5.031,0,0,1-1.2,3.516,4.119,4.119,0,0,1-3.208,1.318,4.059,4.059,0,0,1-3.311-1.567,6.212,6.212,0,0,1-1.27-4.038V14.9a9.36,9.36,0,0,1,1.675-6,6.151,6.151,0,0,1,4.985-2.124Zm-2.373,6.406a3.036,3.036,0,0,0-2.793,1.953v.664a4.664,4.664,0,0,0,.791,2.832,2.37,2.37,0,0,0,1.973,1.074,2.3,2.3,0,0,0,1.919-.9,3.728,3.728,0,0,0,.7-2.354,3.729,3.729,0,0,0-.708-2.368A2.269,2.269,0,0,0,125.056,13.178ZM149.7,7.8,143.812,21h-1.895l5.869-12.734h-7.7V6.781H149.7Zm19.625,2.7a3.3,3.3,0,0,1-.562,1.895,3.821,3.821,0,0,1-1.519,1.3,4.075,4.075,0,0,1,1.763,1.4,3.514,3.514,0,0,1,.649,2.08,3.716,3.716,0,0,1-1.245,2.939,5.459,5.459,0,0,1-6.562,0,3.733,3.733,0,0,1-1.235-2.935,3.619,3.619,0,0,1,.63-2.08,3.92,3.92,0,0,1,1.743-1.406,3.726,3.726,0,0,1-1.494-1.3,3.349,3.349,0,0,1-.547-1.885A3.675,3.675,0,0,1,162.1,7.641a4.893,4.893,0,0,1,6.069,0A3.668,3.668,0,0,1,169.325,10.492Zm-1.475,6.631a2.621,2.621,0,0,0-.757-1.943,2.684,2.684,0,0,0-1.978-.752,2.542,2.542,0,0,0-2.7,2.7,2.524,2.524,0,0,0,.718,1.9,3.207,3.207,0,0,0,3.989,0A2.518,2.518,0,0,0,167.851,17.123ZM165.136,8.07a2.331,2.331,0,0,0-1.724.659,2.421,2.421,0,0,0-.659,1.792,2.41,2.41,0,0,0,.649,1.753,2.58,2.58,0,0,0,3.467,0,2.41,2.41,0,0,0,.649-1.753,2.411,2.411,0,0,0-.674-1.768A2.3,2.3,0,0,0,165.136,8.07Z" transform="translate(-10585 -7902.997)" fill="#12263f"/>
    <path id="Trazado_622253" data-name="Trazado 622253" d="M18.322,12.547V17h-1.5V5.625h4.2a4.215,4.215,0,0,1,2.926.953A3.231,3.231,0,0,1,25,9.1a3.189,3.189,0,0,1-1.035,2.551A4.4,4.4,0,0,1,21,12.547Zm0-1.227h2.7a2.7,2.7,0,0,0,1.844-.567,2.075,2.075,0,0,0,.641-1.64,2.143,2.143,0,0,0-.641-1.628A2.525,2.525,0,0,0,21.1,6.852H18.322ZM31.822,17a3.036,3.036,0,0,1-.2-.891,3.225,3.225,0,0,1-2.406,1.047,2.984,2.984,0,0,1-2.051-.707,2.287,2.287,0,0,1-.8-1.793,2.39,2.39,0,0,1,1-2.051,4.733,4.733,0,0,1,2.824-.73H31.6v-.664A1.623,1.623,0,0,0,31.143,10a1.821,1.821,0,0,0-1.336-.449,2.107,2.107,0,0,0-1.3.391,1.151,1.151,0,0,0-.523.945H26.533a2,2,0,0,1,.449-1.223A3.066,3.066,0,0,1,28.2,8.734a4.1,4.1,0,0,1,1.691-.344,3.342,3.342,0,0,1,2.289.73,2.635,2.635,0,0,1,.859,2.012v3.891a4.757,4.757,0,0,0,.3,1.852V17Zm-2.4-1.1a2.54,2.54,0,0,0,1.289-.352,2.127,2.127,0,0,0,.883-.914V12.9H30.463q-2.656,0-2.656,1.555a1.316,1.316,0,0,0,.453,1.063A1.742,1.742,0,0,0,29.424,15.9Zm9.969-6.055a4.331,4.331,0,0,0-.711-.055A1.9,1.9,0,0,0,36.752,11v6H35.307V8.547h1.406l.023.977a2.251,2.251,0,0,1,2.016-1.133,1.477,1.477,0,0,1,.641.109Zm7.242.766h1.086a2.387,2.387,0,0,0,1.609-.539,1.8,1.8,0,0,0,.586-1.414,1.764,1.764,0,0,0-1.992-2,2.072,2.072,0,0,0-1.5.535,1.873,1.873,0,0,0-.559,1.418H44.424a2.9,2.9,0,0,1,.988-2.246,3.6,3.6,0,0,1,2.512-.895,3.558,3.558,0,0,1,2.523.852,3.076,3.076,0,0,1,.914,2.367,2.5,2.5,0,0,1-.48,1.438,2.9,2.9,0,0,1-1.309,1.039,2.8,2.8,0,0,1,1.449.984,2.734,2.734,0,0,1,.512,1.68,3.1,3.1,0,0,1-1,2.43,3.745,3.745,0,0,1-2.6.9,3.844,3.844,0,0,1-2.605-.867,2.877,2.877,0,0,1-1-2.289h1.453a1.859,1.859,0,0,0,.586,1.438,2.229,2.229,0,0,0,1.57.539,2.187,2.187,0,0,0,1.6-.547,2.108,2.108,0,0,0,.555-1.57,1.912,1.912,0,0,0-.609-1.523,2.655,2.655,0,0,0-1.758-.547H46.635Z" transform="translate(-10592.821 -7989.917)" fill="#12263f"/>
    <path id="Trazado_622254" data-name="Trazado 622254" d="M18.285,12.547V17h-1.5V5.625h4.2a4.215,4.215,0,0,1,2.926.953A3.231,3.231,0,0,1,24.965,9.1a3.189,3.189,0,0,1-1.035,2.551,4.4,4.4,0,0,1-2.965.895Zm0-1.227h2.7a2.7,2.7,0,0,0,1.844-.567,2.075,2.075,0,0,0,.641-1.64,2.143,2.143,0,0,0-.641-1.628,2.525,2.525,0,0,0-1.758-.634H18.285ZM31.785,17a3.036,3.036,0,0,1-.2-.891,3.225,3.225,0,0,1-2.406,1.047,2.984,2.984,0,0,1-2.051-.707,2.287,2.287,0,0,1-.8-1.793,2.39,2.39,0,0,1,1-2.051,4.733,4.733,0,0,1,2.824-.73h1.406v-.664A1.623,1.623,0,0,0,31.105,10a1.821,1.821,0,0,0-1.336-.449,2.107,2.107,0,0,0-1.3.391,1.151,1.151,0,0,0-.523.945H26.5a2,2,0,0,1,.449-1.223,3.066,3.066,0,0,1,1.219-.934,4.1,4.1,0,0,1,1.691-.344,3.342,3.342,0,0,1,2.289.73A2.635,2.635,0,0,1,33,11.133v3.891a4.757,4.757,0,0,0,.3,1.852V17Zm-2.4-1.1a2.54,2.54,0,0,0,1.289-.352,2.127,2.127,0,0,0,.883-.914V12.9H30.426q-2.656,0-2.656,1.555a1.316,1.316,0,0,0,.453,1.063A1.742,1.742,0,0,0,29.387,15.9Zm9.969-6.055a4.331,4.331,0,0,0-.711-.055A1.9,1.9,0,0,0,36.715,11v6H35.27V8.547h1.406l.023.977a2.251,2.251,0,0,1,2.016-1.133,1.477,1.477,0,0,1,.641.109ZM49.246,17H47.793V7.367l-2.914,1.07V7.125L49.02,5.57h.227Z" transform="translate(-10524 -7989.997)" fill="#12263f"/>
    <path id="Trazado_622255" data-name="Trazado 622255" d="M18.322,12.547V17h-1.5V5.625h4.2a4.215,4.215,0,0,1,2.926.953A3.231,3.231,0,0,1,25,9.1a3.189,3.189,0,0,1-1.035,2.551A4.4,4.4,0,0,1,21,12.547Zm0-1.227h2.7a2.7,2.7,0,0,0,1.844-.567,2.075,2.075,0,0,0,.641-1.64,2.143,2.143,0,0,0-.641-1.628A2.525,2.525,0,0,0,21.1,6.852H18.322ZM31.822,17a3.036,3.036,0,0,1-.2-.891,3.225,3.225,0,0,1-2.406,1.047,2.984,2.984,0,0,1-2.051-.707,2.287,2.287,0,0,1-.8-1.793,2.39,2.39,0,0,1,1-2.051,4.733,4.733,0,0,1,2.824-.73H31.6v-.664A1.623,1.623,0,0,0,31.143,10a1.821,1.821,0,0,0-1.336-.449,2.107,2.107,0,0,0-1.3.391,1.151,1.151,0,0,0-.523.945H26.533a2,2,0,0,1,.449-1.223A3.066,3.066,0,0,1,28.2,8.734a4.1,4.1,0,0,1,1.691-.344,3.342,3.342,0,0,1,2.289.73,2.635,2.635,0,0,1,.859,2.012v3.891a4.757,4.757,0,0,0,.3,1.852V17Zm-2.4-1.1a2.54,2.54,0,0,0,1.289-.352,2.127,2.127,0,0,0,.883-.914V12.9H30.463q-2.656,0-2.656,1.555a1.316,1.316,0,0,0,.453,1.063A1.742,1.742,0,0,0,29.424,15.9Zm9.969-6.055a4.331,4.331,0,0,0-.711-.055A1.9,1.9,0,0,0,36.752,11v6H35.307V8.547h1.406l.023.977a2.251,2.251,0,0,1,2.016-1.133,1.477,1.477,0,0,1,.641.109ZM50.635,13.18h1.578v1.18H50.635V17H49.182V14.359H44v-.852L49.1,5.625h1.539Zm-4.992,0h3.539V7.6l-.172.313Z" transform="translate(-10451.582 -7989.917)" fill="#12263f"/>
    <path id="Trazado_608352" data-name="Trazado 608352" d="M-8372.795-8514.807l12.628-37.247c-.465,1.368,12.628,37.247,12.628,37.247" transform="translate(-2199.289 585.421)" fill="none" stroke="#db4d79" stroke-width="3"/>
    <path id="Trazado_608353" data-name="Trazado 608353" d="M-8372.795-8514.807l12.628-37.247c-.465,1.368,12.628,37.247,12.628,37.247" transform="translate(-2129.791 585.421)" fill="none" stroke="#db4d79" stroke-width="3"/>
    <path id="Trazado_608354" data-name="Trazado 608354" d="M-8372.795-8514.807l12.628-37.247c-.465,1.368,12.628,37.247,12.628,37.247" transform="translate(-2056.929 585.421)" fill="none" stroke="#db4d79" stroke-width="3"/>
    <path id="Trazado_622256" data-name="Trazado 622256" d="M18.285,12.547V17h-1.5V5.625h4.2a4.215,4.215,0,0,1,2.926.953A3.231,3.231,0,0,1,24.965,9.1a3.189,3.189,0,0,1-1.035,2.551,4.4,4.4,0,0,1-2.965.895Zm0-1.227h2.7a2.7,2.7,0,0,0,1.844-.567,2.075,2.075,0,0,0,.641-1.64,2.143,2.143,0,0,0-.641-1.628,2.525,2.525,0,0,0-1.758-.634H18.285ZM31.785,17a3.036,3.036,0,0,1-.2-.891,3.225,3.225,0,0,1-2.406,1.047,2.984,2.984,0,0,1-2.051-.707,2.287,2.287,0,0,1-.8-1.793,2.39,2.39,0,0,1,1-2.051,4.733,4.733,0,0,1,2.824-.73h1.406v-.664A1.623,1.623,0,0,0,31.105,10a1.821,1.821,0,0,0-1.336-.449,2.107,2.107,0,0,0-1.3.391,1.151,1.151,0,0,0-.523.945H26.5a2,2,0,0,1,.449-1.223,3.066,3.066,0,0,1,1.219-.934,4.1,4.1,0,0,1,1.691-.344,3.342,3.342,0,0,1,2.289.73A2.635,2.635,0,0,1,33,11.133v3.891a4.757,4.757,0,0,0,.3,1.852V17Zm-2.4-1.1a2.54,2.54,0,0,0,1.289-.352,2.127,2.127,0,0,0,.883-.914V12.9H30.426q-2.656,0-2.656,1.555a1.316,1.316,0,0,0,.453,1.063A1.742,1.742,0,0,0,29.387,15.9Zm9.969-6.055a4.331,4.331,0,0,0-.711-.055A1.9,1.9,0,0,0,36.715,11v6H35.27V8.547h1.406l.023.977a2.251,2.251,0,0,1,2.016-1.133,1.477,1.477,0,0,1,.641.109ZM51.949,17H44.5V15.961l3.938-4.375a9.355,9.355,0,0,0,1.207-1.613,2.693,2.693,0,0,0,.332-1.285,2.041,2.041,0,0,0-.539-1.461A1.885,1.885,0,0,0,48,6.656a2.232,2.232,0,0,0-1.676.613,2.343,2.343,0,0,0-.6,1.707H44.277a3.355,3.355,0,0,1,1.012-2.539A3.751,3.751,0,0,1,48,5.469,3.6,3.6,0,0,1,50.5,6.3a2.838,2.838,0,0,1,.922,2.215q0,1.68-2.141,4l-3.047,3.3h5.711Z" transform="translate(-10524 -8036.997)" fill="#12263f"/>
    <path id="Trazado_622257" data-name="Trazado 622257" d="M8.968,87.433,0,0" transform="translate(-10462.792 -8023.644)" fill="none" stroke="#db4d79" stroke-width="3"/>
    <path id="Trazado_622258" data-name="Trazado 622258" d="M0,87.433,8.968,0" transform="translate(-10524.443 -8023.644)" fill="none" stroke="#db4d79" stroke-width="3"/>
    <path id="Trazado_622259" data-name="Trazado 622259" d="M19.8,15.848h4.758V17.9H19.8v5.391h-2.18V17.9H12.866V15.848h4.758v-4.98H19.8Zm22.648,2.789H36.732v-1.77h5.719Zm19.062-2.789h4.758V17.9H61.513v5.391h-2.18V17.9H54.575V15.848h4.758v-4.98h2.18Zm22.648,2.789H78.442v-1.77h5.719Zm19.062-2.789h4.758V17.9h-4.758v5.391h-2.18V17.9H96.285V15.848h4.758v-4.98h2.18Zm22.648,2.789h-5.719v-1.77h5.719Zm19.062-2.789h4.758V17.9h-4.758v5.391h-2.18V17.9h-4.758V15.848h4.758v-4.98h2.18Zm22.648,2.789h-5.719v-1.77h5.719Z" transform="translate(-10181 -7935.997)" fill="#12263f"/>
    <path id="Trazado_622260" data-name="Trazado 622260" d="M22.058,13.012h1.357a2.984,2.984,0,0,0,2.012-.674,2.251,2.251,0,0,0,.732-1.768,2.205,2.205,0,0,0-2.49-2.5,2.59,2.59,0,0,0-1.87.669,2.341,2.341,0,0,0-.7,1.772H19.294A3.627,3.627,0,0,1,20.529,7.7a4.5,4.5,0,0,1,3.14-1.118A4.447,4.447,0,0,1,26.823,7.65a3.845,3.845,0,0,1,1.143,2.959,3.121,3.121,0,0,1-.6,1.8,3.626,3.626,0,0,1-1.636,1.3,3.494,3.494,0,0,1,1.812,1.23,3.417,3.417,0,0,1,.64,2.1,3.879,3.879,0,0,1-1.25,3.037A4.681,4.681,0,0,1,23.679,21.2a4.8,4.8,0,0,1-3.257-1.084,3.6,3.6,0,0,1-1.255-2.861h1.816a2.324,2.324,0,0,0,.732,1.8,2.786,2.786,0,0,0,1.963.674,2.734,2.734,0,0,0,2-.684,2.634,2.634,0,0,0,.693-1.963,2.391,2.391,0,0,0-.762-1.9,3.319,3.319,0,0,0-2.2-.684H22.058ZM46.7,6.771V8.3H46.37a4.757,4.757,0,0,0-3.359,1.25,5.2,5.2,0,0,0-1.445,3.408,3.856,3.856,0,0,1,3.066-1.289A3.687,3.687,0,0,1,47.6,12.982,5.047,5.047,0,0,1,48.7,16.361a5.031,5.031,0,0,1-1.2,3.516A4.119,4.119,0,0,1,44.3,21.2a4.059,4.059,0,0,1-3.311-1.567,6.212,6.212,0,0,1-1.27-4.038V14.9a9.36,9.36,0,0,1,1.675-6A6.151,6.151,0,0,1,46.38,6.771Zm-2.373,6.406a3.036,3.036,0,0,0-2.793,1.953v.664a4.664,4.664,0,0,0,.791,2.832A2.37,2.37,0,0,0,44.3,19.7a2.3,2.3,0,0,0,1.919-.9,3.728,3.728,0,0,0,.7-2.354,3.729,3.729,0,0,0-.708-2.368A2.269,2.269,0,0,0,44.329,13.178ZM65.731,21H63.915V8.959L60.272,10.3V8.656l5.176-1.943h.283ZM87.6,16.225h1.973V17.7H87.6V21H85.786V17.7H79.312V16.635l6.367-9.854H87.6Zm-6.24,0h4.424V9.252l-.215.391Zm19.625-2.354.723-7.09H109v1.67h-5.752l-.43,3.877a4.588,4.588,0,0,1,2.373-.615A3.923,3.923,0,0,1,108.272,13a5.033,5.033,0,0,1,1.143,3.472,4.858,4.858,0,0,1-1.187,3.462,4.325,4.325,0,0,1-3.315,1.265,4.494,4.494,0,0,1-3.076-1.045,4.171,4.171,0,0,1-1.357-2.891h1.709a2.869,2.869,0,0,0,.869,1.841,2.7,2.7,0,0,0,1.855.62,2.438,2.438,0,0,0,1.978-.859,3.593,3.593,0,0,0,.718-2.373,3.3,3.3,0,0,0-.776-2.29,2.641,2.641,0,0,0-2.065-.864,2.978,2.978,0,0,0-1.855.518l-.479.391ZM129.655,21h-9.316V19.7l4.922-5.469a11.693,11.693,0,0,0,1.509-2.017,3.366,3.366,0,0,0,.415-1.606,2.551,2.551,0,0,0-.674-1.826,2.356,2.356,0,0,0-1.8-.713,2.79,2.79,0,0,0-2.095.767,2.928,2.928,0,0,0-.747,2.134h-1.807A4.194,4.194,0,0,1,121.33,7.8a4.688,4.688,0,0,1,3.384-1.211,4.5,4.5,0,0,1,3.135,1.04A3.548,3.548,0,0,1,129,10.395q0,2.1-2.676,5l-3.809,4.131h7.139ZM149.7,7.8,143.812,21h-1.895l5.869-12.734h-7.7V6.781H149.7Zm19.625,2.7a3.3,3.3,0,0,1-.562,1.895,3.821,3.821,0,0,1-1.519,1.3,4.075,4.075,0,0,1,1.763,1.4,3.514,3.514,0,0,1,.649,2.08,3.716,3.716,0,0,1-1.245,2.939,5.459,5.459,0,0,1-6.562,0,3.733,3.733,0,0,1-1.235-2.935,3.619,3.619,0,0,1,.63-2.08,3.92,3.92,0,0,1,1.743-1.406,3.726,3.726,0,0,1-1.494-1.3,3.349,3.349,0,0,1-.547-1.885A3.675,3.675,0,0,1,162.1,7.641a4.893,4.893,0,0,1,6.069,0A3.668,3.668,0,0,1,169.325,10.492Zm-1.475,6.631a2.621,2.621,0,0,0-.757-1.943,2.684,2.684,0,0,0-1.978-.752,2.542,2.542,0,0,0-2.7,2.7,2.524,2.524,0,0,0,.718,1.9,3.207,3.207,0,0,0,3.989,0A2.518,2.518,0,0,0,167.851,17.123ZM165.136,8.07a2.331,2.331,0,0,0-1.724.659,2.421,2.421,0,0,0-.659,1.792,2.41,2.41,0,0,0,.649,1.753,2.58,2.58,0,0,0,3.467,0,2.41,2.41,0,0,0,.649-1.753,2.411,2.411,0,0,0-.674-1.768A2.3,2.3,0,0,0,165.136,8.07Z" transform="translate(-10185 -7902.997)" fill="#12263f"/>
    <path id="Trazado_622261" data-name="Trazado 622261" d="M18.322,12.547V17h-1.5V5.625h4.2a4.215,4.215,0,0,1,2.926.953A3.231,3.231,0,0,1,25,9.1a3.189,3.189,0,0,1-1.035,2.551A4.4,4.4,0,0,1,21,12.547Zm0-1.227h2.7a2.7,2.7,0,0,0,1.844-.567,2.075,2.075,0,0,0,.641-1.64,2.143,2.143,0,0,0-.641-1.628A2.525,2.525,0,0,0,21.1,6.852H18.322ZM31.822,17a3.036,3.036,0,0,1-.2-.891,3.225,3.225,0,0,1-2.406,1.047,2.984,2.984,0,0,1-2.051-.707,2.287,2.287,0,0,1-.8-1.793,2.39,2.39,0,0,1,1-2.051,4.733,4.733,0,0,1,2.824-.73H31.6v-.664A1.623,1.623,0,0,0,31.143,10a1.821,1.821,0,0,0-1.336-.449,2.107,2.107,0,0,0-1.3.391,1.151,1.151,0,0,0-.523.945H26.533a2,2,0,0,1,.449-1.223A3.066,3.066,0,0,1,28.2,8.734a4.1,4.1,0,0,1,1.691-.344,3.342,3.342,0,0,1,2.289.73,2.635,2.635,0,0,1,.859,2.012v3.891a4.757,4.757,0,0,0,.3,1.852V17Zm-2.4-1.1a2.54,2.54,0,0,0,1.289-.352,2.127,2.127,0,0,0,.883-.914V12.9H30.463q-2.656,0-2.656,1.555a1.316,1.316,0,0,0,.453,1.063A1.742,1.742,0,0,0,29.424,15.9Zm9.969-6.055a4.331,4.331,0,0,0-.711-.055A1.9,1.9,0,0,0,36.752,11v6H35.307V8.547h1.406l.023.977a2.251,2.251,0,0,1,2.016-1.133,1.477,1.477,0,0,1,.641.109ZM51.986,17H44.533V15.961l3.938-4.375a9.355,9.355,0,0,0,1.207-1.613,2.693,2.693,0,0,0,.332-1.285,2.041,2.041,0,0,0-.539-1.461,1.885,1.885,0,0,0-1.437-.57,2.232,2.232,0,0,0-1.676.613,2.343,2.343,0,0,0-.6,1.707H44.315a3.355,3.355,0,0,1,1.012-2.539,3.751,3.751,0,0,1,2.707-.969,3.6,3.6,0,0,1,2.508.832,2.838,2.838,0,0,1,.922,2.215q0,1.68-2.141,4l-3.047,3.3h5.711Z" transform="translate(-10191.879 -7989.917)" fill="#12263f"/>
    <path id="Trazado_622262" data-name="Trazado 622262" d="M18.285,12.547V17h-1.5V5.625h4.2a4.215,4.215,0,0,1,2.926.953A3.231,3.231,0,0,1,24.965,9.1a3.189,3.189,0,0,1-1.035,2.551,4.4,4.4,0,0,1-2.965.895Zm0-1.227h2.7a2.7,2.7,0,0,0,1.844-.567,2.075,2.075,0,0,0,.641-1.64,2.143,2.143,0,0,0-.641-1.628,2.525,2.525,0,0,0-1.758-.634H18.285ZM31.785,17a3.036,3.036,0,0,1-.2-.891,3.225,3.225,0,0,1-2.406,1.047,2.984,2.984,0,0,1-2.051-.707,2.287,2.287,0,0,1-.8-1.793,2.39,2.39,0,0,1,1-2.051,4.733,4.733,0,0,1,2.824-.73h1.406v-.664A1.623,1.623,0,0,0,31.105,10a1.821,1.821,0,0,0-1.336-.449,2.107,2.107,0,0,0-1.3.391,1.151,1.151,0,0,0-.523.945H26.5a2,2,0,0,1,.449-1.223,3.066,3.066,0,0,1,1.219-.934,4.1,4.1,0,0,1,1.691-.344,3.342,3.342,0,0,1,2.289.73A2.635,2.635,0,0,1,33,11.133v3.891a4.757,4.757,0,0,0,.3,1.852V17Zm-2.4-1.1a2.54,2.54,0,0,0,1.289-.352,2.127,2.127,0,0,0,.883-.914V12.9H30.426q-2.656,0-2.656,1.555a1.316,1.316,0,0,0,.453,1.063A1.742,1.742,0,0,0,29.387,15.9Zm9.969-6.055a4.331,4.331,0,0,0-.711-.055A1.9,1.9,0,0,0,36.715,11v6H35.27V8.547h1.406l.023.977a2.251,2.251,0,0,1,2.016-1.133,1.477,1.477,0,0,1,.641.109ZM49.246,17H47.793V7.367l-2.914,1.07V7.125L49.02,5.57h.227Z" transform="translate(-10122 -7989.997)" fill="#12263f"/>
    <path id="Trazado_622263" data-name="Trazado 622263" d="M18.322,12.547V17h-1.5V5.625h4.2a4.215,4.215,0,0,1,2.926.953A3.231,3.231,0,0,1,25,9.1a3.189,3.189,0,0,1-1.035,2.551A4.4,4.4,0,0,1,21,12.547Zm0-1.227h2.7a2.7,2.7,0,0,0,1.844-.567,2.075,2.075,0,0,0,.641-1.64,2.143,2.143,0,0,0-.641-1.628A2.525,2.525,0,0,0,21.1,6.852H18.322ZM31.822,17a3.036,3.036,0,0,1-.2-.891,3.225,3.225,0,0,1-2.406,1.047,2.984,2.984,0,0,1-2.051-.707,2.287,2.287,0,0,1-.8-1.793,2.39,2.39,0,0,1,1-2.051,4.733,4.733,0,0,1,2.824-.73H31.6v-.664A1.623,1.623,0,0,0,31.143,10a1.821,1.821,0,0,0-1.336-.449,2.107,2.107,0,0,0-1.3.391,1.151,1.151,0,0,0-.523.945H26.533a2,2,0,0,1,.449-1.223A3.066,3.066,0,0,1,28.2,8.734a4.1,4.1,0,0,1,1.691-.344,3.342,3.342,0,0,1,2.289.73,2.635,2.635,0,0,1,.859,2.012v3.891a4.757,4.757,0,0,0,.3,1.852V17Zm-2.4-1.1a2.54,2.54,0,0,0,1.289-.352,2.127,2.127,0,0,0,.883-.914V12.9H30.463q-2.656,0-2.656,1.555a1.316,1.316,0,0,0,.453,1.063A1.742,1.742,0,0,0,29.424,15.9Zm9.969-6.055a4.331,4.331,0,0,0-.711-.055A1.9,1.9,0,0,0,36.752,11v6H35.307V8.547h1.406l.023.977a2.251,2.251,0,0,1,2.016-1.133,1.477,1.477,0,0,1,.641.109ZM50.635,13.18h1.578v1.18H50.635V17H49.182V14.359H44v-.852L49.1,5.625h1.539Zm-4.992,0h3.539V7.6l-.172.313Z" transform="translate(-10050.64 -7989.917)" fill="#12263f"/>
    <path id="Trazado_608355" data-name="Trazado 608355" d="M-8372.795-8514.807l12.628-37.247c-.465,1.368,12.628,37.247,12.628,37.247" transform="translate(-1798.346 585.421)" fill="none" stroke="#db4d79" stroke-width="3"/>
    <path id="Trazado_608356" data-name="Trazado 608356" d="M-8372.795-8514.807l12.628-37.247c-.465,1.368,12.628,37.247,12.628,37.247" transform="translate(-1728.848 585.421)" fill="none" stroke="#db4d79" stroke-width="3"/>
    <path id="Trazado_608357" data-name="Trazado 608357" d="M-8372.795-8514.807l12.628-37.247c-.465,1.368,12.628,37.247,12.628,37.247" transform="translate(-1655.987 585.421)" fill="none" stroke="#db4d79" stroke-width="3"/>
    <path id="Trazado_622264" data-name="Trazado 622264" d="M18.285,12.547V17h-1.5V5.625h4.2a4.215,4.215,0,0,1,2.926.953A3.231,3.231,0,0,1,24.965,9.1a3.189,3.189,0,0,1-1.035,2.551,4.4,4.4,0,0,1-2.965.895Zm0-1.227h2.7a2.7,2.7,0,0,0,1.844-.567,2.075,2.075,0,0,0,.641-1.64,2.143,2.143,0,0,0-.641-1.628,2.525,2.525,0,0,0-1.758-.634H18.285ZM31.785,17a3.036,3.036,0,0,1-.2-.891,3.225,3.225,0,0,1-2.406,1.047,2.984,2.984,0,0,1-2.051-.707,2.287,2.287,0,0,1-.8-1.793,2.39,2.39,0,0,1,1-2.051,4.733,4.733,0,0,1,2.824-.73h1.406v-.664A1.623,1.623,0,0,0,31.105,10a1.821,1.821,0,0,0-1.336-.449,2.107,2.107,0,0,0-1.3.391,1.151,1.151,0,0,0-.523.945H26.5a2,2,0,0,1,.449-1.223,3.066,3.066,0,0,1,1.219-.934,4.1,4.1,0,0,1,1.691-.344,3.342,3.342,0,0,1,2.289.73A2.635,2.635,0,0,1,33,11.133v3.891a4.757,4.757,0,0,0,.3,1.852V17Zm-2.4-1.1a2.54,2.54,0,0,0,1.289-.352,2.127,2.127,0,0,0,.883-.914V12.9H30.426q-2.656,0-2.656,1.555a1.316,1.316,0,0,0,.453,1.063A1.742,1.742,0,0,0,29.387,15.9Zm9.969-6.055a4.331,4.331,0,0,0-.711-.055A1.9,1.9,0,0,0,36.715,11v6H35.27V8.547h1.406l.023.977a2.251,2.251,0,0,1,2.016-1.133,1.477,1.477,0,0,1,.641.109Zm7.242.766h1.086a2.387,2.387,0,0,0,1.609-.539,1.8,1.8,0,0,0,.586-1.414,1.764,1.764,0,0,0-1.992-2,2.072,2.072,0,0,0-1.5.535,1.873,1.873,0,0,0-.559,1.418H44.387a2.9,2.9,0,0,1,.988-2.246,3.6,3.6,0,0,1,2.512-.895,3.558,3.558,0,0,1,2.523.852,3.076,3.076,0,0,1,.914,2.367,2.5,2.5,0,0,1-.48,1.438,2.9,2.9,0,0,1-1.309,1.039,2.8,2.8,0,0,1,1.449.984,2.734,2.734,0,0,1,.512,1.68,3.1,3.1,0,0,1-1,2.43,3.745,3.745,0,0,1-2.6.9,3.844,3.844,0,0,1-2.605-.867,2.877,2.877,0,0,1-1-2.289h1.453a1.859,1.859,0,0,0,.586,1.438,2.229,2.229,0,0,0,1.57.539,2.187,2.187,0,0,0,1.6-.547,2.108,2.108,0,0,0,.555-1.57,1.912,1.912,0,0,0-.609-1.523,2.655,2.655,0,0,0-1.758-.547H46.6Z" transform="translate(-10122 -8036.997)" fill="#12263f"/>
    <path id="Trazado_622265" data-name="Trazado 622265" d="M8.968,87.433,0,0" transform="translate(-10061.85 -8023.644)" fill="none" stroke="#db4d79" stroke-width="3"/>
    <path id="Trazado_622266" data-name="Trazado 622266" d="M0,87.433,8.968,0" transform="translate(-10123.501 -8023.644)" fill="none" stroke="#db4d79" stroke-width="3"/>
    <path id="Trazado_622267" data-name="Trazado 622267" d="M7.852,15.848h4.758V17.9H7.852v5.391H5.672V17.9H.914V15.848H5.672v-4.98h2.18Zm23.1,4.688H23.8L22.2,25h-2.32L26.391,7.938h1.969L34.887,25H32.578ZM24.48,18.7h5.8l-2.906-7.98ZM39.023,23.23h7.418V25H36.375V23.406l7-9.293H36.48V12.32H46.09v1.535Zm17.684.516a4.6,4.6,0,0,1-3.715,1.488A3.942,3.942,0,0,1,49.9,24.057a5.1,5.1,0,0,1-1.072-3.486V12.32H51v8.191q0,2.883,2.344,2.883a3.245,3.245,0,0,0,3.3-1.852V12.32h2.168V25H56.754ZM64.465,25H62.3V7h2.168Zm7.98-6.363H66.727v-1.77h5.719Zm12.844.164a7.539,7.539,0,0,1-1.336,4.67,4.269,4.269,0,0,1-3.586,1.764,4.42,4.42,0,0,1-3.715-1.7L76.547,25H74.555V7h2.168v6.715a4.4,4.4,0,0,1,3.621-1.629,4.3,4.3,0,0,1,3.627,1.746,7.766,7.766,0,0,1,1.318,4.781Zm-2.168-.246a5.858,5.858,0,0,0-.855-3.422A2.832,2.832,0,0,0,79.8,13.926a3.183,3.183,0,0,0-3.082,1.992V21.4a3.272,3.272,0,0,0,3.105,1.992,2.816,2.816,0,0,0,2.426-1.207A6.23,6.23,0,0,0,83.121,18.555ZM90.375,25H88.207V7h2.168Zm11.3,0a4.554,4.554,0,0,1-.3-1.336,4.837,4.837,0,0,1-3.609,1.57,4.476,4.476,0,0,1-3.076-1.061,3.431,3.431,0,0,1-1.2-2.689,3.584,3.584,0,0,1,1.506-3.076,7.1,7.1,0,0,1,4.236-1.1h2.109v-1a2.435,2.435,0,0,0-.68-1.811,2.732,2.732,0,0,0-2-.674,3.161,3.161,0,0,0-1.945.586,1.727,1.727,0,0,0-.785,1.418h-2.18A2.992,2.992,0,0,1,94.412,14a4.6,4.6,0,0,1,1.828-1.4,6.15,6.15,0,0,1,2.537-.516,5.013,5.013,0,0,1,3.434,1.1A3.953,3.953,0,0,1,103.5,16.2v5.836a7.135,7.135,0,0,0,.445,2.777V25Zm-3.6-1.652a3.81,3.81,0,0,0,1.934-.527,3.19,3.19,0,0,0,1.324-1.371v-2.6h-1.7q-3.984,0-3.984,2.332a1.974,1.974,0,0,0,.68,1.594A2.612,2.612,0,0,0,98.074,23.348ZM108.949,12.32l.07,1.594a4.621,4.621,0,0,1,3.8-1.828q4.02,0,4.055,4.535V25H114.7V16.609a2.919,2.919,0,0,0-.627-2.027,2.512,2.512,0,0,0-1.916-.656,3.129,3.129,0,0,0-1.852.563,3.82,3.82,0,0,0-1.242,1.477V25H106.9V12.32Zm16.277,11.145a3.123,3.123,0,0,0,2.027-.7A2.474,2.474,0,0,0,128.215,21h2.051a3.931,3.931,0,0,1-.75,2.074,4.94,4.94,0,0,1-1.846,1.57,5.326,5.326,0,0,1-2.443.586,5.223,5.223,0,0,1-4.119-1.729,6.884,6.884,0,0,1-1.529-4.729v-.363a7.634,7.634,0,0,1,.68-3.293,5.177,5.177,0,0,1,1.951-2.238,5.543,5.543,0,0,1,3.006-.8,5.085,5.085,0,0,1,3.545,1.277,4.565,4.565,0,0,1,1.506,3.316h-2.051a2.988,2.988,0,0,0-.932-2.021,2.9,2.9,0,0,0-2.068-.791,3.034,3.034,0,0,0-2.561,1.189,5.586,5.586,0,0,0-.908,3.439v.41a5.475,5.475,0,0,0,.9,3.375A3.049,3.049,0,0,0,125.227,23.465Zm6.9-4.922a7.489,7.489,0,0,1,.732-3.352,5.464,5.464,0,0,1,2.039-2.3,5.551,5.551,0,0,1,2.982-.809,5.347,5.347,0,0,1,4.189,1.793,6.9,6.9,0,0,1,1.6,4.77V18.8a7.555,7.555,0,0,1-.709,3.322,5.383,5.383,0,0,1-2.027,2.291,5.614,5.614,0,0,1-3.029.82,5.334,5.334,0,0,1-4.178-1.793,6.863,6.863,0,0,1-1.6-4.746Zm2.18.258a5.424,5.424,0,0,0,.979,3.387,3.316,3.316,0,0,0,5.244-.018,5.932,5.932,0,0,0,.973-3.627,5.415,5.415,0,0,0-.99-3.381,3.148,3.148,0,0,0-2.631-1.295,3.113,3.113,0,0,0-2.59,1.277A5.888,5.888,0,0,0,134.309,18.8ZM6.152,46.637H.434v-1.77H6.152Zm17.813,1.9H16.816L15.211,53h-2.32l6.516-17.062h1.969L27.9,53H25.594ZM17.5,46.7h5.8l-2.906-7.98ZM32.039,51.23h7.418V53H29.391V51.406l7-9.293H29.5V40.32h9.609v1.535Zm17.684.516a4.6,4.6,0,0,1-3.715,1.488,3.942,3.942,0,0,1-3.088-1.178,5.1,5.1,0,0,1-1.072-3.486V40.32h2.168v8.191q0,2.883,2.344,2.883a3.245,3.245,0,0,0,3.3-1.852V40.32h2.168V53H49.77ZM57.48,53H55.313V35H57.48ZM7.852,99.848h4.758V101.9H7.852v5.391H5.672V101.9H.914V99.848H5.672v-4.98h2.18ZM34.641,109H32.379l-8.59-13.148V109H21.527V91.938h2.262L32.4,105.145V91.938h2.238Zm11.484,0a4.554,4.554,0,0,1-.3-1.336,4.837,4.837,0,0,1-3.609,1.57,4.476,4.476,0,0,1-3.076-1.061,3.431,3.431,0,0,1-1.2-2.689,3.584,3.584,0,0,1,1.506-3.076,7.1,7.1,0,0,1,4.236-1.1h2.109v-1a2.435,2.435,0,0,0-.68-1.811,2.732,2.732,0,0,0-2-.674,3.161,3.161,0,0,0-1.945.586,1.727,1.727,0,0,0-.785,1.418h-2.18A2.992,2.992,0,0,1,38.865,98a4.6,4.6,0,0,1,1.828-1.4,6.15,6.15,0,0,1,2.537-.516,5.013,5.013,0,0,1,3.434,1.1,3.953,3.953,0,0,1,1.289,3.018v5.836a7.135,7.135,0,0,0,.445,2.777V109Zm-3.6-1.652a3.81,3.81,0,0,0,1.934-.527,3.19,3.19,0,0,0,1.324-1.371v-2.6h-1.7q-3.984,0-3.984,2.332a1.974,1.974,0,0,0,.68,1.594A2.612,2.612,0,0,0,42.527,107.348ZM57.48,98.266a6.5,6.5,0,0,0-1.066-.082A2.857,2.857,0,0,0,53.52,100v9H51.352V96.32h2.109l.035,1.465a3.376,3.376,0,0,1,3.023-1.7,2.215,2.215,0,0,1,.961.164ZM66.832,109a4.554,4.554,0,0,1-.3-1.336,4.837,4.837,0,0,1-3.609,1.57,4.476,4.476,0,0,1-3.076-1.061,3.431,3.431,0,0,1-1.2-2.689,3.584,3.584,0,0,1,1.506-3.076,7.1,7.1,0,0,1,4.236-1.1h2.109v-1a2.435,2.435,0,0,0-.68-1.811,2.732,2.732,0,0,0-2-.674,3.161,3.161,0,0,0-1.945.586,1.727,1.727,0,0,0-.785,1.418H58.9A2.992,2.992,0,0,1,59.572,98,4.6,4.6,0,0,1,61.4,96.6a6.15,6.15,0,0,1,2.537-.516,5.013,5.013,0,0,1,3.434,1.1A3.953,3.953,0,0,1,68.66,100.2v5.836a7.135,7.135,0,0,0,.445,2.777V109Zm-3.6-1.652a3.81,3.81,0,0,0,1.934-.527,3.19,3.19,0,0,0,1.324-1.371v-2.6h-1.7q-3.984,0-3.984,2.332a1.974,1.974,0,0,0,.68,1.594A2.612,2.612,0,0,0,63.234,107.348ZM74.109,96.32l.07,1.594a4.621,4.621,0,0,1,3.8-1.828q4.02,0,4.055,4.535V109H79.863v-8.391a2.919,2.919,0,0,0-.627-2.027,2.512,2.512,0,0,0-1.916-.656,3.129,3.129,0,0,0-1.852.563,3.82,3.82,0,0,0-1.242,1.477V109H72.059V96.32Zm13.43,0v14.145q0,3.656-3.316,3.656a4.045,4.045,0,0,1-1.324-.21v-1.724a4.191,4.191,0,0,0,.984.094,1.473,1.473,0,0,0,1.107-.393,1.943,1.943,0,0,0,.381-1.366V96.32Zm-2.391-3.363a1.3,1.3,0,0,1,.322-.885,1.185,1.185,0,0,1,.943-.369,1.229,1.229,0,0,1,.961.363,1.28,1.28,0,0,1,.328.891,1.238,1.238,0,0,1-.328.879,1.251,1.251,0,0,1-.961.352,1.213,1.213,0,0,1-.949-.352A1.265,1.265,0,0,1,85.148,92.957ZM98.859,109a4.554,4.554,0,0,1-.3-1.336,4.837,4.837,0,0,1-3.609,1.57,4.476,4.476,0,0,1-3.076-1.061,3.431,3.431,0,0,1-1.2-2.689,3.584,3.584,0,0,1,1.506-3.076,7.1,7.1,0,0,1,4.236-1.1H98.52v-1a2.435,2.435,0,0,0-.68-1.811,2.732,2.732,0,0,0-2-.674,3.161,3.161,0,0,0-1.945.586,1.727,1.727,0,0,0-.785,1.418h-2.18A2.992,2.992,0,0,1,91.6,98a4.6,4.6,0,0,1,1.828-1.4,6.15,6.15,0,0,1,2.537-.516,5.013,5.013,0,0,1,3.434,1.1,3.953,3.953,0,0,1,1.289,3.018v5.836a7.135,7.135,0,0,0,.445,2.777V109Zm-3.6-1.652a3.81,3.81,0,0,0,1.934-.527,3.19,3.19,0,0,0,1.324-1.371v-2.6h-1.7q-3.984,0-3.984,2.332a1.974,1.974,0,0,0,.68,1.594A2.612,2.612,0,0,0,95.262,107.348Zm13.336-4.711h-5.719v-1.77H108.6Zm12.844.164a7.539,7.539,0,0,1-1.336,4.67,4.269,4.269,0,0,1-3.586,1.764,4.42,4.42,0,0,1-3.715-1.7L112.7,109h-1.992V91h2.168v6.715a4.4,4.4,0,0,1,3.621-1.629,4.3,4.3,0,0,1,3.627,1.746,7.766,7.766,0,0,1,1.318,4.781Zm-2.168-.246a5.858,5.858,0,0,0-.855-3.422,2.832,2.832,0,0,0-2.461-1.207,3.183,3.183,0,0,0-3.082,1.992V105.4a3.272,3.272,0,0,0,3.105,1.992,2.816,2.816,0,0,0,2.426-1.207A6.23,6.23,0,0,0,119.273,102.555ZM126.527,109h-2.168V91h2.168Zm11.3,0a4.554,4.554,0,0,1-.3-1.336,4.837,4.837,0,0,1-3.609,1.57,4.476,4.476,0,0,1-3.076-1.061,3.431,3.431,0,0,1-1.2-2.689,3.584,3.584,0,0,1,1.506-3.076,7.1,7.1,0,0,1,4.236-1.1h2.109v-1a2.435,2.435,0,0,0-.68-1.811,2.732,2.732,0,0,0-2-.674,3.161,3.161,0,0,0-1.945.586,1.727,1.727,0,0,0-.785,1.418h-2.18A2.992,2.992,0,0,1,130.564,98a4.6,4.6,0,0,1,1.828-1.4,6.15,6.15,0,0,1,2.537-.516,5.013,5.013,0,0,1,3.434,1.1,3.953,3.953,0,0,1,1.289,3.018v5.836a7.135,7.135,0,0,0,.445,2.777V109Zm-3.6-1.652a3.81,3.81,0,0,0,1.934-.527,3.19,3.19,0,0,0,1.324-1.371v-2.6h-1.7q-3.984,0-3.984,2.332a1.974,1.974,0,0,0,.68,1.594A2.612,2.612,0,0,0,134.227,107.348ZM145.1,96.32l.07,1.594a4.621,4.621,0,0,1,3.8-1.828q4.02,0,4.055,4.535V109h-2.168v-8.391a2.919,2.919,0,0,0-.627-2.027,2.512,2.512,0,0,0-1.916-.656,3.129,3.129,0,0,0-1.852.563,3.82,3.82,0,0,0-1.242,1.477V109h-2.168V96.32Zm16.277,11.145a3.123,3.123,0,0,0,2.027-.7,2.474,2.474,0,0,0,.961-1.758h2.051a3.931,3.931,0,0,1-.75,2.074,4.94,4.94,0,0,1-1.846,1.57,5.326,5.326,0,0,1-2.443.586,5.223,5.223,0,0,1-4.119-1.729,6.884,6.884,0,0,1-1.529-4.729v-.363a7.634,7.634,0,0,1,.68-3.293,5.177,5.177,0,0,1,1.951-2.238,5.543,5.543,0,0,1,3.006-.8,5.085,5.085,0,0,1,3.545,1.277,4.565,4.565,0,0,1,1.506,3.316h-2.051a2.988,2.988,0,0,0-.932-2.021,2.9,2.9,0,0,0-2.068-.791,3.034,3.034,0,0,0-2.561,1.189,5.586,5.586,0,0,0-.908,3.439v.41a5.475,5.475,0,0,0,.9,3.375A3.049,3.049,0,0,0,161.379,107.465Zm6.9-4.922a7.489,7.489,0,0,1,.732-3.352,5.464,5.464,0,0,1,2.039-2.3,5.551,5.551,0,0,1,2.982-.809,5.347,5.347,0,0,1,4.189,1.793,6.9,6.9,0,0,1,1.6,4.77v.152a7.555,7.555,0,0,1-.709,3.322,5.383,5.383,0,0,1-2.027,2.291,5.614,5.614,0,0,1-3.029.82,5.334,5.334,0,0,1-4.178-1.793,6.863,6.863,0,0,1-1.6-4.746Zm2.18.258a5.424,5.424,0,0,0,.979,3.387,3.316,3.316,0,0,0,5.244-.018,5.932,5.932,0,0,0,.973-3.627,5.415,5.415,0,0,0-.99-3.381,3.148,3.148,0,0,0-2.631-1.295,3.113,3.113,0,0,0-2.59,1.277A5.888,5.888,0,0,0,170.461,102.8ZM6.152,130.637H.434v-1.77H6.152ZM27.656,137H25.395L16.8,123.852V137H14.543V119.938H16.8l8.613,13.207V119.938h2.238Zm11.484,0a4.554,4.554,0,0,1-.3-1.336,4.837,4.837,0,0,1-3.609,1.57,4.476,4.476,0,0,1-3.076-1.061,3.431,3.431,0,0,1-1.2-2.689,3.584,3.584,0,0,1,1.506-3.076,7.1,7.1,0,0,1,4.236-1.1H38.8v-1a2.435,2.435,0,0,0-.68-1.811,2.732,2.732,0,0,0-2-.674,3.161,3.161,0,0,0-1.945.586,1.727,1.727,0,0,0-.785,1.418h-2.18A2.992,2.992,0,0,1,31.881,126a4.6,4.6,0,0,1,1.828-1.4,6.15,6.15,0,0,1,2.537-.516,5.013,5.013,0,0,1,3.434,1.1,3.953,3.953,0,0,1,1.289,3.018v5.836a7.135,7.135,0,0,0,.445,2.777V137Zm-3.6-1.652a3.81,3.81,0,0,0,1.934-.527,3.19,3.19,0,0,0,1.324-1.371v-2.6H37.1q-3.984,0-3.984,2.332a1.974,1.974,0,0,0,.68,1.594A2.612,2.612,0,0,0,35.543,135.348ZM50.5,126.266a6.5,6.5,0,0,0-1.066-.082A2.857,2.857,0,0,0,46.535,128v9H44.367V124.32h2.109l.035,1.465a3.376,3.376,0,0,1,3.023-1.7,2.215,2.215,0,0,1,.961.164ZM59.848,137a4.554,4.554,0,0,1-.3-1.336,4.837,4.837,0,0,1-3.609,1.57,4.476,4.476,0,0,1-3.076-1.061,3.431,3.431,0,0,1-1.2-2.689,3.584,3.584,0,0,1,1.506-3.076,7.1,7.1,0,0,1,4.236-1.1h2.109v-1a2.435,2.435,0,0,0-.68-1.811,2.732,2.732,0,0,0-2-.674,3.161,3.161,0,0,0-1.945.586,1.727,1.727,0,0,0-.785,1.418h-2.18A2.992,2.992,0,0,1,52.588,126a4.6,4.6,0,0,1,1.828-1.4,6.15,6.15,0,0,1,2.537-.516,5.013,5.013,0,0,1,3.434,1.1,3.953,3.953,0,0,1,1.289,3.018v5.836a7.135,7.135,0,0,0,.445,2.777V137Zm-3.6-1.652a3.81,3.81,0,0,0,1.934-.527,3.19,3.19,0,0,0,1.324-1.371v-2.6h-1.7q-3.984,0-3.984,2.332a1.974,1.974,0,0,0,.68,1.594A2.612,2.612,0,0,0,56.25,135.348ZM67.125,124.32l.07,1.594a4.621,4.621,0,0,1,3.8-1.828q4.02,0,4.055,4.535V137H72.879v-8.391a2.919,2.919,0,0,0-.627-2.027,2.512,2.512,0,0,0-1.916-.656,3.129,3.129,0,0,0-1.852.563,3.82,3.82,0,0,0-1.242,1.477V137H65.074V124.32Zm13.43,0v14.145q0,3.656-3.316,3.656a4.045,4.045,0,0,1-1.324-.21v-1.724a4.191,4.191,0,0,0,.984.094,1.473,1.473,0,0,0,1.107-.393,1.943,1.943,0,0,0,.381-1.366v-14.2Zm-2.391-3.363a1.3,1.3,0,0,1,.322-.885,1.185,1.185,0,0,1,.943-.369,1.229,1.229,0,0,1,.961.363,1.28,1.28,0,0,1,.328.891,1.238,1.238,0,0,1-.328.879,1.251,1.251,0,0,1-.961.352,1.213,1.213,0,0,1-.949-.352A1.265,1.265,0,0,1,78.164,120.957ZM91.875,137a4.554,4.554,0,0,1-.3-1.336,4.837,4.837,0,0,1-3.609,1.57,4.476,4.476,0,0,1-3.076-1.061,3.431,3.431,0,0,1-1.2-2.689,3.584,3.584,0,0,1,1.506-3.076,7.1,7.1,0,0,1,4.236-1.1h2.109v-1a2.435,2.435,0,0,0-.68-1.811,2.732,2.732,0,0,0-2-.674,3.161,3.161,0,0,0-1.945.586,1.727,1.727,0,0,0-.785,1.418h-2.18A2.992,2.992,0,0,1,84.615,126a4.6,4.6,0,0,1,1.828-1.4,6.15,6.15,0,0,1,2.537-.516,5.013,5.013,0,0,1,3.434,1.1A3.953,3.953,0,0,1,93.7,128.2v5.836a7.135,7.135,0,0,0,.445,2.777V137Zm-3.6-1.652a3.81,3.81,0,0,0,1.934-.527,3.19,3.19,0,0,0,1.324-1.371v-2.6h-1.7q-3.984,0-3.984,2.332a1.974,1.974,0,0,0,.68,1.594A2.612,2.612,0,0,0,88.277,135.348Zm-80.426,48.5h4.758V185.9H7.852v5.391H5.672V185.9H.914v-2.051H5.672v-4.98h2.18Zm19.324,6.164,4.875-14.074h2.461L28.184,193H26.191l-6.316-17.062h2.449Zm14.543,3.223a5.54,5.54,0,0,1-4.2-1.693,6.285,6.285,0,0,1-1.617-4.529v-.4a7.609,7.609,0,0,1,.721-3.369,5.622,5.622,0,0,1,2.016-2.32,5.068,5.068,0,0,1,2.807-.838,4.749,4.749,0,0,1,3.844,1.629,7.053,7.053,0,0,1,1.371,4.664v.9h-8.59a4.507,4.507,0,0,0,1.1,3.029,3.444,3.444,0,0,0,2.666,1.154A3.776,3.776,0,0,0,43.781,191a4.888,4.888,0,0,0,1.395-1.242l1.324,1.031A5.325,5.325,0,0,1,41.719,193.234Zm-.27-11.367a2.892,2.892,0,0,0-2.2.955,4.642,4.642,0,0,0-1.1,2.678H44.5v-.164a4.129,4.129,0,0,0-.891-2.561A2.723,2.723,0,0,0,41.449,181.867Zm13.852.4a6.5,6.5,0,0,0-1.066-.082A2.857,2.857,0,0,0,51.34,184v9H49.172V180.32h2.109l.035,1.465a3.376,3.376,0,0,1,3.023-1.7,2.215,2.215,0,0,1,.961.164Zm1.465,4.289a7.428,7.428,0,0,1,1.383-4.693,4.7,4.7,0,0,1,7.148-.252V175h2.168v18H65.473l-.105-1.359a4.415,4.415,0,0,1-3.621,1.594,4.331,4.331,0,0,1-3.592-1.8,7.512,7.512,0,0,1-1.389-4.711Zm2.168.246a5.624,5.624,0,0,0,.891,3.375,2.879,2.879,0,0,0,2.461,1.219,3.163,3.163,0,0,0,3.012-1.852v-5.824a3.187,3.187,0,0,0-2.988-1.793,2.893,2.893,0,0,0-2.484,1.23A6.192,6.192,0,0,0,58.934,186.8Zm17.156,6.434a5.54,5.54,0,0,1-4.2-1.693,6.285,6.285,0,0,1-1.617-4.529v-.4A7.609,7.609,0,0,1,71,183.244a5.622,5.622,0,0,1,2.016-2.32,5.068,5.068,0,0,1,2.807-.838,4.749,4.749,0,0,1,3.844,1.629,7.053,7.053,0,0,1,1.371,4.664v.9h-8.59a4.507,4.507,0,0,0,1.1,3.029,3.444,3.444,0,0,0,2.666,1.154A3.776,3.776,0,0,0,78.152,191a4.888,4.888,0,0,0,1.395-1.242l1.324,1.031A5.325,5.325,0,0,1,76.09,193.234Zm-.27-11.367a2.892,2.892,0,0,0-2.2.955,4.642,4.642,0,0,0-1.1,2.678h6.352v-.164a4.129,4.129,0,0,0-.891-2.561A2.723,2.723,0,0,0,75.82,181.867Zm12.234,4.77H82.336v-1.77h5.719Zm12.844.164a7.539,7.539,0,0,1-1.336,4.67,4.269,4.269,0,0,1-3.586,1.764,4.42,4.42,0,0,1-3.715-1.7L92.156,193H90.164V175h2.168v6.715a4.4,4.4,0,0,1,3.621-1.629,4.3,4.3,0,0,1,3.627,1.746,7.766,7.766,0,0,1,1.318,4.781Zm-2.168-.246a5.858,5.858,0,0,0-.855-3.422,2.832,2.832,0,0,0-2.461-1.207,3.183,3.183,0,0,0-3.082,1.992V189.4a3.272,3.272,0,0,0,3.105,1.992,2.816,2.816,0,0,0,2.426-1.207A6.23,6.23,0,0,0,98.73,186.555ZM105.984,193h-2.168V175h2.168Zm11.3,0a4.554,4.554,0,0,1-.3-1.336,4.837,4.837,0,0,1-3.609,1.57,4.476,4.476,0,0,1-3.076-1.061,3.431,3.431,0,0,1-1.2-2.689,3.584,3.584,0,0,1,1.506-3.076,7.1,7.1,0,0,1,4.236-1.1h2.109v-1a2.435,2.435,0,0,0-.68-1.811,2.732,2.732,0,0,0-2-.674,3.161,3.161,0,0,0-1.945.586,1.727,1.727,0,0,0-.785,1.418h-2.18a2.992,2.992,0,0,1,.674-1.834,4.6,4.6,0,0,1,1.828-1.4,6.15,6.15,0,0,1,2.537-.516,5.013,5.013,0,0,1,3.434,1.1,3.953,3.953,0,0,1,1.289,3.018v5.836a7.135,7.135,0,0,0,.445,2.777V193Zm-3.6-1.652a3.81,3.81,0,0,0,1.934-.527,3.19,3.19,0,0,0,1.324-1.371v-2.6h-1.7q-3.984,0-3.984,2.332a1.974,1.974,0,0,0,.68,1.594A2.612,2.612,0,0,0,113.684,191.348Zm10.875-11.027.07,1.594a4.621,4.621,0,0,1,3.8-1.828q4.02,0,4.055,4.535V193h-2.168v-8.391a2.919,2.919,0,0,0-.627-2.027,2.512,2.512,0,0,0-1.916-.656,3.129,3.129,0,0,0-1.852.563,3.82,3.82,0,0,0-1.242,1.477V193h-2.168V180.32Zm16.277,11.145a3.123,3.123,0,0,0,2.027-.7,2.474,2.474,0,0,0,.961-1.758h2.051a3.931,3.931,0,0,1-.75,2.074,4.94,4.94,0,0,1-1.846,1.57,5.326,5.326,0,0,1-2.443.586,5.223,5.223,0,0,1-4.119-1.729,6.884,6.884,0,0,1-1.529-4.729v-.363a7.634,7.634,0,0,1,.68-3.293,5.177,5.177,0,0,1,1.951-2.238,5.543,5.543,0,0,1,3.006-.8,5.085,5.085,0,0,1,3.545,1.277,4.565,4.565,0,0,1,1.506,3.316h-2.051a2.988,2.988,0,0,0-.932-2.021,2.9,2.9,0,0,0-2.068-.791,3.034,3.034,0,0,0-2.561,1.189,5.586,5.586,0,0,0-.908,3.439v.41a5.475,5.475,0,0,0,.9,3.375A3.049,3.049,0,0,0,140.836,191.465Zm6.9-4.922a7.489,7.489,0,0,1,.732-3.352,5.464,5.464,0,0,1,2.039-2.3,5.551,5.551,0,0,1,2.982-.809,5.347,5.347,0,0,1,4.189,1.793,6.9,6.9,0,0,1,1.6,4.77v.152a7.555,7.555,0,0,1-.709,3.322,5.383,5.383,0,0,1-2.027,2.291,5.614,5.614,0,0,1-3.029.82,5.334,5.334,0,0,1-4.178-1.793,6.863,6.863,0,0,1-1.6-4.746Zm2.18.258a5.424,5.424,0,0,0,.979,3.387,3.316,3.316,0,0,0,5.244-.018,5.932,5.932,0,0,0,.973-3.627,5.415,5.415,0,0,0-.99-3.381,3.148,3.148,0,0,0-2.631-1.295,3.113,3.113,0,0,0-2.59,1.277A5.888,5.888,0,0,0,149.918,186.8ZM6.152,214.637H.434v-1.77H6.152Zm14.039,3.375,4.875-14.074h2.461L21.2,221H19.207l-6.316-17.062H15.34Zm14.543,3.223a5.54,5.54,0,0,1-4.2-1.693,6.285,6.285,0,0,1-1.617-4.529v-.4a7.609,7.609,0,0,1,.721-3.369,5.622,5.622,0,0,1,2.016-2.32,5.068,5.068,0,0,1,2.807-.838,4.749,4.749,0,0,1,3.844,1.629,7.053,7.053,0,0,1,1.371,4.664v.9H31.09a4.507,4.507,0,0,0,1.1,3.029,3.444,3.444,0,0,0,2.666,1.154A3.776,3.776,0,0,0,36.8,219a4.888,4.888,0,0,0,1.395-1.242l1.324,1.031A5.325,5.325,0,0,1,34.734,221.234Zm-.27-11.367a2.892,2.892,0,0,0-2.2.955,4.642,4.642,0,0,0-1.1,2.678h6.352v-.164a4.129,4.129,0,0,0-.891-2.561A2.723,2.723,0,0,0,34.465,209.867Zm13.852.4a6.5,6.5,0,0,0-1.066-.082A2.857,2.857,0,0,0,44.355,212v9H42.188V208.32H44.3l.035,1.465a3.376,3.376,0,0,1,3.023-1.7,2.215,2.215,0,0,1,.961.164Zm1.465,4.289a7.428,7.428,0,0,1,1.383-4.693,4.7,4.7,0,0,1,7.148-.252V203H60.48v18H58.488l-.105-1.359a4.415,4.415,0,0,1-3.621,1.594,4.331,4.331,0,0,1-3.592-1.8,7.512,7.512,0,0,1-1.389-4.711Zm2.168.246a5.624,5.624,0,0,0,.891,3.375,2.879,2.879,0,0,0,2.461,1.219,3.163,3.163,0,0,0,3.012-1.852v-5.824a3.187,3.187,0,0,0-2.988-1.793,2.893,2.893,0,0,0-2.484,1.23A6.192,6.192,0,0,0,51.949,214.8Zm17.156,6.434a5.54,5.54,0,0,1-4.2-1.693,6.285,6.285,0,0,1-1.617-4.529v-.4a7.609,7.609,0,0,1,.721-3.369,5.622,5.622,0,0,1,2.016-2.32,5.068,5.068,0,0,1,2.807-.838,4.749,4.749,0,0,1,3.844,1.629,7.053,7.053,0,0,1,1.371,4.664v.9h-8.59a4.507,4.507,0,0,0,1.1,3.029,3.444,3.444,0,0,0,2.666,1.154A3.776,3.776,0,0,0,71.168,219a4.888,4.888,0,0,0,1.395-1.242l1.324,1.031A5.325,5.325,0,0,1,69.105,221.234Zm-.27-11.367a2.892,2.892,0,0,0-2.2.955,4.642,4.642,0,0,0-1.1,2.678h6.352v-.164a4.129,4.129,0,0,0-.891-2.561A2.723,2.723,0,0,0,68.836,209.867ZM7.852,267.848h4.758V269.9H7.852v5.391H5.672V269.9H.914v-2.051H5.672v-4.98h2.18Zm26.227,3.738a6.277,6.277,0,0,1-2,4.178,6.548,6.548,0,0,1-4.471,1.471,6.012,6.012,0,0,1-4.846-2.168,8.722,8.722,0,0,1-1.822-5.8v-1.641a9.722,9.722,0,0,1,.85-4.184A6.346,6.346,0,0,1,24.2,260.67a6.705,6.705,0,0,1,3.609-.967,6.165,6.165,0,0,1,4.359,1.518,6.353,6.353,0,0,1,1.91,4.2H31.816a4.9,4.9,0,0,0-1.271-2.962,3.847,3.847,0,0,0-2.736-.917,4.026,4.026,0,0,0-3.381,1.6,7.323,7.323,0,0,0-1.225,4.539v1.654a7.527,7.527,0,0,0,1.16,4.422,3.749,3.749,0,0,0,3.246,1.642,4.33,4.33,0,0,0,2.877-.85,4.715,4.715,0,0,0,1.33-2.959ZM44.637,277a4.554,4.554,0,0,1-.3-1.336,4.837,4.837,0,0,1-3.609,1.57,4.476,4.476,0,0,1-3.076-1.061,3.431,3.431,0,0,1-1.2-2.689,3.584,3.584,0,0,1,1.506-3.076,7.1,7.1,0,0,1,4.236-1.1H44.3v-1a2.435,2.435,0,0,0-.68-1.811,2.732,2.732,0,0,0-2-.674,3.161,3.161,0,0,0-1.945.586,1.727,1.727,0,0,0-.785,1.418H36.7A2.992,2.992,0,0,1,37.377,266a4.6,4.6,0,0,1,1.828-1.4,6.15,6.15,0,0,1,2.537-.516,5.013,5.013,0,0,1,3.434,1.1,3.953,3.953,0,0,1,1.289,3.018v5.836a7.135,7.135,0,0,0,.445,2.777V277Zm-3.6-1.652a3.81,3.81,0,0,0,1.934-.527,3.19,3.19,0,0,0,1.324-1.371v-2.6H42.6q-3.984,0-3.984,2.332a1.974,1.974,0,0,0,.68,1.594A2.612,2.612,0,0,0,41.039,275.348ZM50.93,277V266h-2V264.32h2v-1.3a4.318,4.318,0,0,1,1.09-3.152,4.117,4.117,0,0,1,3.082-1.113,5.724,5.724,0,0,1,1.488.2l-.117,1.747a6.226,6.226,0,0,0-1.172-.105,2.115,2.115,0,0,0-1.629.617,2.5,2.5,0,0,0-.574,1.769v1.34H55.8V266H53.1v11Zm12.527.234a5.54,5.54,0,0,1-4.2-1.693,6.285,6.285,0,0,1-1.617-4.529v-.4a7.609,7.609,0,0,1,.721-3.369,5.622,5.622,0,0,1,2.016-2.32,5.068,5.068,0,0,1,2.807-.838,4.749,4.749,0,0,1,3.844,1.629,7.053,7.053,0,0,1,1.371,4.664v.9h-8.59a4.507,4.507,0,0,0,1.1,3.029,3.444,3.444,0,0,0,2.666,1.154A3.776,3.776,0,0,0,65.52,275a4.888,4.888,0,0,0,1.395-1.242l1.324,1.031A5.325,5.325,0,0,1,63.457,277.234Zm-.27-11.367a2.892,2.892,0,0,0-2.2.955,4.642,4.642,0,0,0-1.1,2.678h6.352v-.164a4.129,4.129,0,0,0-.891-2.561A2.723,2.723,0,0,0,63.188,265.867ZM64.242,259h2.625l-3.141,3.445-1.746-.006Zm11.18,11.637H69.7v-1.77h5.719Zm12.844.164a7.539,7.539,0,0,1-1.336,4.67,4.269,4.269,0,0,1-3.586,1.764,4.42,4.42,0,0,1-3.715-1.7L79.523,277H77.531V259H79.7v6.715a4.4,4.4,0,0,1,3.621-1.629,4.3,4.3,0,0,1,3.627,1.746,7.766,7.766,0,0,1,1.318,4.781Zm-2.168-.246a5.858,5.858,0,0,0-.855-3.422,2.832,2.832,0,0,0-2.461-1.207,3.183,3.183,0,0,0-3.082,1.992V273.4a3.272,3.272,0,0,0,3.105,1.992,2.816,2.816,0,0,0,2.426-1.207A6.23,6.23,0,0,0,86.1,270.555ZM93.352,277H91.184V259h2.168Zm11.3,0a4.554,4.554,0,0,1-.3-1.336,4.837,4.837,0,0,1-3.609,1.57,4.476,4.476,0,0,1-3.076-1.061,3.431,3.431,0,0,1-1.2-2.689,3.584,3.584,0,0,1,1.506-3.076,7.1,7.1,0,0,1,4.236-1.1h2.109v-1a2.435,2.435,0,0,0-.68-1.811,2.732,2.732,0,0,0-2-.674,3.161,3.161,0,0,0-1.945.586,1.727,1.727,0,0,0-.785,1.418h-2.18A2.992,2.992,0,0,1,97.389,266a4.6,4.6,0,0,1,1.828-1.4,6.15,6.15,0,0,1,2.537-.516,5.013,5.013,0,0,1,3.434,1.1,3.953,3.953,0,0,1,1.289,3.018v5.836a7.135,7.135,0,0,0,.445,2.777V277Zm-3.6-1.652a3.81,3.81,0,0,0,1.934-.527,3.19,3.19,0,0,0,1.324-1.371v-2.6h-1.7q-3.984,0-3.984,2.332a1.974,1.974,0,0,0,.68,1.594A2.612,2.612,0,0,0,101.051,275.348Zm10.875-11.027.07,1.594a4.621,4.621,0,0,1,3.8-1.828q4.02,0,4.055,4.535V277H117.68v-8.391a2.919,2.919,0,0,0-.627-2.027,2.512,2.512,0,0,0-1.916-.656,3.129,3.129,0,0,0-1.852.563,3.82,3.82,0,0,0-1.242,1.477V277h-2.168V264.32ZM128.2,275.465a3.123,3.123,0,0,0,2.027-.7,2.474,2.474,0,0,0,.961-1.758h2.051a3.931,3.931,0,0,1-.75,2.074,4.94,4.94,0,0,1-1.846,1.57,5.326,5.326,0,0,1-2.443.586,5.223,5.223,0,0,1-4.119-1.729,6.884,6.884,0,0,1-1.529-4.729v-.363a7.634,7.634,0,0,1,.68-3.293,5.177,5.177,0,0,1,1.951-2.238,5.543,5.543,0,0,1,3.006-.8,5.085,5.085,0,0,1,3.545,1.277,4.565,4.565,0,0,1,1.506,3.316h-2.051a2.988,2.988,0,0,0-.932-2.021,2.9,2.9,0,0,0-2.068-.791,3.034,3.034,0,0,0-2.561,1.189,5.586,5.586,0,0,0-.908,3.439v.41a5.475,5.475,0,0,0,.9,3.375A3.049,3.049,0,0,0,128.2,275.465Zm6.9-4.922a7.489,7.489,0,0,1,.732-3.352,5.464,5.464,0,0,1,2.039-2.3,5.551,5.551,0,0,1,2.982-.809,5.347,5.347,0,0,1,4.189,1.793,6.9,6.9,0,0,1,1.6,4.77v.152a7.555,7.555,0,0,1-.709,3.322,5.383,5.383,0,0,1-2.027,2.291,5.614,5.614,0,0,1-3.029.82,5.334,5.334,0,0,1-4.178-1.793,6.863,6.863,0,0,1-1.6-4.746Zm2.18.258a5.424,5.424,0,0,0,.979,3.387,3.316,3.316,0,0,0,5.244-.018,5.932,5.932,0,0,0,.973-3.627,5.415,5.415,0,0,0-.99-3.381,3.148,3.148,0,0,0-2.631-1.295,3.113,3.113,0,0,0-2.59,1.277A5.888,5.888,0,0,0,137.285,270.8ZM6.152,298.637H.434v-1.77H6.152Zm20.941.949a6.277,6.277,0,0,1-2,4.178,6.548,6.548,0,0,1-4.471,1.471,6.012,6.012,0,0,1-4.846-2.168,8.722,8.722,0,0,1-1.822-5.8v-1.641a9.722,9.722,0,0,1,.85-4.184,6.346,6.346,0,0,1,2.408-2.771,6.705,6.705,0,0,1,3.609-.967,6.165,6.165,0,0,1,4.359,1.518,6.353,6.353,0,0,1,1.91,4.2H24.832a4.9,4.9,0,0,0-1.271-2.962,3.847,3.847,0,0,0-2.736-.917,4.026,4.026,0,0,0-3.381,1.6,7.323,7.323,0,0,0-1.225,4.539v1.654a7.527,7.527,0,0,0,1.16,4.422,3.749,3.749,0,0,0,3.246,1.642,4.33,4.33,0,0,0,2.877-.85,4.715,4.715,0,0,0,1.33-2.959ZM37.652,305a4.554,4.554,0,0,1-.3-1.336,4.837,4.837,0,0,1-3.609,1.57,4.476,4.476,0,0,1-3.076-1.061,3.431,3.431,0,0,1-1.2-2.689,3.584,3.584,0,0,1,1.506-3.076,7.1,7.1,0,0,1,4.236-1.1h2.109v-1a2.435,2.435,0,0,0-.68-1.811,2.732,2.732,0,0,0-2-.674,3.161,3.161,0,0,0-1.945.586,1.727,1.727,0,0,0-.785,1.418h-2.18A2.992,2.992,0,0,1,30.393,294a4.6,4.6,0,0,1,1.828-1.4,6.15,6.15,0,0,1,2.537-.516,5.013,5.013,0,0,1,3.434,1.1A3.953,3.953,0,0,1,39.48,296.2v5.836a7.135,7.135,0,0,0,.445,2.777V305Zm-3.6-1.652a3.81,3.81,0,0,0,1.934-.527,3.19,3.19,0,0,0,1.324-1.371v-2.6h-1.7q-3.984,0-3.984,2.332a1.974,1.974,0,0,0,.68,1.594A2.612,2.612,0,0,0,34.055,303.348ZM43.945,305V294h-2V292.32h2v-1.3a4.318,4.318,0,0,1,1.09-3.152,4.117,4.117,0,0,1,3.082-1.113,5.724,5.724,0,0,1,1.488.2l-.117,1.747a6.226,6.226,0,0,0-1.172-.105,2.115,2.115,0,0,0-1.629.617,2.5,2.5,0,0,0-.574,1.769v1.34H48.82V294H46.113v11Zm12.527.234a5.54,5.54,0,0,1-4.2-1.693,6.285,6.285,0,0,1-1.617-4.529v-.4a7.609,7.609,0,0,1,.721-3.369,5.622,5.622,0,0,1,2.016-2.32,5.068,5.068,0,0,1,2.807-.838,4.749,4.749,0,0,1,3.844,1.629,7.053,7.053,0,0,1,1.371,4.664v.9h-8.59a4.507,4.507,0,0,0,1.1,3.029,3.444,3.444,0,0,0,2.666,1.154A3.776,3.776,0,0,0,58.535,303a4.888,4.888,0,0,0,1.395-1.242l1.324,1.031A5.325,5.325,0,0,1,56.473,305.234Zm-.27-11.367a2.892,2.892,0,0,0-2.2.955,4.642,4.642,0,0,0-1.1,2.678H59.25v-.164a4.129,4.129,0,0,0-.891-2.561A2.723,2.723,0,0,0,56.2,293.867ZM57.258,287h2.625l-3.141,3.445L55,290.439Z" transform="translate(-9764.058 -7815.378)" fill="#12263f"/>
    <path id="Trazado_622268" data-name="Trazado 622268" d="M-51.8-5.789V0H-55.91V-17.062H-49.1a7.93,7.93,0,0,1,3.463.721,5.431,5.431,0,0,1,2.332,2.051,5.6,5.6,0,0,1,.826,3.018,4.937,4.937,0,0,1-1.787,3.99,7.415,7.415,0,0,1-4.9,1.494Zm0-3.176h2.7a2.542,2.542,0,0,0,1.822-.6,2.221,2.221,0,0,0,.627-1.687,2.745,2.745,0,0,0-.645-1.91,2.282,2.282,0,0,0-1.758-.727H-51.8ZM-33.457,0a4.459,4.459,0,0,1-.375-1.137A3.672,3.672,0,0,1-36.879.234,4.5,4.5,0,0,1-39.926-.85,3.45,3.45,0,0,1-41.18-3.574a3.546,3.546,0,0,1,1.523-3.117,7.761,7.761,0,0,1,4.43-1.055h1.219v-.671q0-1.755-1.512-1.755a1.236,1.236,0,0,0-1.406,1.39h-3.949a3.54,3.54,0,0,1,1.564-2.985,6.575,6.575,0,0,1,3.99-1.147,5.764,5.764,0,0,1,3.832,1.184,4.115,4.115,0,0,1,1.441,3.246v5.613A5.748,5.748,0,0,0-29.508-.2V0ZM-35.93-2.578a2.2,2.2,0,0,0,1.225-.316,1.983,1.983,0,0,0,.7-.715V-5.637h-1.148q-2.062,0-2.062,1.852a1.131,1.131,0,0,0,.363.873A1.315,1.315,0,0,0-35.93-2.578Zm15.738-6.527-1.3-.094a2.336,2.336,0,0,0-2.391,1.172V0h-3.949V-12.68h3.7L-24-11.051a3.058,3.058,0,0,1,2.777-1.863,3.851,3.851,0,0,1,1.1.141ZM-4.1,0H-8.062V-12.609l-3.891,1.137v-3l7.488-2.59H-4.1Z" transform="translate(-9795 -7793.41)" fill="#12263f"/>
    <path id="Trazado_622269" data-name="Trazado 622269" d="M-51.8-5.789V0H-55.91V-17.062H-49.1a7.93,7.93,0,0,1,3.463.721,5.431,5.431,0,0,1,2.332,2.051,5.6,5.6,0,0,1,.826,3.018,4.937,4.937,0,0,1-1.787,3.99,7.415,7.415,0,0,1-4.9,1.494Zm0-3.176h2.7a2.542,2.542,0,0,0,1.822-.6,2.221,2.221,0,0,0,.627-1.687,2.745,2.745,0,0,0-.645-1.91,2.282,2.282,0,0,0-1.758-.727H-51.8ZM-33.457,0a4.459,4.459,0,0,1-.375-1.137A3.672,3.672,0,0,1-36.879.234,4.5,4.5,0,0,1-39.926-.85,3.45,3.45,0,0,1-41.18-3.574a3.546,3.546,0,0,1,1.523-3.117,7.761,7.761,0,0,1,4.43-1.055h1.219v-.671q0-1.755-1.512-1.755a1.236,1.236,0,0,0-1.406,1.39h-3.949a3.54,3.54,0,0,1,1.564-2.985,6.575,6.575,0,0,1,3.99-1.147,5.764,5.764,0,0,1,3.832,1.184,4.115,4.115,0,0,1,1.441,3.246v5.613A5.748,5.748,0,0,0-29.508-.2V0ZM-35.93-2.578a2.2,2.2,0,0,0,1.225-.316,1.983,1.983,0,0,0,.7-.715V-5.637h-1.148q-2.062,0-2.062,1.852a1.131,1.131,0,0,0,.363.873A1.315,1.315,0,0,0-35.93-2.578Zm15.738-6.527-1.3-.094a2.336,2.336,0,0,0-2.391,1.172V0h-3.949V-12.68h3.7L-24-11.051a3.058,3.058,0,0,1,2.777-1.863,3.851,3.851,0,0,1,1.1.141ZM-.949,0H-12.855V-2.578l5.484-5.766q2.027-2.309,2.027-3.668a2.551,2.551,0,0,0-.48-1.676,1.715,1.715,0,0,0-1.395-.574,1.737,1.737,0,0,0-1.465.768,3.155,3.155,0,0,0-.562,1.916h-3.961a5.6,5.6,0,0,1,.785-2.9,5.506,5.506,0,0,1,2.18-2.08,6.475,6.475,0,0,1,3.117-.75,6.369,6.369,0,0,1,4.26,1.277,4.56,4.56,0,0,1,1.494,3.668A5.326,5.326,0,0,1-1.746-10.4a8.608,8.608,0,0,1-1.166,2A29.372,29.372,0,0,1-5.461-5.59l-2.2,2.543H-.949Z" transform="translate(-9795 -7707.91)" fill="#12263f"/>
    <path id="Trazado_622270" data-name="Trazado 622270" d="M-51.8-5.789V0H-55.91V-17.062H-49.1a7.93,7.93,0,0,1,3.463.721,5.431,5.431,0,0,1,2.332,2.051,5.6,5.6,0,0,1,.826,3.018,4.937,4.937,0,0,1-1.787,3.99,7.415,7.415,0,0,1-4.9,1.494Zm0-3.176h2.7a2.542,2.542,0,0,0,1.822-.6,2.221,2.221,0,0,0,.627-1.687,2.745,2.745,0,0,0-.645-1.91,2.282,2.282,0,0,0-1.758-.727H-51.8ZM-33.457,0a4.459,4.459,0,0,1-.375-1.137A3.672,3.672,0,0,1-36.879.234,4.5,4.5,0,0,1-39.926-.85,3.45,3.45,0,0,1-41.18-3.574a3.546,3.546,0,0,1,1.523-3.117,7.761,7.761,0,0,1,4.43-1.055h1.219v-.671q0-1.755-1.512-1.755a1.236,1.236,0,0,0-1.406,1.39h-3.949a3.54,3.54,0,0,1,1.564-2.985,6.575,6.575,0,0,1,3.99-1.147,5.764,5.764,0,0,1,3.832,1.184,4.115,4.115,0,0,1,1.441,3.246v5.613A5.748,5.748,0,0,0-29.508-.2V0ZM-35.93-2.578a2.2,2.2,0,0,0,1.225-.316,1.983,1.983,0,0,0,.7-.715V-5.637h-1.148q-2.062,0-2.062,1.852a1.131,1.131,0,0,0,.363.873A1.315,1.315,0,0,0-35.93-2.578Zm15.738-6.527-1.3-.094a2.336,2.336,0,0,0-2.391,1.172V0h-3.949V-12.68h3.7L-24-11.051a3.058,3.058,0,0,1,2.777-1.863,3.851,3.851,0,0,1,1.1.141Zm10.945-1.078h1.863a1.937,1.937,0,0,0,2.215-2.168A1.875,1.875,0,0,0-5.7-13.729a2,2,0,0,0-1.488-.533,2.141,2.141,0,0,0-1.365.457,1.394,1.394,0,0,0-.58,1.137h-3.949a4.043,4.043,0,0,1,.75-2.4,4.953,4.953,0,0,1,2.08-1.646,7.112,7.112,0,0,1,2.924-.592,6.988,6.988,0,0,1,4.477,1.3,4.324,4.324,0,0,1,1.629,3.574,3.6,3.6,0,0,1-.674,2.08A4.8,4.8,0,0,1-3.855-8.766,4.587,4.587,0,0,1-1.723-7.271,3.935,3.935,0,0,1-.949-4.793,4.4,4.4,0,0,1-2.707-1.137,7.3,7.3,0,0,1-7.324.234,7.567,7.567,0,0,1-10.436-.4a4.875,4.875,0,0,1-2.174-1.77,4.6,4.6,0,0,1-.738-2.572h3.973a1.778,1.778,0,0,0,.633,1.359,2.234,2.234,0,0,0,1.559.574,2.34,2.34,0,0,0,1.664-.58A1.939,1.939,0,0,0-4.9-4.875,2.267,2.267,0,0,0-5.543-6.7a2.694,2.694,0,0,0-1.781-.539H-9.246Z" transform="translate(-9795 -7626.524)" fill="#12263f"/>
    <path id="Trazado_622271" data-name="Trazado 622271" d="M-51.8-5.789V0H-55.91V-17.062H-49.1a7.93,7.93,0,0,1,3.463.721,5.431,5.431,0,0,1,2.332,2.051,5.6,5.6,0,0,1,.826,3.018,4.937,4.937,0,0,1-1.787,3.99,7.415,7.415,0,0,1-4.9,1.494Zm0-3.176h2.7a2.542,2.542,0,0,0,1.822-.6,2.221,2.221,0,0,0,.627-1.687,2.745,2.745,0,0,0-.645-1.91,2.282,2.282,0,0,0-1.758-.727H-51.8ZM-33.457,0a4.459,4.459,0,0,1-.375-1.137A3.672,3.672,0,0,1-36.879.234,4.5,4.5,0,0,1-39.926-.85,3.45,3.45,0,0,1-41.18-3.574a3.546,3.546,0,0,1,1.523-3.117,7.761,7.761,0,0,1,4.43-1.055h1.219v-.671q0-1.755-1.512-1.755a1.236,1.236,0,0,0-1.406,1.39h-3.949a3.54,3.54,0,0,1,1.564-2.985,6.575,6.575,0,0,1,3.99-1.147,5.764,5.764,0,0,1,3.832,1.184,4.115,4.115,0,0,1,1.441,3.246v5.613A5.748,5.748,0,0,0-29.508-.2V0ZM-35.93-2.578a2.2,2.2,0,0,0,1.225-.316,1.983,1.983,0,0,0,.7-.715V-5.637h-1.148q-2.062,0-2.062,1.852a1.131,1.131,0,0,0,.363.873A1.315,1.315,0,0,0-35.93-2.578Zm15.738-6.527-1.3-.094a2.336,2.336,0,0,0-2.391,1.172V0h-3.949V-12.68h3.7L-24-11.051a3.058,3.058,0,0,1,2.777-1.863,3.851,3.851,0,0,1,1.1.141ZM-2.426-6.668H-.691v3.047H-2.426V0H-6.375V-3.621h-6.6l-.234-2.414,6.832-10.992v-.035h3.949Zm-7.02,0h3.07v-5.25l-.246.4Z" transform="translate(-9795 -7542.025)" fill="#12263f"/>
    <path id="Trazado_622272" data-name="Trazado 622272" d="M0,0H20.748V225.634H0Z" transform="translate(-10567.572 -7845.316)" fill="#090"/>
    <path id="Trazado_618000" data-name="Trazado 618000" d="M169.981,327.615l-20.748-19.51V287.325h20.748Z" transform="translate(-10746.07 -8132.642)" fill="#090"/>
    <path id="Trazado_618001" data-name="Trazado 618001" d="M149.233,481.447l20.748,19.51v16.879H149.233Z" transform="translate(-10746.07 -8137.519)" fill="#090"/>
    <path id="Trazado_618002" data-name="Trazado 618002" d="M169.981,393.38l-20.748-19.51V342.359l20.748,19.51Z" transform="translate(-10746.07 -8134.024)" fill="#090"/>
    <path id="Trazado_618003" data-name="Trazado 618003" d="M169.981,466.25l-20.748-19.51V408.4l20.748,19.51Z" transform="translate(-10746.07 -8135.683)" fill="#090"/>
    <path id="Trazado_618004" data-name="Trazado 618004" d="M230.019,327.615l-20.748-19.51V287.325h20.748Z" transform="translate(-10747.578 -8132.642)" fill="#f60"/>
    <path id="Trazado_618005" data-name="Trazado 618005" d="M209.271,481.447l20.748,19.51v16.879H209.271Z" transform="translate(-10747.578 -8137.519)" fill="#f60"/>
    <path id="Trazado_618006" data-name="Trazado 618006" d="M230.019,393.38l-20.748-19.51V342.359l20.748,19.51Z" transform="translate(-10747.578 -8134.024)" fill="#f60"/>
    <path id="Trazado_618007" data-name="Trazado 618007" d="M230.019,466.25l-20.748-19.51V408.4l20.748,19.51Z" transform="translate(-10747.578 -8135.683)" fill="#f60"/>
    <path id="Trazado_618008" data-name="Trazado 618008" d="M290.056,327.615l-20.748-19.51V287.325h20.748Z" transform="translate(-10749.086 -8132.642)" fill="#0b5999"/>
    <path id="Trazado_618009" data-name="Trazado 618009" d="M269.308,481.447l20.748,19.51v16.879H269.308Z" transform="translate(-10749.086 -8137.519)" fill="#0b5999"/>
    <path id="Trazado_618010" data-name="Trazado 618010" d="M290.056,393.38l-20.748-19.51V342.359l20.748,19.51Z" transform="translate(-10749.086 -8134.024)" fill="#0b5999"/>
    <path id="Trazado_618011" data-name="Trazado 618011" d="M290.056,466.25l-20.748-19.51V408.4l20.748,19.51Z" transform="translate(-10749.086 -8135.683)" fill="#0b5999"/>
    <path id="Trazado_618012" data-name="Trazado 618012" d="M343.09,327.615l-20.748-19.51V287.325H343.09Z" transform="translate(-10750.419 -8132.642)" fill="#83572c"/>
    <path id="Trazado_618013" data-name="Trazado 618013" d="M322.342,481.447l20.748,19.51v16.879H322.342Z" transform="translate(-10750.419 -8137.519)" fill="#83572c"/>
    <path id="Trazado_618014" data-name="Trazado 618014" d="M343.09,393.38l-20.748-19.51V342.359l20.748,19.51Z" transform="translate(-10750.419 -8134.024)" fill="#83572c"/>
    <path id="Trazado_618015" data-name="Trazado 618015" d="M343.09,466.25l-20.748-19.51V408.4l20.748,19.51Z" transform="translate(-10750.419 -8135.683)" fill="#83572c"/>
    <path id="Trazado_622273" data-name="Trazado 622273" d="M0,0H20.748V225.634H0Z" transform="translate(-10510.019 -7845.316)" fill="#0b5999"/>
    <path id="Trazado_622274" data-name="Trazado 622274" d="M0,0H20.748V225.634H0Z" transform="translate(-10453.439 -7845.316)" fill="#f60"/>
    <path id="Trazado_622275" data-name="Trazado 622275" d="M0,0H20.748V225.634H0Z" transform="translate(-10397.837 -7845.316)" fill="#83572c"/>
    <path id="Trazado_622276" data-name="Trazado 622276" d="M0,0H242.491V28.437H0Z" transform="translate(-10608.746 -7767.13)" fill="none" stroke="#1d1d1b" stroke-width="2.758"/>
    <path id="Trazado_622277" data-name="Trazado 622277" d="M0,0H242.491V60.333H0Z" transform="translate(-10608.746 -7715.429)" fill="none" stroke="#1d1d1b" stroke-width="4.017"/>
    <path id="Trazado_622278" data-name="Trazado 622278" d="M0,0H289.678V382.7H0Z" transform="translate(-10633 -7854.451)" fill="none" stroke="#1d1d1b" stroke-width="2.758"/>
    <path id="Trazado_622279" data-name="Trazado 622279" d="M0,0H127.747V13.546H0Z" transform="translate(-10555.936 -7867.997)" fill="none" stroke="#1d1d1b" stroke-width="2.758"/>
    <path id="Trazado_622280" data-name="Trazado 622280" d="M0,0H197.007V22.126H0Z" transform="translate(-10583.25 -7570.473)" fill="none" stroke="#1d1d1b" stroke-width="2.758"/>
    <path id="Trazado_618016" data-name="Trazado 618016" d="M369.68,520.221H153.164l32.654,49.107,16.9,96.943-3.994,181.892,22.723,16.193H301.4l22.91-17.134-4.24-180.344,16.873-97.114Z" transform="translate(-10746.168 -8138.493)" fill="none" stroke="#1d1d1b" stroke-miterlimit="10" stroke-width="2.758"/>
    <path id="Trazado_618017" data-name="Trazado 618017" d="M374.9,529.227h-237l-9.755,28.954H384.659Z" transform="translate(-10745.54 -8138.719)" fill="#9d9d9c"/>
    <path id="Trazado_622281" data-name="Trazado 622281" d="M0,0H197.007V17.869H0Z" transform="translate(-10583.25 -7548.347)" fill="none" stroke="#1d1d1b" stroke-width="2.758"/>
    <path id="Trazado_622282" data-name="Trazado 622282" d="M0,0H197.007V16.273H0Z" transform="translate(-10583.25 -7530.478)" fill="none" stroke="#1d1d1b" stroke-width="2.758"/>
    <path id="Trazado_622283" data-name="Trazado 622283" d="M0,0H20.748V225.634H0Z" transform="translate(-10166.641 -7845.316)" fill="#f60"/>
    <path id="Trazado_618018" data-name="Trazado 618018" d="M540.214,327.615l-20.748-19.51V287.325h20.748Z" transform="translate(-10715.371 -8132.642)" fill="#f60"/>
    <path id="Trazado_618019" data-name="Trazado 618019" d="M519.466,481.447l20.748,19.51v16.879H519.466Z" transform="translate(-10715.371 -8137.519)" fill="#f60"/>
    <path id="Trazado_618020" data-name="Trazado 618020" d="M540.214,393.38l-20.748-19.51V342.359l20.748,19.51Z" transform="translate(-10715.371 -8134.024)" fill="#f60"/>
    <path id="Trazado_618021" data-name="Trazado 618021" d="M540.214,466.25l-20.748-19.51V408.4l20.748,19.51Z" transform="translate(-10715.371 -8135.683)" fill="#f60"/>
    <path id="Trazado_618022" data-name="Trazado 618022" d="M600.252,327.615,579.5,308.105V287.325h20.748Z" transform="translate(-10716.88 -8132.642)" fill="#090"/>
    <path id="Trazado_618023" data-name="Trazado 618023" d="M579.5,481.447l20.748,19.51v16.879H579.5Z" transform="translate(-10716.88 -8137.519)" fill="#090"/>
    <path id="Trazado_618024" data-name="Trazado 618024" d="M600.252,393.38,579.5,373.87V342.359l20.748,19.51Z" transform="translate(-10716.88 -8134.024)" fill="#090"/>
    <path id="Trazado_618025" data-name="Trazado 618025" d="M600.252,466.25,579.5,446.74V408.4l20.748,19.51Z" transform="translate(-10716.88 -8135.683)" fill="#090"/>
    <path id="Trazado_618026" data-name="Trazado 618026" d="M660.289,327.615l-20.748-19.51V287.325h20.748Z" transform="translate(-10718.389 -8132.642)" fill="#0b5999"/>
    <path id="Trazado_618027" data-name="Trazado 618027" d="M639.541,481.447l20.748,19.51v16.879H639.541Z" transform="translate(-10718.389 -8137.519)" fill="#0b5999"/>
    <path id="Trazado_618028" data-name="Trazado 618028" d="M660.289,393.38l-20.748-19.51V342.359l20.748,19.51Z" transform="translate(-10718.389 -8134.024)" fill="#0b5999"/>
    <path id="Trazado_618029" data-name="Trazado 618029" d="M660.289,466.25l-20.748-19.51V408.4l20.748,19.51Z" transform="translate(-10718.389 -8135.683)" fill="#0b5999"/>
    <path id="Trazado_618030" data-name="Trazado 618030" d="M713.323,327.615l-20.748-19.51V287.325h20.748Z" transform="translate(-10719.721 -8132.642)" fill="#83572c"/>
    <path id="Trazado_618031" data-name="Trazado 618031" d="M692.575,481.447l20.748,19.51v16.879H692.575Z" transform="translate(-10719.721 -8137.519)" fill="#83572c"/>
    <path id="Trazado_618032" data-name="Trazado 618032" d="M713.323,393.38l-20.748-19.51V342.359l20.748,19.51Z" transform="translate(-10719.721 -8134.024)" fill="#83572c"/>
    <path id="Trazado_618033" data-name="Trazado 618033" d="M713.323,466.25l-20.748-19.51V408.4l20.748,19.51Z" transform="translate(-10719.721 -8135.683)" fill="#83572c"/>
    <path id="Trazado_622284" data-name="Trazado 622284" d="M0,0H20.748V225.634H0Z" transform="translate(-10109.087 -7845.316)" fill="#0b5999"/>
    <path id="Trazado_622285" data-name="Trazado 622285" d="M0,0H20.748V225.634H0Z" transform="translate(-10052.509 -7845.316)" fill="#090"/>
    <path id="Trazado_622286" data-name="Trazado 622286" d="M0,0H20.748V225.634H0Z" transform="translate(-9996.906 -7845.316)" fill="#83572c"/>
    <path id="Trazado_622287" data-name="Trazado 622287" d="M0,0H242.491V28.437H0Z" transform="translate(-10207.815 -7767.13)" fill="none" stroke="#1d1d1b" stroke-width="2.758"/>
    <path id="Trazado_622288" data-name="Trazado 622288" d="M0,0H242.491V60.333H0Z" transform="translate(-10207.815 -7715.429)" fill="none" stroke="#1d1d1b" stroke-width="4.017"/>
    <path id="Trazado_622289" data-name="Trazado 622289" d="M0,0H289.678V382.7H0Z" transform="translate(-10232.068 -7854.451)" fill="none" stroke="#1d1d1b" stroke-width="2.758"/>
    <path id="Trazado_622290" data-name="Trazado 622290" d="M0,0H127.747V13.546H0Z" transform="translate(-10155.005 -7867.997)" fill="none" stroke="#1d1d1b" stroke-width="2.758"/>
    <path id="Trazado_622291" data-name="Trazado 622291" d="M0,0H197.007V22.126H0Z" transform="translate(-10182.318 -7570.473)" fill="none" stroke="#1d1d1b" stroke-width="2.758"/>
    <path id="Trazado_618034" data-name="Trazado 618034" d="M739.913,520.221H523.4l32.654,49.107,16.9,96.943-3.994,181.892,22.723,16.193h79.948l22.91-17.134L690.3,666.878l16.873-97.114Z" transform="translate(-10715.471 -8138.493)" fill="none" stroke="#1d1d1b" stroke-miterlimit="10" stroke-width="2.758"/>
    <path id="Trazado_618035" data-name="Trazado 618035" d="M745.138,529.227h-237l-9.755,28.954H754.892Z" transform="translate(-10714.842 -8138.719)" fill="#9d9d9c"/>
    <path id="Trazado_622292" data-name="Trazado 622292" d="M0,0H197.007V17.869H0Z" transform="translate(-10182.318 -7548.347)" fill="none" stroke="#1d1d1b" stroke-width="2.758"/>
    <path id="Trazado_622293" data-name="Trazado 622293" d="M0,0H197.007V16.273H0Z" transform="translate(-10182.318 -7530.478)" fill="none" stroke="#1d1d1b" stroke-width="2.758"/>
  </g>
</svg>
