<svg xmlns="http://www.w3.org/2000/svg" xmlns:xlink="http://www.w3.org/1999/xlink" width="417" height="306" viewBox="0 0 417 306">
  <defs>
    <filter id="Trazado_622249" x="0" y="0" width="417" height="306" filterUnits="userSpaceOnUse">
      <feOffset dy="3" input="SourceAlpha"/>
      <feGaussianBlur stdDeviation="3" result="blur"/>
      <feFlood flood-opacity="0.161"/>
      <feComposite operator="in" in2="blur"/>
      <feComposite in="SourceGraphic"/>
    </filter>
  </defs>
  <g id="Grupo_894042" data-name="Grupo 894042" transform="translate(-285 -1077.413)">
    <g id="Grupo_894041" data-name="Grupo 894041">
      <g transform="matrix(1, 0, 0, 1, 285, 1077.41)" filter="url(#Trazado_622249)">
        <path id="Trazado_622249-2" data-name="Trazado 622249" d="M20,0H379a20,20,0,0,1,20,20V268a20,20,0,0,1-20,20H20A20,20,0,0,1,0,268V20A20,20,0,0,1,20,0Z" transform="translate(9 6)" fill="#fff"/>
      </g>
      <path id="Trazado_608132" data-name="Trazado 608132" d="M953.277,189.571a2.59,2.59,0,0,0,1.239.327c.6,0,.934-.281.934-.7,0-.387-.258-.615-.912-.851-.843-.3-1.383-.752-1.383-1.489,0-.836.7-1.474,1.809-1.474a2.709,2.709,0,0,1,1.231.258l-.228.752a2.172,2.172,0,0,0-1.018-.243c-.593,0-.852.319-.852.615,0,.4.3.578.98.844.889.335,1.322.783,1.322,1.52,0,.821-.623,1.535-1.945,1.535a3.045,3.045,0,0,1-1.383-.319Z" transform="translate(-367.003 955.673)" fill="#00498a"/>
      <path id="Trazado_608133" data-name="Trazado 608133" d="M970.97,188.535h-1.93v1.5H971.2v.768H968.1v-5.122h2.979v.767H969.04v1.322h1.93Z" transform="translate(-377.865 955.455)" fill="#00498a"/>
      <path id="Trazado_608134" data-name="Trazado 608134" d="M982.207,185.655a8.841,8.841,0,0,1,1.414-.107,2.372,2.372,0,0,1,1.581.411,1.3,1.3,0,0,1,.441,1.026,1.366,1.366,0,0,1-.927,1.284v.023a1.3,1.3,0,0,1,.714.988,10.3,10.3,0,0,0,.4,1.429h-.965a7.287,7.287,0,0,1-.342-1.208c-.144-.669-.387-.881-.919-.9h-.471v2.1h-.927Zm.927,2.264h.555c.631,0,1.026-.334,1.026-.843,0-.562-.4-.821-1-.821a2.692,2.692,0,0,0-.578.046Z" transform="translate(-388.055 955.554)" fill="#00498a"/>
      <path id="Trazado_608135" data-name="Trazado 608135" d="M997.8,190.807l-1.657-5.122h1.018l.7,2.325c.2.646.365,1.246.5,1.869h.015c.137-.608.319-1.231.524-1.854l.745-2.34h1l-1.771,5.122Z" transform="translate(-398.125 955.455)" fill="#00498a"/>
      <path id="Trazado_608136" data-name="Trazado 608136" d="M1017.219,188.535h-1.93v1.5h2.158v.768h-3.093v-5.122h2.979v.767h-2.044v1.322h1.93Z" transform="translate(-411.283 955.455)" fill="#00498a"/>
      <path id="Trazado_608137" data-name="Trazado 608137" d="M1028.457,185.655a8.838,8.838,0,0,1,1.413-.107,2.373,2.373,0,0,1,1.581.411,1.294,1.294,0,0,1,.441,1.026,1.366,1.366,0,0,1-.927,1.284v.023a1.3,1.3,0,0,1,.714.988,10.259,10.259,0,0,0,.4,1.429h-.965a7.218,7.218,0,0,1-.342-1.208c-.145-.669-.388-.881-.92-.9h-.471v2.1h-.927Zm.927,2.264h.555c.63,0,1.026-.334,1.026-.843,0-.562-.4-.821-1-.821a2.692,2.692,0,0,0-.577.046Z" transform="translate(-421.474 955.554)" fill="#00498a"/>
      <path id="Trazado_608138" data-name="Trazado 608138" d="M687.446,96.4H690.4v.768H688.38v1.414h1.884v.767H688.38v2.173h-.934Z" transform="translate(-175.072 1019.969)" fill="#00498a"/>
      <path id="Trazado_608139" data-name="Trazado 608139" d="M702.317,96.4v5.122h-.934V96.4Z" transform="translate(-185.143 1019.969)" fill="#00498a"/>
      <path id="Trazado_608140" data-name="Trazado 608140" d="M708.612,96.371a7.782,7.782,0,0,1,1.36-.107,2.43,2.43,0,0,1,1.467.327,1.081,1.081,0,0,1,.532.958,1.192,1.192,0,0,1-.851,1.109v.015a1.292,1.292,0,0,1,1.033,1.269,1.329,1.329,0,0,1-.494,1.056,2.847,2.847,0,0,1-1.9.479,9.088,9.088,0,0,1-1.147-.068Zm.927,2.021h.479c.646,0,1.011-.3,1.011-.737,0-.479-.365-.7-.957-.7a2.519,2.519,0,0,0-.532.038Zm0,2.356a4.121,4.121,0,0,0,.494.023c.6,0,1.133-.228,1.133-.859,0-.593-.517-.836-1.163-.836h-.463Z" transform="translate(-190.366 1020.067)" fill="#00498a"/>
      <path id="Trazado_608141" data-name="Trazado 608141" d="M727.248,99.25h-1.93v1.5h2.158v.767h-3.093V96.4h2.979v.768h-2.044V98.49h1.93Z" transform="translate(-201.762 1019.969)" fill="#00498a"/>
      <path id="Trazado_608142" data-name="Trazado 608142" d="M738.486,96.371a8.836,8.836,0,0,1,1.413-.107,2.374,2.374,0,0,1,1.581.41,1.3,1.3,0,0,1,.44,1.026,1.366,1.366,0,0,1-.927,1.284v.023a1.3,1.3,0,0,1,.714.988,10.242,10.242,0,0,0,.4,1.429h-.965a7.237,7.237,0,0,1-.342-1.208c-.144-.669-.388-.882-.919-.9h-.472v2.1h-.927Zm.927,2.264h.555c.631,0,1.026-.334,1.026-.843,0-.563-.4-.821-1-.821a2.692,2.692,0,0,0-.578.046Z" transform="translate(-211.951 1020.067)" fill="#00498a"/>
      <path id="Trazado_608143" data-name="Trazado 608143" d="M303.348,252.12,302.094,247h1l.486,2.326c.129.623.251,1.276.334,1.786h.015c.083-.54.228-1.147.372-1.793l.555-2.318h.98l.509,2.356c.129.608.236,1.178.312,1.733h.015c.091-.562.213-1.147.35-1.771L307.55,247h.95l-1.376,5.122h-1l-.532-2.409a14.624,14.624,0,0,1-.281-1.626h-.015c-.091.547-.19,1.041-.342,1.626l-.593,2.409Z" transform="translate(103.368 911.153)" fill="#00498a"/>
      <path id="Trazado_608144" data-name="Trazado 608144" d="M328.358,247v5.122h-.934V247Z" transform="translate(85.066 911.153)" fill="#00498a"/>
      <path id="Trazado_608145" data-name="Trazado 608145" d="M334.652,246.968a8.843,8.843,0,0,1,1.414-.107,2.373,2.373,0,0,1,1.581.411,1.3,1.3,0,0,1,.441,1.026,1.366,1.366,0,0,1-.927,1.284v.023a1.3,1.3,0,0,1,.714.988,10.238,10.238,0,0,0,.4,1.429h-.965a7.3,7.3,0,0,1-.342-1.208c-.144-.669-.387-.882-.919-.9h-.471v2.1h-.927Zm.927,2.264h.555c.631,0,1.026-.334,1.026-.843,0-.562-.4-.821-1-.821a2.693,2.693,0,0,0-.577.045Z" transform="translate(79.843 911.252)" fill="#00498a"/>
      <path id="Trazado_608146" data-name="Trazado 608146" d="M353.1,249.848h-1.93v1.5h2.158v.768h-3.093V247h2.979v.768h-2.044v1.322h1.93Z" transform="translate(68.584 911.153)" fill="#00498a"/>
      <path id="Trazado_608147" data-name="Trazado 608147" d="M364.335,247h.935v4.339h2.1v.783h-3.04Z" transform="translate(58.396 911.153)" fill="#00498a"/>
      <path id="Trazado_608148" data-name="Trazado 608148" d="M380.7,249.848h-1.93v1.5h2.158v.768h-3.093V247h2.979v.768h-2.044v1.322h1.93Z" transform="translate(48.641 911.153)" fill="#00498a"/>
      <path id="Trazado_608149" data-name="Trazado 608149" d="M391.32,250.884a2.587,2.587,0,0,0,1.238.327c.6,0,.935-.281.935-.7,0-.387-.258-.615-.912-.851-.844-.3-1.383-.752-1.383-1.489,0-.836.7-1.474,1.809-1.474a2.708,2.708,0,0,1,1.231.258l-.228.752a2.17,2.17,0,0,0-1.018-.243c-.593,0-.851.319-.851.615,0,.4.3.578.98.844.889.334,1.322.782,1.322,1.52,0,.821-.623,1.535-1.945,1.535a3.045,3.045,0,0,1-1.383-.319Z" transform="translate(39.045 911.37)" fill="#00498a"/>
      <path id="Trazado_608150" data-name="Trazado 608150" d="M405.531,250.884a2.587,2.587,0,0,0,1.238.327c.6,0,.935-.281.935-.7,0-.387-.259-.615-.912-.851-.843-.3-1.383-.752-1.383-1.489,0-.836.7-1.474,1.809-1.474a2.707,2.707,0,0,1,1.231.258l-.228.752a2.168,2.168,0,0,0-1.018-.243c-.593,0-.851.319-.851.615,0,.4.3.578.98.844.889.334,1.322.782,1.322,1.52,0,.821-.623,1.535-1.945,1.535a3.046,3.046,0,0,1-1.383-.319Z" transform="translate(28.777 911.37)" fill="#00498a"/>
      <path id="Trazado_608151" data-name="Trazado 608151" d="M324.72,21.622h2.956v.767h-2.021V23.8h1.885v.767h-1.885v2.173h-.935Z" transform="translate(87.02 1074.001)" fill="#00498a"/>
      <path id="Trazado_608152" data-name="Trazado 608152" d="M339.593,21.622v5.122h-.935V21.622Z" transform="translate(76.949 1074.001)" fill="#00498a"/>
      <path id="Trazado_608153" data-name="Trazado 608153" d="M345.887,21.592a8.84,8.84,0,0,1,1.413-.107,2.373,2.373,0,0,1,1.581.41,1.3,1.3,0,0,1,.441,1.026,1.366,1.366,0,0,1-.927,1.284v.023a1.3,1.3,0,0,1,.714.988,10.244,10.244,0,0,0,.4,1.429h-.965a7.253,7.253,0,0,1-.342-1.208c-.144-.669-.388-.882-.919-.9h-.471v2.1h-.927Zm.927,2.264h.555c.631,0,1.026-.334,1.026-.843,0-.563-.4-.821-1-.821a2.7,2.7,0,0,0-.578.046Z" transform="translate(71.726 1074.1)" fill="#00498a"/>
      <path id="Trazado_608154" data-name="Trazado 608154" d="M364.332,24.472H362.4v1.5h2.158v.768h-3.093V21.622h2.979v.767H362.4v1.322h1.93Z" transform="translate(60.468 1074.001)" fill="#00498a"/>
      <path id="Trazado_608155" data-name="Trazado 608155" d="M375.508,26.744l-1.254-5.122h1l.486,2.325c.129.623.251,1.277.334,1.786h.015c.083-.54.228-1.147.372-1.793l.555-2.318h.98l.509,2.356c.129.608.236,1.178.312,1.733h.015c.091-.562.213-1.147.35-1.771l.532-2.318h.95l-1.376,5.122h-1l-.532-2.409a14.551,14.551,0,0,1-.281-1.626h-.015c-.091.547-.19,1.041-.342,1.626l-.593,2.409Z" transform="translate(51.229 1074.001)" fill="#00498a"/>
      <path id="Trazado_608156" data-name="Trazado 608156" d="M398.114,25.292l-.441,1.452h-.965l1.641-5.122h1.193l1.664,5.122h-1l-.464-1.452Zm1.466-.707-.4-1.262c-.1-.312-.182-.661-.258-.957H398.9c-.076.3-.152.654-.243.957l-.4,1.262Z" transform="translate(35.004 1074.001)" fill="#00498a"/>
      <path id="Trazado_608157" data-name="Trazado 608157" d="M415.492,21.622h.935v4.339h2.1v.783h-3.04Z" transform="translate(21.432 1074.001)" fill="#00498a"/>
      <path id="Trazado_608158" data-name="Trazado 608158" d="M428.992,21.622h.935v4.339h2.1v.783h-3.039Z" transform="translate(11.677 1074.001)" fill="#00498a"/>
      <path id="Trazado_608159" data-name="Trazado 608159" d="M84.055,111.915v5.122H83.12v-5.122Z" transform="translate(261.591 1008.759)" fill="#00498a"/>
      <path id="Trazado_608160" data-name="Trazado 608160" d="M90.349,117.037v-5.122h1.064l1.322,2.2a14.068,14.068,0,0,1,.874,1.717h.015c-.061-.684-.084-1.345-.084-2.128v-1.786h.866v5.122h-.965L92.1,114.787a17.733,17.733,0,0,1-.919-1.771l-.023.008c.038.661.045,1.337.045,2.181v1.831Z" transform="translate(256.368 1008.759)" fill="#00498a"/>
      <path id="Trazado_608161" data-name="Trazado 608161" d="M108.593,112.7h-1.459v-.783H111v.783h-1.474v4.339h-.935Z" transform="translate(244.239 1008.759)" fill="#00498a"/>
      <path id="Trazado_608162" data-name="Trazado 608162" d="M126.1,114.765h-1.93v1.5h2.158v.768h-3.093v-5.122h2.979v.767H124.17V114h1.93Z" transform="translate(232.604 1008.759)" fill="#00498a"/>
      <path id="Trazado_608163" data-name="Trazado 608163" d="M137.338,111.885a8.837,8.837,0,0,1,1.413-.107,2.373,2.373,0,0,1,1.581.41,1.3,1.3,0,0,1,.441,1.026,1.366,1.366,0,0,1-.927,1.284v.023a1.3,1.3,0,0,1,.714.988,10.243,10.243,0,0,0,.4,1.429H140a7.255,7.255,0,0,1-.342-1.208c-.144-.669-.388-.882-.919-.9h-.471v2.1h-.927Zm.927,2.264h.555c.631,0,1.026-.334,1.026-.843,0-.563-.4-.821-1-.821a2.7,2.7,0,0,0-.578.045Z" transform="translate(222.415 1008.857)" fill="#00498a"/>
      <path id="Trazado_608164" data-name="Trazado 608164" d="M152.918,117.037v-5.122h1.064l1.322,2.2a14.029,14.029,0,0,1,.874,1.717h.015c-.061-.684-.084-1.345-.084-2.128v-1.786h.866v5.122h-.965l-1.338-2.249a17.8,17.8,0,0,1-.919-1.771l-.023.008c.038.661.046,1.337.046,2.181v1.831Z" transform="translate(211.158 1008.759)" fill="#00498a"/>
      <path id="Trazado_608165" data-name="Trazado 608165" d="M174.294,114.765h-1.93v1.5h2.158v.768h-3.093v-5.122h2.979v.767h-2.044V114h1.93Z" transform="translate(197.782 1008.759)" fill="#00498a"/>
      <path id="Trazado_608166" data-name="Trazado 608166" d="M185.538,112.7h-1.459v-.783h3.868v.783h-1.474v4.339h-.934Z" transform="translate(188.642 1008.759)" fill="#00498a"/>
      <path id="Trazado_608167" data-name="Trazado 608167" d="M637.925,157.326a8.841,8.841,0,0,1,1.414-.107,2.373,2.373,0,0,1,1.581.411,1.3,1.3,0,0,1,.441,1.026,1.366,1.366,0,0,1-.927,1.284v.023a1.3,1.3,0,0,1,.714.988,10.245,10.245,0,0,0,.4,1.429h-.965a7.26,7.26,0,0,1-.342-1.208c-.145-.669-.388-.881-.919-.9h-.471v2.1h-.927Zm.927,2.264h.555c.631,0,1.026-.334,1.026-.843,0-.562-.4-.821-1-.821a2.7,2.7,0,0,0-.578.046Z" transform="translate(-139.29 976.023)" fill="#00498a"/>
      <path id="Trazado_608168" data-name="Trazado 608168" d="M657.357,159.646a2.422,2.422,0,0,1-2.455,2.7,2.367,2.367,0,0,1-2.355-2.607,2.451,2.451,0,0,1,2.432-2.682A2.365,2.365,0,0,1,657.357,159.646Zm-3.822.076c0,1.041.524,1.87,1.421,1.87s1.414-.836,1.414-1.907c0-.965-.479-1.877-1.414-1.877S653.535,158.666,653.535,159.722Z" transform="translate(-149.855 976.143)" fill="#00498a"/>
      <path id="Trazado_608169" data-name="Trazado 608169" d="M673.69,157.356v2.987c0,1,.418,1.467,1.049,1.467.676,0,1.079-.464,1.079-1.467v-2.987h.935v2.926c0,1.581-.813,2.28-2.044,2.28-1.185,0-1.953-.661-1.953-2.272v-2.933Z" transform="translate(-164.458 975.925)" fill="#00498a"/>
      <path id="Trazado_608170" data-name="Trazado 608170" d="M690.752,158.139h-1.459v-.783h3.868v.783h-1.474v4.339h-.934Z" transform="translate(-176.407 975.925)" fill="#00498a"/>
      <path id="Trazado_608171" data-name="Trazado 608171" d="M708.26,160.206h-1.93v1.5h2.158v.768H705.4v-5.122h2.979v.768H706.33v1.322h1.93Z" transform="translate(-188.041 975.925)" fill="#00498a"/>
      <path id="Trazado_608172" data-name="Trazado 608172" d="M719.5,157.326a8.843,8.843,0,0,1,1.414-.107,2.373,2.373,0,0,1,1.581.411,1.3,1.3,0,0,1,.441,1.026A1.366,1.366,0,0,1,722,159.94v.023a1.3,1.3,0,0,1,.714.988,10.219,10.219,0,0,0,.4,1.429h-.965a7.26,7.26,0,0,1-.342-1.208c-.145-.669-.388-.881-.919-.9h-.471v2.1H719.5Zm.927,2.264h.555c.631,0,1.026-.334,1.026-.843,0-.562-.395-.821-1-.821a2.7,2.7,0,0,0-.578.046Z" transform="translate(-198.231 976.023)" fill="#00498a"/>
      <path id="Trazado_608173" data-name="Trazado 608173" d="M65.52,237.046h.935v4.339h2.1v.783H65.52Z" transform="translate(274.308 917.344)" fill="#00498a"/>
      <path id="Trazado_608174" data-name="Trazado 608174" d="M79.166,240.717l-.441,1.451H77.76l1.641-5.122h1.193l1.664,5.122h-1l-.463-1.451Zm1.467-.707-.4-1.262c-.1-.312-.182-.661-.258-.957h-.015c-.076.3-.152.654-.243.957l-.4,1.262Z" transform="translate(265.463 917.344)" fill="#00498a"/>
      <path id="Trazado_608175" data-name="Trazado 608175" d="M96.545,237.017a8.072,8.072,0,0,1,1.428-.107,2.316,2.316,0,0,1,1.512.418,1.446,1.446,0,0,1,.5,1.132,1.551,1.551,0,0,1-.441,1.162,2.26,2.26,0,0,1-1.619.547,2.637,2.637,0,0,1-.456-.031v1.93h-.927Zm.927,2.386a1.88,1.88,0,0,0,.456.038c.7,0,1.125-.342,1.125-.942,0-.57-.4-.874-1.041-.874a2.586,2.586,0,0,0-.54.046Z" transform="translate(251.89 917.442)" fill="#00498a"/>
      <path id="Trazado_608176" data-name="Trazado 608176" d="M111.585,237.829h-1.459v-.783h3.867v.783h-1.474v4.339h-.934Z" transform="translate(242.077 917.344)" fill="#00498a"/>
      <path id="Trazado_608177" data-name="Trazado 608177" d="M129.312,239.337a2.422,2.422,0,0,1-2.455,2.7,2.367,2.367,0,0,1-2.355-2.607,2.451,2.451,0,0,1,2.432-2.682A2.365,2.365,0,0,1,129.312,239.337Zm-3.823.076c0,1.041.524,1.869,1.421,1.869s1.413-.836,1.413-1.907c0-.965-.479-1.877-1.413-1.877S125.49,238.357,125.49,239.413Z" transform="translate(231.689 917.561)" fill="#00498a"/>
      <path id="Trazado_608178" data-name="Trazado 608178" d="M144.738,237.017a8.073,8.073,0,0,1,1.429-.107,2.317,2.317,0,0,1,1.512.418,1.446,1.446,0,0,1,.5,1.132,1.551,1.551,0,0,1-.441,1.162,2.26,2.26,0,0,1-1.619.547,2.643,2.643,0,0,1-.456-.031v1.93h-.927Zm.927,2.386a1.881,1.881,0,0,0,.456.038c.7,0,1.124-.342,1.124-.942,0-.57-.4-.874-1.041-.874a2.588,2.588,0,0,0-.54.046Z" transform="translate(217.068 917.442)" fill="#00498a"/>
      <path id="Trazado_608179" data-name="Trazado 608179" d="M399.431,578.211l-.441,1.451h-.965l1.641-5.122h1.193l1.664,5.122h-1l-.463-1.451Zm1.467-.707-.4-1.262c-.1-.312-.182-.661-.258-.957h-.015c-.076.3-.152.653-.243.957l-.4,1.262Z" transform="translate(34.053 674.483)" fill="#00498a"/>
      <path id="Trazado_608180" data-name="Trazado 608180" d="M416.809,574.51a8.081,8.081,0,0,1,1.429-.107,2.318,2.318,0,0,1,1.512.418,1.447,1.447,0,0,1,.5,1.132,1.554,1.554,0,0,1-.441,1.163,2.261,2.261,0,0,1-1.619.547,2.643,2.643,0,0,1-.456-.03v1.93h-.927Zm.927,2.386a1.892,1.892,0,0,0,.456.038c.7,0,1.125-.342,1.125-.942,0-.57-.4-.874-1.041-.874a2.561,2.561,0,0,0-.539.046Z" transform="translate(20.48 674.582)" fill="#00498a"/>
      <path id="Trazado_608181" data-name="Trazado 608181" d="M584.14,725.966v2.052h2.166v-2.052h.934v5.122h-.934v-2.257H584.14v2.257h-.934v-5.122Z" transform="translate(-99.752 565.069)" fill="#00498a"/>
      <path id="Trazado_608182" data-name="Trazado 608182" d="M602.514,725.966v2.986c0,1,.418,1.467,1.048,1.467.676,0,1.079-.464,1.079-1.467v-2.986h.935v2.926c0,1.581-.813,2.28-2.044,2.28-1.185,0-1.953-.661-1.953-2.272v-2.933Z" transform="translate(-113.027 565.069)" fill="#00498a"/>
      <path id="Trazado_608183" data-name="Trazado 608183" d="M619.843,725.936a7.783,7.783,0,0,1,1.36-.107,2.429,2.429,0,0,1,1.467.327,1.08,1.08,0,0,1,.532.957,1.191,1.191,0,0,1-.851,1.109v.015a1.291,1.291,0,0,1,1.033,1.269,1.329,1.329,0,0,1-.494,1.056,2.847,2.847,0,0,1-1.9.479,9.1,9.1,0,0,1-1.147-.068Zm.927,2.021h.479c.646,0,1.011-.3,1.011-.737,0-.479-.365-.7-.958-.7a2.536,2.536,0,0,0-.532.038Zm0,2.356a4.108,4.108,0,0,0,.494.023c.6,0,1.132-.228,1.132-.858,0-.593-.517-.836-1.163-.836h-.464Z" transform="translate(-126.225 565.168)" fill="#00498a"/>
      <path id="Trazado_608184" data-name="Trazado 608184" d="M805.59,656.041l-1.254-5.122h1l.486,2.326c.129.623.251,1.276.334,1.786h.015c.083-.54.228-1.147.372-1.793l.555-2.318h.98l.509,2.356c.129.608.236,1.178.312,1.733h.015c.091-.562.213-1.147.349-1.771l.532-2.318h.95l-1.375,5.122h-1l-.532-2.409a14.589,14.589,0,0,1-.281-1.626h-.015c-.091.547-.19,1.041-.342,1.626l-.593,2.409Z" transform="translate(-259.532 619.295)" fill="#00498a"/>
      <path id="Trazado_608185" data-name="Trazado 608185" d="M833.38,653.209a2.422,2.422,0,0,1-2.455,2.7,2.367,2.367,0,0,1-2.355-2.607A2.451,2.451,0,0,1,831,650.618,2.365,2.365,0,0,1,833.38,653.209Zm-3.823.076c0,1.041.525,1.87,1.421,1.87s1.413-.836,1.413-1.907c0-.965-.479-1.877-1.413-1.877S829.558,652.229,829.558,653.285Z" transform="translate(-277.043 619.513)" fill="#00498a"/>
      <path id="Trazado_608186" data-name="Trazado 608186" d="M848.806,650.889a8.833,8.833,0,0,1,1.413-.107,2.372,2.372,0,0,1,1.581.411,1.3,1.3,0,0,1,.441,1.026,1.366,1.366,0,0,1-.927,1.284v.023a1.3,1.3,0,0,1,.714.988,10.2,10.2,0,0,0,.4,1.429h-.965a7.27,7.27,0,0,1-.342-1.208c-.145-.669-.388-.881-.92-.9h-.471v2.1h-.927Zm.927,2.264h.555c.631,0,1.026-.334,1.026-.843,0-.562-.4-.821-1-.821a2.69,2.69,0,0,0-.577.046Z" transform="translate(-291.665 619.395)" fill="#00498a"/>
      <path id="Trazado_608187" data-name="Trazado 608187" d="M864.386,650.919h.927v2.356h.023c.121-.2.251-.38.372-.555l1.337-1.8H868.2l-1.763,2.181,1.877,2.941h-1.094l-1.452-2.348-.456.547v1.8h-.927Z" transform="translate(-302.922 619.295)" fill="#00498a"/>
      <path id="Trazado_608188" data-name="Trazado 608188" d="M879.707,654.805a2.589,2.589,0,0,0,1.239.327c.6,0,.935-.281.935-.7,0-.387-.259-.615-.912-.851-.843-.3-1.383-.752-1.383-1.489,0-.836.7-1.474,1.809-1.474a2.708,2.708,0,0,1,1.231.258l-.228.752a2.171,2.171,0,0,0-1.018-.243c-.593,0-.851.319-.851.615,0,.4.3.578.98.844.889.334,1.322.782,1.322,1.519,0,.821-.623,1.535-1.945,1.535a3.042,3.042,0,0,1-1.383-.319Z" transform="translate(-313.845 619.513)" fill="#00498a"/>
      <path id="Trazado_608189" data-name="Trazado 608189" d="M894.267,651.7h-1.459v-.783h3.868v.783H895.2v4.339h-.934Z" transform="translate(-323.459 619.295)" fill="#00498a"/>
      <path id="Trazado_608190" data-name="Trazado 608190" d="M906.947,654.589l-.441,1.452h-.965l1.641-5.122h1.193l1.664,5.122h-1l-.464-1.452Zm1.467-.706-.4-1.262c-.1-.312-.183-.661-.259-.958h-.015c-.076.3-.152.654-.243.958l-.4,1.262Z" transform="translate(-332.659 619.295)" fill="#00498a"/>
      <path id="Trazado_608191" data-name="Trazado 608191" d="M921.841,651.7h-1.459v-.783h3.868v.783h-1.475v4.339h-.934Z" transform="translate(-343.383 619.295)" fill="#00498a"/>
      <path id="Trazado_608192" data-name="Trazado 608192" d="M937.419,650.919v5.122h-.935v-5.122Z" transform="translate(-355.018 619.295)" fill="#00498a"/>
      <path id="Trazado_608193" data-name="Trazado 608193" d="M947.564,653.209a2.421,2.421,0,0,1-2.454,2.7,2.367,2.367,0,0,1-2.356-2.607,2.452,2.452,0,0,1,2.432-2.682A2.365,2.365,0,0,1,947.564,653.209Zm-3.822.076c0,1.041.524,1.87,1.421,1.87s1.413-.836,1.413-1.907c0-.965-.479-1.877-1.413-1.877S943.742,652.229,943.742,653.285Z" transform="translate(-359.548 619.513)" fill="#00498a"/>
      <path id="Trazado_608194" data-name="Trazado 608194" d="M962.99,656.041v-5.122h1.064l1.322,2.2a14.042,14.042,0,0,1,.874,1.717h.015c-.061-.684-.083-1.345-.083-2.128v-1.786h.866v5.122h-.965l-1.338-2.25a17.7,17.7,0,0,1-.919-1.77l-.023.008c.038.661.045,1.337.045,2.181v1.831Z" transform="translate(-374.17 619.295)" fill="#00498a"/>
      <path id="Trazado_608195" data-name="Trazado 608195" d="M827.8,313.351a2.588,2.588,0,0,0,1.239.327c.6,0,.935-.281.935-.7,0-.388-.259-.615-.912-.851-.844-.3-1.383-.752-1.383-1.489,0-.836.7-1.474,1.809-1.474a2.708,2.708,0,0,1,1.231.258l-.228.752a2.171,2.171,0,0,0-1.018-.243c-.593,0-.851.319-.851.615,0,.4.3.578.98.844.889.334,1.322.782,1.322,1.52,0,.82-.623,1.535-1.945,1.535a3.041,3.041,0,0,1-1.383-.319Z" transform="translate(-276.336 866.234)" fill="#00498a"/>
      <path id="Trazado_608196" data-name="Trazado 608196" d="M842.345,314.586l-1.254-5.122h1l.486,2.326c.129.623.251,1.277.334,1.786h.015c.083-.54.228-1.147.372-1.793l.555-2.318h.98l.509,2.356c.129.608.236,1.178.312,1.733h.015c.091-.563.213-1.148.349-1.771l.532-2.318h.95l-1.376,5.122h-1l-.532-2.409a14.619,14.619,0,0,1-.281-1.626h-.015c-.091.547-.19,1.041-.342,1.626l-.593,2.409Z" transform="translate(-286.09 866.018)" fill="#00498a"/>
      <path id="Trazado_608197" data-name="Trazado 608197" d="M867.356,309.464v5.122h-.934v-5.122Z" transform="translate(-304.394 866.018)" fill="#00498a"/>
      <path id="Trazado_608198" data-name="Trazado 608198" d="M873.383,310.247h-1.459v-.783h3.868v.783h-1.474v4.339h-.935Z" transform="translate(-308.369 866.018)" fill="#00498a"/>
      <path id="Trazado_608199" data-name="Trazado 608199" d="M890.237,314.217a3.232,3.232,0,0,1-1.322.228,2.417,2.417,0,0,1-2.614-2.576,2.576,2.576,0,0,1,2.736-2.705,2.943,2.943,0,0,1,1.246.228l-.2.745a2.492,2.492,0,0,0-1-.2,1.706,1.706,0,0,0-1.793,1.884,1.682,1.682,0,0,0,1.786,1.847,2.621,2.621,0,0,0,1.018-.19Z" transform="translate(-318.756 866.234)" fill="#00498a"/>
      <path id="Trazado_608200" data-name="Trazado 608200" d="M904.3,309.464v2.052h2.166v-2.052h.934v5.122h-.934v-2.257H904.3v2.257h-.934v-5.122Z" transform="translate(-331.084 866.018)" fill="#00498a"/>
      <path id="Trazado_608201" data-name="Trazado 608201" d="M1090.862,252.609a7.821,7.821,0,0,1,1.381-.1,2.241,2.241,0,0,1,1.462.4,1.4,1.4,0,0,1,.485,1.094,1.5,1.5,0,0,1-.426,1.124,2.186,2.186,0,0,1-1.565.529,2.534,2.534,0,0,1-.441-.029v1.866h-.9Zm.9,2.306a1.839,1.839,0,0,0,.441.037c.676,0,1.087-.331,1.087-.911,0-.551-.382-.845-1.006-.845a2.513,2.513,0,0,0-.522.044Z" transform="translate(-466.564 907.173)" fill="#00498a"/>
      <path id="Trazado_608202" data-name="Trazado 608202" d="M1105.661,252.609a8.563,8.563,0,0,1,1.366-.1,2.3,2.3,0,0,1,1.528.4,1.253,1.253,0,0,1,.426.992,1.32,1.32,0,0,1-.9,1.241v.022a1.261,1.261,0,0,1,.69.955,9.87,9.87,0,0,0,.389,1.381h-.933a6.981,6.981,0,0,1-.33-1.168c-.14-.646-.374-.852-.889-.867h-.455v2.035h-.9Zm.9,2.189h.536c.61,0,.992-.323.992-.815,0-.544-.382-.793-.97-.793a2.58,2.58,0,0,0-.558.044Z" transform="translate(-477.258 907.173)" fill="#00498a"/>
      <path id="Trazado_608203" data-name="Trazado 608203" d="M1121.629,252.639v4.95h-.9v-4.95Z" transform="translate(-488.144 907.076)" fill="#00498a"/>
      <path id="Trazado_608204" data-name="Trazado 608204" d="M1127.715,257.589v-4.95h1.028l1.278,2.123a13.615,13.615,0,0,1,.844,1.66h.015c-.059-.661-.081-1.3-.081-2.057v-1.726h.837v4.95h-.933l-1.293-2.174a17.226,17.226,0,0,1-.888-1.711l-.022.007c.037.639.044,1.293.044,2.108v1.77Z" transform="translate(-493.193 907.076)" fill="#00498a"/>
      <path id="Trazado_608205" data-name="Trazado 608205" d="M1145.356,253.4h-1.41v-.756h3.739v.756h-1.425v4.194h-.9Z" transform="translate(-504.921 907.076)" fill="#00498a"/>
      <path id="Trazado_608206" data-name="Trazado 608206" d="M1162.282,255.393h-1.865v1.454h2.086v.742h-2.989v-4.95h2.879v.742h-1.976v1.278h1.865Z" transform="translate(-516.169 907.076)" fill="#00498a"/>
      <path id="Trazado_608207" data-name="Trazado 608207" d="M1173.148,252.609a8.562,8.562,0,0,1,1.366-.1,2.3,2.3,0,0,1,1.528.4,1.253,1.253,0,0,1,.426.992,1.32,1.32,0,0,1-.9,1.241v.022a1.26,1.26,0,0,1,.69.955,9.873,9.873,0,0,0,.39,1.381h-.933a7.007,7.007,0,0,1-.33-1.168c-.14-.646-.375-.852-.889-.867h-.455v2.035h-.9Zm.9,2.189h.536c.609,0,.992-.323.992-.815,0-.544-.382-.793-.97-.793a2.585,2.585,0,0,0-.558.044Z" transform="translate(-526.021 907.173)" fill="#00498a"/>
      <path id="Trazado_608208" data-name="Trazado 608208" d="M508.984,311.046V334.71h23.664V311.046Zm5.451,3.2v1.125h7.632v2.263h-7.632v1.125l-3.907-2.256Zm-3.907,11.282,3.907-2.256V324.4h7.632v2.263h-7.632v1.125Zm16.538,6.219v-1.125h-7.632v-2.263h7.632v-1.125l3.908,2.256Zm0-8.67v-1.125h-7.632v-2.263h7.632v-1.125l3.908,2.256Z" transform="translate(-46.122 864.874)" fill="#44ab95"/>
      <path id="Trazado_608209" data-name="Trazado 608209" d="M388.144,616.5c-.836-.04-1.414,1.172-1.964,2.39.55,1.219,1.127,2.43,1.964,2.39.758-.037,1.085-1.218,1.391-2.39C389.229,617.714,388.9,616.532,388.144,616.5Z" transform="translate(42.611 644.169)" fill="#44ab95"/>
      <path id="Trazado_608210" data-name="Trazado 608210" d="M429.328,651.544c-.8,0-1.243,1.2-1.664,2.388.421,1.192.865,2.388,1.664,2.388s1.238-1.194,1.657-2.388C430.565,652.738,430.121,651.544,429.328,651.544Z" transform="translate(12.637 618.843)" fill="#44ab95"/>
      <path id="Trazado_608211" data-name="Trazado 608211" d="M401.963,651.543h-.013c-.762.013-1.088,1.209-1.4,2.388.308,1.179.634,2.375,1.4,2.388h.013c.777,0,1.185-1.2,1.572-2.388C403.148,652.742,402.74,651.543,401.963,651.543Z" transform="translate(32.226 618.844)" fill="#44ab95"/>
      <path id="Trazado_608212" data-name="Trazado 608212" d="M415.208,651.537H415.2c-.783.005-1.194,1.2-1.581,2.39.387,1.19.8,2.385,1.581,2.39h.005c.8,0,1.24-1.2,1.66-2.39C416.447,652.735,416,651.537,415.208,651.537Z" transform="translate(22.783 618.849)" fill="#44ab95"/>
      <path id="Trazado_608213" data-name="Trazado 608213" d="M388.144,651.533c-.836-.039-1.414,1.172-1.964,2.39.55,1.219,1.127,2.43,1.964,2.39.758-.037,1.085-1.218,1.391-2.39C389.229,652.751,388.9,651.57,388.144,651.533Z" transform="translate(42.611 618.852)" fill="#44ab95"/>
      <path id="Trazado_608214" data-name="Trazado 608214" d="M369.385,601.658v23.794h23.794V601.658Zm21.8,18.618.019.612a1.661,1.661,0,0,1-1.478-.966,7.01,7.01,0,0,1-.529-1.136,7.015,7.015,0,0,1-.515,1.1,1.58,1.58,0,0,1-2.933,0,6.971,6.971,0,0,1-.521-1.112,7,7,0,0,1-.524,1.121,1.708,1.708,0,0,1-1.46.984h-.01a1.669,1.669,0,0,1-1.437-1,6.663,6.663,0,0,1-.463-1.041,6.6,6.6,0,0,1-.472,1.062,1.639,1.639,0,0,1-1.42.981h-.026a1.554,1.554,0,0,1-1.367-1.014,5.589,5.589,0,0,1-.336-.85,5.683,5.683,0,0,1-.325.823,1.6,1.6,0,0,1-1.352,1.042l-.077,0c-1.054,0-1.69-1.07-2.253-2.267-.559,1.195-1.191,2.267-2.234,2.267-.039,0-.078,0-.118,0l.046-.611c.838.062,1.416-1.163,1.969-2.389-.553-1.226-1.131-2.451-1.969-2.388l-.046-.611c1.114-.083,1.771,1.023,2.352,2.262.575-1.225,1.228-2.317,2.33-2.265a1.6,1.6,0,0,1,1.352,1.043,5.664,5.664,0,0,1,.325.823,5.588,5.588,0,0,1,.336-.851,1.554,1.554,0,0,1,1.367-1.013h.026a1.639,1.639,0,0,1,1.42.981,6.6,6.6,0,0,1,.472,1.061,6.686,6.686,0,0,1,.463-1.041,1.669,1.669,0,0,1,1.437-1h.01a1.707,1.707,0,0,1,1.46.984,7.007,7.007,0,0,1,.524,1.121,6.97,6.97,0,0,1,.521-1.113,1.58,1.58,0,0,1,2.933,0,7.015,7.015,0,0,1,.515,1.1,7.021,7.021,0,0,1,.529-1.136,1.663,1.663,0,0,1,1.478-.966l-.019.612h-.024c-.783,0-1.222,1.2-1.641,2.39C389.946,619.088,390.391,620.3,391.188,620.276Zm0-9.721.019.612a1.662,1.662,0,0,1-1.478-.966,7.006,7.006,0,0,1-.529-1.136,7.009,7.009,0,0,1-.515,1.1,1.58,1.58,0,0,1-2.933,0,6.97,6.97,0,0,1-.521-1.112,7.018,7.018,0,0,1-.524,1.121,1.708,1.708,0,0,1-1.46.984h-.01a1.669,1.669,0,0,1-1.437-1,6.647,6.647,0,0,1-.463-1.041,6.6,6.6,0,0,1-.472,1.062,1.639,1.639,0,0,1-1.42.981h-.026a1.554,1.554,0,0,1-1.367-1.014,5.6,5.6,0,0,1-.336-.85,5.675,5.675,0,0,1-.325.823,1.6,1.6,0,0,1-1.352,1.042l-.077,0c-1.054,0-1.69-1.07-2.253-2.267-.559,1.195-1.191,2.267-2.234,2.267-.039,0-.078,0-.118,0l.046-.611c.838.062,1.416-1.163,1.969-2.389-.553-1.226-1.131-2.452-1.969-2.388l-.046-.611c1.114-.084,1.771,1.023,2.352,2.262.575-1.225,1.228-2.317,2.33-2.265a1.6,1.6,0,0,1,1.352,1.042,5.669,5.669,0,0,1,.325.823,5.583,5.583,0,0,1,.336-.851,1.554,1.554,0,0,1,1.367-1.013h.026a1.639,1.639,0,0,1,1.42.981,6.6,6.6,0,0,1,.472,1.062,6.689,6.689,0,0,1,.463-1.041,1.669,1.669,0,0,1,1.437-1h.01a1.707,1.707,0,0,1,1.46.984,7.016,7.016,0,0,1,.524,1.121,6.981,6.981,0,0,1,.521-1.112,1.58,1.58,0,0,1,2.933,0,7,7,0,0,1,.515,1.1,7.035,7.035,0,0,1,.529-1.136,1.662,1.662,0,0,1,1.478-.965l-.019.612h-.024c-.783,0-1.222,1.2-1.641,2.39C389.946,609.367,390.391,610.58,391.188,610.555Z" transform="translate(54.747 654.889)" fill="#44ab95"/>
      <path id="Trazado_608215" data-name="Trazado 608215" d="M401.963,616.506h-.013c-.762.013-1.088,1.209-1.4,2.388.308,1.179.634,2.375,1.4,2.388h.013c.777,0,1.185-1.2,1.572-2.388C403.148,617.705,402.74,616.506,401.963,616.506Z" transform="translate(32.226 644.16)" fill="#44ab95"/>
      <path id="Trazado_608216" data-name="Trazado 608216" d="M429.328,616.507c-.8,0-1.243,1.2-1.664,2.388.421,1.192.865,2.388,1.664,2.388s1.238-1.194,1.657-2.388C430.565,617.7,430.121,616.507,429.328,616.507Z" transform="translate(12.637 644.159)" fill="#44ab95"/>
      <path id="Trazado_608217" data-name="Trazado 608217" d="M415.208,616.5H415.2c-.783.005-1.194,1.2-1.581,2.39.387,1.19.8,2.385,1.581,2.39h.005c.8,0,1.24-1.2,1.66-2.39C416.447,617.7,416,616.5,415.208,616.5Z" transform="translate(22.783 644.165)" fill="#44ab95"/>
      <path id="Trazado_622250" data-name="Trazado 622250" d="M31.427,0H0" transform="translate(387.213 1125.207)" fill="none" stroke="#dd2566" stroke-width="3"/>
      <path id="Trazado_608218" data-name="Trazado 608218" d="M827.766,36.877V77.069H850V36.877Zm1.584,2.411h13.636v2.676H829.35Zm0,4.446h13.636v2.772H829.35Zm1.171,13.184a.862.862,0,1,1,.826-.861A.844.844,0,0,1,830.521,56.918Zm12.534-5.984H829.419V48.241h13.636Z" transform="translate(-276.462 1062.979)" fill="#44ab95"/>
      <path id="Trazado_622278" data-name="Trazado 622278" d="M0,0H3.43V2.572H0Z" transform="translate(553.89 1138.92)" fill="#44ab95"/>
      <path id="Trazado_622279" data-name="Trazado 622279" d="M0,0H3.43V2.572H0Z" transform="translate(567.037 1138.92)" fill="#44ab95"/>
      <path id="Trazado_608219" data-name="Trazado 608219" d="M47.9,75.231c1.085-2.076,2.513-4.705,8.822-3.154,1.6-4.331,4.117-9.837,14.114-5.133,3.4-2.833,11.121-3.8,12.511,5.347,4.919-2.834,9.377.716,9.2,4.117,3.9,2.994,4.117,10.158-6.523,9.837-2.78,5.774-11.174,8.554-19.621,4.01-4.758,3.689-10.051,4.331-14.649-.8C43.663,92.437,34.85,78.5,47.9,75.231Z" transform="translate(291.846 1042.681)" fill="none" stroke="#44ab95" stroke-miterlimit="10" stroke-width="3"/>
      <path id="Trazado_622280" data-name="Trazado 622280" d="M0,0H12.323V6.075H0Z" transform="translate(417.737 1102.672)" fill="#44ab95"/>
      <path id="Trazado_622281" data-name="Trazado 622281" d="M0,0H7.42V6.075H0Z" transform="translate(430.608 1102.672)" fill="#44ab95"/>
      <path id="Trazado_622282" data-name="Trazado 622282" d="M0,0H12.323V6.075H0Z" transform="translate(425.706 1109.321)" fill="#44ab95"/>
      <path id="Trazado_622283" data-name="Trazado 622283" d="M0,0H7.42V6.075H0Z" transform="translate(417.737 1109.321)" fill="#44ab95"/>
      <path id="Trazado_622284" data-name="Trazado 622284" d="M0,0H12.323V6.075H0Z" transform="translate(417.737 1115.9)" fill="#44ab95"/>
      <path id="Trazado_622285" data-name="Trazado 622285" d="M0,0H7.42V6.075H0Z" transform="translate(430.608 1115.9)" fill="#44ab95"/>
      <path id="Trazado_622286" data-name="Trazado 622286" d="M0,0H12.323V6.075H0Z" transform="translate(425.706 1122.64)" fill="#44ab95"/>
      <path id="Trazado_622287" data-name="Trazado 622287" d="M0,0H7.42V6.075H0Z" transform="translate(417.737 1122.64)" fill="#44ab95"/>
      <path id="Trazado_622288" data-name="Trazado 622288" d="M0,0H12.323V6.075H0Z" transform="translate(417.737 1129.437)" fill="#44ab95"/>
      <path id="Trazado_622289" data-name="Trazado 622289" d="M0,0H7.42V6.075H0Z" transform="translate(430.608 1129.437)" fill="#44ab95"/>
      <path id="Trazado_622290" data-name="Trazado 622290" d="M0,0H12.323V6.075H0Z" transform="translate(425.706 1136.194)" fill="#44ab95"/>
      <path id="Trazado_622291" data-name="Trazado 622291" d="M0,0H7.42V6.075H0Z" transform="translate(417.737 1136.194)" fill="#44ab95"/>
      <path id="Trazado_608220" data-name="Trazado 608220" d="M519.924,85.052a12.455,12.455,0,1,0,12.456,12.456A12.456,12.456,0,0,0,519.924,85.052Zm-5.493,14.214v-.877h-5.949V96.626h5.949v-.877l3.046,1.759Zm5.493,9.44-1.759-3.046h.877V99.712h1.764v5.949h.877Zm.882-18.735V95.92h-1.764V89.972h-.877l1.759-3.046,1.759,3.046Zm4.126,8.418v.877l-3.046-1.759,3.046-1.759v.877h5.949v1.764Z" transform="translate(-45.026 1028.169)" fill="#44ab95"/>
      <path id="Trazado_622251" data-name="Trazado 622251" d="M0,37.994V0" transform="translate(474.896 1137.927)" fill="none" stroke="#dd2566" stroke-width="3"/>
      <path id="Trazado_622252" data-name="Trazado 622252" d="M64.027,0H0" transform="translate(487.277 1125.677)" fill="none" stroke="#dd2566" stroke-width="3"/>
      <path id="Trazado_622253" data-name="Trazado 622253" d="M0,0H57" transform="translate(581.594 1184.618)" fill="none" stroke="#00498a" stroke-width="3"/>
      <path id="Trazado_622254" data-name="Trazado 622254" d="M0,0H57" transform="translate(581.594 1189.947)" fill="none" stroke="#00498a" stroke-width="3"/>
      <path id="Trazado_622255" data-name="Trazado 622255" d="M0,0H26.065" transform="translate(397.298 1240.157)" fill="none" stroke="#00498a" stroke-width="3"/>
      <path id="Trazado_622256" data-name="Trazado 622256" d="M21.84,0H0" transform="translate(447.842 1268.444)" fill="none" stroke="#00498a" stroke-width="3"/>
      <path id="Trazado_622257" data-name="Trazado 622257" d="M28.956,0H0" transform="translate(433.906 1187.753)" fill="none" stroke="#00498a" stroke-width="3"/>
      <path id="Trazado_622258" data-name="Trazado 622258" d="M0,69.232V0" transform="translate(468.793 1199.212)" fill="none" stroke="#00498a" stroke-width="3"/>
      <path id="Trazado_622259" data-name="Trazado 622259" d="M0,102.847V0" transform="translate(479.059 1198.996)" fill="none" stroke="#00498a" stroke-width="3"/>
      <path id="Trazado_622260" data-name="Trazado 622260" d="M0,11.351V0" transform="translate(441.111 1320.438)" fill="none" stroke="#00498a" stroke-width="3"/>
      <path id="Trazado_622261" data-name="Trazado 622261" d="M0,11.351V0" transform="translate(514.928 1320.438)" fill="none" stroke="#00498a" stroke-width="3"/>
      <path id="Trazado_622262" data-name="Trazado 622262" d="M24.412,0H0" transform="translate(438.029 1125.207)" fill="none" stroke="#dd2566" stroke-width="3"/>
      <path id="Trazado_608221" data-name="Trazado 608221" d="M400.409,300.76a.846.846,0,0,1-.846.846h0a.846.846,0,0,1-.846-.846V278.707a.846.846,0,0,1,.846-.846h0a.846.846,0,0,1,.846.846Z" transform="translate(33.553 888.853)" fill="#44ab95"/>
      <path id="Trazado_608222" data-name="Trazado 608222" d="M321.344,300.76a.846.846,0,0,1-.846.846h0a.846.846,0,0,1-.846-.846V278.707a.846.846,0,0,1,.846-.846h0a.846.846,0,0,1,.846.846Z" transform="translate(90.682 888.853)" fill="#44ab95"/>
      <path id="Trazado_608223" data-name="Trazado 608223" d="M331.11,312.743A11.888,11.888,0,1,0,343,324.63,11.888,11.888,0,0,0,331.11,312.743Zm-5.242,13.566v-.837h-5.677v-1.683h5.677v-.837l2.907,1.678Zm5.242,9.009-1.679-2.906h.837v-5.677h1.683v5.677h.837Zm.841-17.88v5.677h-1.683v-5.677h-.837l1.678-2.907,1.678,2.907Zm3.938,8.034v.837l-2.907-1.679,2.907-1.679v.837h5.677v1.683Z" transform="translate(90.992 863.648)" fill="#44ab95"/>
      <path id="Trazado_608224" data-name="Trazado 608224" d="M320.7,274.612a1.248,1.248,0,1,1-1.248-1.248A1.248,1.248,0,0,1,320.7,274.612Z" transform="translate(91.729 892.102)" fill="#44ab95"/>
      <path id="Trazado_608225" data-name="Trazado 608225" d="M399.766,275.689a1.248,1.248,0,1,1-1.248-1.248A1.248,1.248,0,0,1,399.766,275.689Z" transform="translate(34.598 891.323)" fill="#44ab95"/>
      <path id="Trazado_608226" data-name="Trazado 608226" d="M708.972,552.424V566.9h19.909V552.424ZM727.9,565.29a.338.338,0,0,1-.3.364H710.453a.337.337,0,0,1-.3-.364V554.17a.337.337,0,0,1,.3-.365H727.6a.338.338,0,0,1,.3.365Z" transform="translate(-190.626 690.464)" fill="#dd2566"/>
      <path id="Trazado_622292" data-name="Trazado 622292" d="M0,0H2.431V2.431H0Z" transform="translate(527.161 1256.682)" fill="#dd2566"/>
      <path id="Trazado_622293" data-name="Trazado 622293" d="M0,0H16.1V3.646H0Z" transform="translate(518.772 1260.379)" fill="#dd2566"/>
      <path id="Trazado_608227" data-name="Trazado 608227" d="M772.523,615.259v1.909h-.2v-1.908a1.741,1.741,0,0,0-1.23,1.877c0,1.04.6,1.884,1.337,1.884s1.337-.843,1.337-1.884C773.769,616.14,773.219,615.325,772.523,615.259Z" transform="translate(-235.514 645.062)" fill="#dd2566"/>
      <path id="Trazado_622294" data-name="Trazado 622294" d="M0,0H9.836V.952H0Z" transform="translate(523.343 1258.672)" fill="#dd2566"/>
      <path id="Trazado_622295" data-name="Trazado 622295" d="M0,0H8.279V.228H0Z" transform="translate(532.215 1260.592) rotate(-22.512)" fill="#dd2566"/>
      <path id="Trazado_608228" data-name="Trazado 608228" d="M784.305,555.567v20.265h9.756V555.567Zm.912,1.388h7.853v2.062h-7.853Zm0,2.917h7.853v2.063h-7.853Zm.674,7.236a.5.5,0,1,1,.476-.5A.486.486,0,0,1,785.892,567.108Zm7.218-2.221h-7.852v-2.062h7.852Z" transform="translate(-245.059 688.192)" fill="#dd2566"/>
      <path id="Trazado_608229" data-name="Trazado 608229" d="M395.44,870.953v23.1h18.281v-23.1Zm5.8,21.257c0,.335-.131.607-.292.607h-4.228c-.161,0-.292-.272-.292-.607v-5.1c0-.335.131-.606.292-.606h.537v-7.774H396.7c-.161,0-.292-.271-.292-.606v-5.1c0-.335.131-.607.292-.607h4.229c.161,0,.292.272.292.607v5.1c0,.335-.131.606-.292.606h-.84v7.774h.861c.161,0,.292.271.292.606Zm4.914-.109h-2.305v-1.606h2.305Zm0-2.022h-2.305v-1.606h2.305Zm0-2h-2.305V886.47h2.305Zm0-2.083h-2.305v-.8h2.305Zm2.751,6.108H406.6v-1.606h2.306Zm0-2.022H406.6v-1.606h2.306Zm0-2H406.6V886.47h2.306Zm0-2.083H406.6v-.8h2.306Zm2.77,6.108h-2.306v-1.606h2.306Zm0-2.022h-2.306v-1.606h2.306Zm0-2h-2.306V886.47h2.306Zm0-2.083h-2.306v-.8h2.306Zm1.072-6.333a.707.707,0,0,1-.606.776h-8.777a.707.707,0,0,1-.607-.776v-6.521a.707.707,0,0,1,.607-.776h8.777a.707.707,0,0,1,.606.776Z" transform="translate(35.92 460.307)" fill="#44ab95"/>
      <path id="Trazado_608230" data-name="Trazado 608230" d="M653.343,871.655v14.584h24.234V871.655Zm23.039,12.958a.367.367,0,0,1-.367.367H655.146a.367.367,0,0,1-.367-.367v-11.2a.367.367,0,0,1,.367-.367h20.869a.367.367,0,0,1,.367.367Z" transform="translate(-150.431 459.8)" fill="#dd2566"/>
      <path id="Trazado_622296" data-name="Trazado 622296" d="M0,0H2.448V2.448H0Z" transform="translate(513.344 1345.348)" fill="#dd2566"/>
      <path id="Trazado_622297" data-name="Trazado 622297" d="M0,0H16.218V3.672H0Z" transform="translate(505.694 1350.43)" fill="#dd2566"/>
      <path id="Trazado_608231" data-name="Trazado 608231" d="M726.021,939.836v1.923h-.2v-1.922a1.755,1.755,0,0,0-1.239,1.891c0,1.048.6,1.9,1.346,1.9s1.346-.849,1.346-1.9C727.276,940.724,726.722,939.9,726.021,939.836Z" transform="translate(-201.905 410.535)" fill="#dd2566"/>
      <path id="Trazado_622298" data-name="Trazado 622298" d="M0,0H.122V1.265H0Z" transform="translate(521.361 1349.285)" fill="#dd2566"/>
      <path id="Trazado_622299" data-name="Trazado 622299" d="M0,0H7.13V.75H0Z" transform="translate(505.25 1347.245)" fill="#dd2566"/>
      <path id="Trazado_608232" data-name="Trazado 608232" d="M659.178,926.143v2.968h20.441v-2.968Zm8.186,1.759h-7.8v-1.423h7.8Zm10.962-.276a.39.39,0,1,1,.39-.39A.39.39,0,0,1,678.326,927.627Z" transform="translate(-154.646 420.429)" fill="#dd2566"/>
      <path id="Trazado_622263" data-name="Trazado 622263" d="M3.586,0H91.762a3.584,3.584,0,0,1,3.584,3.584V36.009a3.585,3.585,0,0,1-3.585,3.585H3.584A3.584,3.584,0,0,1,0,36.01V3.586A3.586,3.586,0,0,1,3.586,0Z" transform="translate(555.741 1310.354)" fill="none" stroke="#00498a" stroke-width="3"/>
      <path id="Trazado_608233" data-name="Trazado 608233" d="M884.806,814.112a2.854,2.854,0,0,0-2.126,4.761l-5.265,6.8a2.993,2.993,0,0,0-4.322,2l-7.488-.266a2.888,2.888,0,1,0-.027,1.031l7.47.265a2.989,2.989,0,0,0,4.488,2.194l3.952,6.06a2.952,2.952,0,1,0,.868-.558l-4.027-6.176a2.99,2.99,0,0,0-.1-3.92l5.266-6.8a2.856,2.856,0,1,0,1.311-5.393Z" transform="translate(-299.642 501.378)" fill="#dd2566"/>
      <path id="Trazado_608234" data-name="Trazado 608234" d="M982.353,824.77a4.708,4.708,0,0,0,1.922-.331l-.221-1.072a3.8,3.8,0,0,1-1.48.276,2.444,2.444,0,0,1-2.6-2.685,2.48,2.48,0,0,1,2.608-2.74,3.619,3.619,0,0,1,1.458.287l.3-1.083a4.275,4.275,0,0,0-1.812-.332,3.745,3.745,0,0,0-3.978,3.933A3.514,3.514,0,0,0,982.353,824.77Z" transform="translate(-385.414 499.226)" fill="#dd2566"/>
      <path id="Trazado_608235" data-name="Trazado 608235" d="M1007.928,820.859c0-2.122-1.282-3.768-3.458-3.768-2.1,0-3.536,1.613-3.536,3.9,0,2.188,1.326,3.79,3.425,3.79C1006.415,824.781,1007.928,823.356,1007.928,820.859Zm-5.558.11c0-1.536.718-2.784,2.066-2.784s2.055,1.326,2.055,2.729c0,1.558-.74,2.773-2.055,2.773S1002.371,822.483,1002.371,820.969Z" transform="translate(-401.586 499.226)" fill="#dd2566"/>
      <path id="Trazado_608236" data-name="Trazado 608236" d="M1031.125,821.981c.055-1.016.1-2.2.132-3.171h.022c.2.928.464,1.945.751,2.9l.994,3.182h1.05l1.083-3.226c.331-.939.641-1.945.884-2.851h.033c-.011,1.005.044,2.166.088,3.127l.144,3.038h1.326l-.431-7.447h-1.768l-1.027,2.984c-.287.873-.542,1.79-.74,2.6h-.033c-.188-.829-.42-1.713-.685-2.585l-.972-2.994h-1.79l-.5,7.447h1.271Z" transform="translate(-422.362 498.91)" fill="#dd2566"/>
      <path id="Trazado_608237" data-name="Trazado 608237" d="M1064.648,822.025a3.813,3.813,0,0,0,.663.044,3.286,3.286,0,0,0,2.354-.8,2.256,2.256,0,0,0,.641-1.691,2.1,2.1,0,0,0-.729-1.646,3.371,3.371,0,0,0-2.2-.608,11.779,11.779,0,0,0-2.078.155v7.348h1.348Zm0-3.591a3.769,3.769,0,0,1,.784-.066c.939,0,1.514.442,1.514,1.271,0,.873-.618,1.37-1.635,1.37a2.742,2.742,0,0,1-.663-.055Z" transform="translate(-446.649 499.054)" fill="#dd2566"/>
      <path id="Trazado_608238" data-name="Trazado 608238" d="M1088.362,825.1c1.79,0,2.973-1.017,2.973-3.315v-4.254h-1.359v4.342c0,1.458-.586,2.132-1.569,2.132-.917,0-1.525-.674-1.525-2.132v-4.342h-1.359v4.265C1085.523,824.135,1086.639,825.1,1088.362,825.1Z" transform="translate(-462.707 498.91)" fill="#dd2566"/>
      <path id="Trazado_608239" data-name="Trazado 608239" d="M1111.7,824.975h1.359v-6.309h2.144v-1.138h-5.624v1.138h2.121Z" transform="translate(-480.087 498.91)" fill="#dd2566"/>
      <path id="Trazado_608240" data-name="Trazado 608240" d="M1137.491,823.859h-3.138v-2.188h2.806v-1.1h-2.806v-1.923h2.972v-1.116h-4.332v7.447h4.5Z" transform="translate(-497.008 498.91)" fill="#dd2566"/>
      <path id="Trazado_608241" data-name="Trazado 608241" d="M1158.189,822.754a1.9,1.9,0,0,0-1.039-1.436v-.033a1.986,1.986,0,0,0,1.348-1.867,1.886,1.886,0,0,0-.641-1.492,3.452,3.452,0,0,0-2.3-.6,12.894,12.894,0,0,0-2.055.155v7.348h1.348v-3.061h.685c.773.022,1.127.331,1.337,1.3a10.549,10.549,0,0,0,.5,1.757h1.4A14.857,14.857,0,0,1,1158.189,822.754Zm-2.53-1.978h-.806v-2.354a3.915,3.915,0,0,1,.839-.066c.884,0,1.459.376,1.459,1.194C1157.15,820.29,1156.576,820.776,1155.659,820.776Z" transform="translate(-511.827 499.054)" fill="#dd2566"/>
      <path id="Trazado_608242" data-name="Trazado 608242" d="M984.587,888.4c0,1.138.033,2.1.121,3.094h-.022a20.54,20.54,0,0,0-1.271-2.5l-1.923-3.193h-1.547v7.447h1.249v-2.663c0-1.227-.011-2.21-.066-3.171l.033-.011a25.874,25.874,0,0,0,1.337,2.575l1.945,3.271h1.4V885.8h-1.26Z" transform="translate(-386.421 449.578)" fill="#dd2566"/>
      <path id="Trazado_608243" data-name="Trazado 608243" d="M1008.227,889.945h2.806v-1.1h-2.806v-1.923h2.972V885.8h-4.331v7.447h4.5v-1.116h-3.138Z" transform="translate(-405.874 449.578)" fill="#dd2566"/>
      <path id="Trazado_608244" data-name="Trazado 608244" d="M1025.267,886.939h2.121v6.309h1.359v-6.309h2.144V885.8h-5.624Z" transform="translate(-419.169 449.578)" fill="#dd2566"/>
      <path id="Trazado_608245" data-name="Trazado 608245" d="M1054.968,889.171c-.2.906-.376,1.757-.508,2.574h-.022c-.11-.807-.265-1.635-.453-2.519l-.74-3.425h-1.425l-.807,3.37c-.21.939-.42,1.823-.541,2.607h-.022c-.122-.74-.3-1.69-.486-2.6l-.707-3.381h-1.448l1.823,7.447h1.469l.862-3.5c.221-.851.365-1.569.5-2.364h.022a21.151,21.151,0,0,0,.409,2.364l.774,3.5h1.458l2-7.447h-1.381Z" transform="translate(-435.455 449.578)" fill="#dd2566"/>
      <path id="Trazado_608246" data-name="Trazado 608246" d="M1086.589,885.363c-2.1,0-3.536,1.613-3.536,3.9,0,2.188,1.326,3.79,3.425,3.79,2.055,0,3.569-1.425,3.569-3.922C1090.047,887.009,1088.765,885.363,1086.589,885.363Zm-.033,6.6c-1.3,0-2.066-1.2-2.066-2.718,0-1.536.718-2.785,2.066-2.785s2.055,1.326,2.055,2.729C1088.611,890.744,1087.871,891.959,1086.556,891.959Z" transform="translate(-460.922 449.895)" fill="#dd2566"/>
      <path id="Trazado_608247" data-name="Trazado 608247" d="M1116.13,889.591v-.033a1.987,1.987,0,0,0,1.348-1.867,1.884,1.884,0,0,0-.641-1.492,3.448,3.448,0,0,0-2.3-.6,12.928,12.928,0,0,0-2.055.154V893.1h1.348v-3.06h.685c.774.022,1.127.331,1.337,1.3a10.489,10.489,0,0,0,.5,1.757h1.4a14.87,14.87,0,0,1-.585-2.077A1.9,1.9,0,0,0,1116.13,889.591Zm-1.492-.541h-.807V886.7a3.89,3.89,0,0,1,.84-.067c.884,0,1.459.376,1.459,1.193C1116.13,888.563,1115.556,889.049,1114.639,889.049Z" transform="translate(-482.188 449.723)" fill="#dd2566"/>
      <path id="Trazado_608248" data-name="Trazado 608248" d="M1140.691,885.8h-1.679l-1.945,2.619c-.177.254-.365.52-.541.807h-.033V885.8h-1.348v7.447h1.348V890.63l.663-.8,2.11,3.414h1.591l-2.729-4.276Z" transform="translate(-498.562 449.578)" fill="#dd2566"/>
      <path id="Trazado_608249" data-name="Trazado 608249" d="M86.636,275.134H85.066v-.371h1.569v-12.5H69.452v12.5H70.8v.371H69.452l-2.774,8.032H90.254ZM78.05,262.511a.35.35,0,1,1-.35.35A.35.35,0,0,1,78.05,262.511Zm-7.58,10.859v-9.6a.292.292,0,0,1,.26-.315h14.8a.291.291,0,0,1,.26.315v9.6a.291.291,0,0,1-.26.315H70.73A.291.291,0,0,1,70.47,273.371Zm2.595,1.392H82.8v.371H73.065Zm6.885,7.144a.086.086,0,0,1-.091.1H76.229a.086.086,0,0,1-.091-.1l.293-1.634a.1.1,0,0,1,.1-.071h3.02a.1.1,0,0,1,.1.071Zm-2.635.663a.125.125,0,0,1-.123.115H76.138a.094.094,0,0,1-.1-.115l.065-.363a.134.134,0,0,1,.128-.105h1a.1.1,0,0,1,.1.105Zm1.262.115H77.523a.108.108,0,0,1-.11-.115l.021-.363a.115.115,0,0,1,.116-.105h1a.115.115,0,0,1,.116.105l.021.363A.108.108,0,0,1,78.577,282.684Zm1.369.006H78.891a.124.124,0,0,1-.123-.115l-.023-.363a.1.1,0,0,1,.1-.106h1a.133.133,0,0,1,.128.106l.064.363A.094.094,0,0,1,79.946,282.69Z" transform="translate(273.471 900.121)" fill="#dd2566"/>
      <path id="Trazado_608250" data-name="Trazado 608250" d="M86.636,377.643H85.066v-.371h1.569v-12.5H69.452v12.5H70.8v.371H69.452l-2.774,8.032H90.254ZM78.05,365.02a.35.35,0,1,1-.35.35A.35.35,0,0,1,78.05,365.02Zm-7.58,10.859v-9.6a.291.291,0,0,1,.26-.315h14.8a.291.291,0,0,1,.26.315v9.6a.291.291,0,0,1-.26.315H70.73A.292.292,0,0,1,70.47,375.879Zm2.595,1.392H82.8v.371H73.065Zm6.885,7.144a.086.086,0,0,1-.091.1H76.229a.086.086,0,0,1-.091-.1l.293-1.634a.1.1,0,0,1,.1-.071h3.02a.1.1,0,0,1,.1.071Zm-2.635.663a.125.125,0,0,1-.123.115H76.138a.094.094,0,0,1-.1-.115l.065-.363a.134.134,0,0,1,.128-.105h1a.1.1,0,0,1,.1.105Zm1.262.115H77.523a.108.108,0,0,1-.11-.115l.021-.363a.115.115,0,0,1,.116-.105h1a.115.115,0,0,1,.116.105l.021.363A.108.108,0,0,1,78.577,385.193Zm1.369.006H78.891a.124.124,0,0,1-.123-.115l-.023-.363a.1.1,0,0,1,.1-.106h1a.134.134,0,0,1,.128.106l.064.363A.094.094,0,0,1,79.946,385.2Z" transform="translate(273.471 826.052)" fill="#dd2566"/>
      <path id="Trazado_608251" data-name="Trazado 608251" d="M114.611,737.984H100.747a.361.361,0,0,0-.378.341v20.63a.361.361,0,0,0,.378.341h13.864a.361.361,0,0,0,.378-.341v-20.63A.361.361,0,0,0,114.611,737.984Zm-1.877,18.5v.182h-2.519v-.182Zm-4.175.613a.885.885,0,1,1-.88-.793A.841.841,0,0,1,108.559,757.1Zm-3.476-.613v.182h-2.519v-.182Zm-3.158-1.618v-15.3h11.468v15.3Z" transform="translate(249.127 556.386)" fill="#dd2566"/>
      <path id="Trazado_608252" data-name="Trazado 608252" d="M187.436,491.6H156.82a.6.6,0,0,0-.6.6v18.687a.6.6,0,0,0,.6.6h13.639l-.315,3.2h-8.3a.4.4,0,0,0,0,.779h20.189a.4.4,0,0,0,0-.779h-8.3l-.315-3.2h14.015a.6.6,0,0,0,.6-.6V492.2A.6.6,0,0,0,187.436,491.6Zm-1.4,19.731a.389.389,0,1,1,.389-.39A.39.39,0,0,1,186.031,511.332Zm.927-1.535a.544.544,0,0,1-.556.53H157.854a.544.544,0,0,1-.556-.53V493.179a.543.543,0,0,1,.556-.53H186.4a.544.544,0,0,1,.556.53Z" transform="translate(208.769 734.412)" fill="#dd2566"/>
      <path id="Trazado_608253" data-name="Trazado 608253" d="M164.6,339.532a.955.955,0,0,0-.371,1.3,5.583,5.583,0,0,1,0,5.8.955.955,0,0,0,1.67.927,7.456,7.456,0,0,0,0-7.657A.955.955,0,0,0,164.6,339.532Z" transform="translate(203.072 844.378)" fill="#00498a"/>
      <path id="Trazado_608254" data-name="Trazado 608254" d="M179.752,332.239a.955.955,0,1,0-1.781.689,13.865,13.865,0,0,1,0,10.169.955.955,0,1,0,1.781.689A15.745,15.745,0,0,0,179.752,332.239Z" transform="translate(193.102 850.002)" fill="#00498a"/>
      <path id="Trazado_608255" data-name="Trazado 608255" d="M194.782,325.849c-.191-.632-.743-.946-1.235-.7a1.358,1.358,0,0,0-.546,1.587,22.583,22.583,0,0,1,0,13.069,1.359,1.359,0,0,0,.546,1.588.772.772,0,0,0,.344.083.993.993,0,0,0,.891-.784A25.656,25.656,0,0,0,194.782,325.849Z" transform="translate(182.242 854.744)" fill="#00498a"/>
      <path id="Trazado_608256" data-name="Trazado 608256" d="M97.569,830.914H66.954a.6.6,0,0,0-.6.6V850.2a.6.6,0,0,0,.6.6H97.569a.6.6,0,0,0,.6-.6V831.51A.6.6,0,0,0,97.569,830.914Zm-22.764,19.3H70.6a.462.462,0,1,1,0-.925h4.208a.462.462,0,1,1,0,.925Zm9.71,0H80.308a.462.462,0,1,1,0-.925h4.208a.462.462,0,1,1,0,.925Zm9.433,0H89.741a.462.462,0,1,1,0-.925h4.208a.462.462,0,1,1,0,.925ZM97.091,848a.544.544,0,0,1-.556.53H67.988a.544.544,0,0,1-.556-.53V832.492a.544.544,0,0,1,.556-.53H96.535a.543.543,0,0,1,.556.53Z" transform="translate(273.702 489.237)" fill="#dd2566"/>
      <path id="Trazado_608257" data-name="Trazado 608257" d="M251.7,764.8a1.208,1.208,0,0,0,.416,1.656,7.059,7.059,0,0,1,3.675,6.351,1.207,1.207,0,0,0,2.414-.042,9.427,9.427,0,0,0-4.849-8.38A1.208,1.208,0,0,0,251.7,764.8Z" transform="translate(139.905 537.433)" fill="#00498a"/>
      <path id="Trazado_608258" data-name="Trazado 608258" d="M263.664,747.226a1.207,1.207,0,1,0-1.512,1.882,17.528,17.528,0,0,1,6.439,11.127,1.207,1.207,0,0,0,2.385-.373A19.909,19.909,0,0,0,263.664,747.226Z" transform="translate(132.555 549.899)" fill="#00498a"/>
      <path id="Trazado_608259" data-name="Trazado 608259" d="M276.267,730.8a1.144,1.144,0,0,0-1.8.015,1.717,1.717,0,0,0,.408,2.082,28.557,28.557,0,0,1,8.276,14.3,1.717,1.717,0,0,0,1.6,1.391.983.983,0,0,0,.429-.127,1.256,1.256,0,0,0,.478-1.422A32.434,32.434,0,0,0,276.267,730.8Z" transform="translate(123.473 561.882)" fill="#00498a"/>
      <path id="Trazado_622264" data-name="Trazado 622264" d="M0,40.158V0" transform="translate(422.523 1199.494)" fill="none" stroke="#00498a" stroke-width="3"/>
      <path id="Trazado_608260" data-name="Trazado 608260" d="M47.6,651.544H33.735a.361.361,0,0,0-.379.341v20.63a.362.362,0,0,0,.379.341H47.6a.362.362,0,0,0,.379-.341v-20.63A.361.361,0,0,0,47.6,651.544Zm-1.876,18.5v.182H43.2v-.182Zm-4.175.613a.885.885,0,1,1-.88-.793A.841.841,0,0,1,41.546,670.661Zm-3.475-.613v.182H35.552v-.182Zm-3.158-1.618v-15.3H46.381v15.3Z" transform="translate(297.548 618.844)" fill="#dd2566"/>
      <path id="Trazado_608261" data-name="Trazado 608261" d="M184.777,649.012H170.914a.361.361,0,0,0-.379.341v20.63a.362.362,0,0,0,.379.341h13.863a.362.362,0,0,0,.379-.341v-20.63A.361.361,0,0,0,184.777,649.012Zm-1.876,18.5v.182h-2.519v-.182Zm-4.175.613a.885.885,0,1,1-.88-.793A.841.841,0,0,1,178.725,668.129Zm-3.475-.613v.182H172.73v-.182Zm-3.158-1.618v-15.3H183.56v15.3Z" transform="translate(198.428 620.673)" fill="#dd2566"/>
      <path id="Trazado_608262" data-name="Trazado 608262" d="M1070.433,34.273V74.465h22.229V34.273Zm1.584,2.411h13.636V39.36h-13.636Zm0,4.446h13.636V43.9h-13.636Zm1.171,13.184a.862.862,0,1,1,.826-.861A.844.844,0,0,1,1073.188,54.314Zm12.534-5.984h-13.636V45.637h13.636Z" transform="translate(-451.804 1064.859)" fill="#44ab95"/>
      <path id="Trazado_622300" data-name="Trazado 622300" d="M0,0H3.43V2.572H0Z" transform="translate(621.215 1138.197)" fill="#44ab95"/>
      <path id="Trazado_622301" data-name="Trazado 622301" d="M0,0H3.43V2.572H0Z" transform="translate(634.362 1138.197)" fill="#44ab95"/>
      <path id="Trazado_622265" data-name="Trazado 622265" d="M45.1,0H0" transform="translate(573.533 1124.895)" fill="none" stroke="#dd2566" stroke-width="3"/>
      <path id="Trazado_622266" data-name="Trazado 622266" d="M61.251,0H0" transform="translate(486.526 1187.753)" fill="none" stroke="#dd2566" stroke-width="3"/>
      <path id="Trazado_608263" data-name="Trazado 608263" d="M819.216,444.895v14.479h19.909V444.895Zm18.927,12.866a.338.338,0,0,1-.3.364H820.7a.337.337,0,0,1-.3-.364v-11.12a.338.338,0,0,1,.3-.365h17.145a.338.338,0,0,1,.3.365Z" transform="translate(-270.284 768.161)" fill="#dd2566"/>
      <path id="Trazado_622302" data-name="Trazado 622302" d="M0,0H2.431V2.431H0Z" transform="translate(557.747 1226.849)" fill="#dd2566"/>
      <path id="Trazado_622303" data-name="Trazado 622303" d="M0,0H16.1V3.646H0Z" transform="translate(549.358 1230.547)" fill="#dd2566"/>
      <path id="Trazado_608264" data-name="Trazado 608264" d="M882.767,507.729v1.909h-.2v-1.908a1.742,1.742,0,0,0-1.23,1.877c0,1.04.6,1.884,1.337,1.884s1.337-.843,1.337-1.884C884.013,508.611,883.463,507.8,882.767,507.729Z" transform="translate(-315.172 722.759)" fill="#dd2566"/>
      <path id="Trazado_622304" data-name="Trazado 622304" d="M0,0H9.836V.952H0Z" transform="translate(553.929 1228.84)" fill="#dd2566"/>
      <path id="Trazado_622305" data-name="Trazado 622305" d="M0,0H8.279V.228H0Z" transform="matrix(0.924, -0.383, 0.383, 0.924, 562.801, 1230.76)" fill="#dd2566"/>
      <path id="Trazado_608265" data-name="Trazado 608265" d="M894.549,448.038V468.3h9.756V448.038Zm.912,1.388h7.852v2.062h-7.852Zm0,2.917h7.852v2.062h-7.852Zm.674,7.236a.5.5,0,1,1,.476-.5A.486.486,0,0,1,896.136,459.579Zm7.218-2.221H895.5V455.3h7.852Z" transform="translate(-324.717 765.89)" fill="#dd2566"/>
      <path id="Trazado_608266" data-name="Trazado 608266" d="M951.69,554.3v14.479H971.6V554.3Zm18.927,12.866a.338.338,0,0,1-.3.364H953.171a.337.337,0,0,1-.3-.364v-11.12a.338.338,0,0,1,.3-.365h17.145a.338.338,0,0,1,.3.365Z" transform="translate(-366.005 689.11)" fill="#dd2566"/>
      <path id="Trazado_622306" data-name="Trazado 622306" d="M0,0H2.431V2.431H0Z" transform="translate(594.5 1257.202)" fill="#dd2566"/>
      <path id="Trazado_622307" data-name="Trazado 622307" d="M0,0H16.1V3.646H0Z" transform="translate(586.111 1260.899)" fill="#dd2566"/>
      <path id="Trazado_608267" data-name="Trazado 608267" d="M1015.241,617.133v1.909h-.2v-1.908a1.742,1.742,0,0,0-1.231,1.877c0,1.04.6,1.884,1.337,1.884s1.337-.843,1.337-1.884C1016.487,618.014,1015.937,617.2,1015.241,617.133Z" transform="translate(-410.893 643.708)" fill="#dd2566"/>
      <path id="Trazado_622308" data-name="Trazado 622308" d="M0,0H9.835V.952H0Z" transform="translate(590.683 1259.192)" fill="#dd2566"/>
      <path id="Trazado_622309" data-name="Trazado 622309" d="M0,0H8.279V.228H0Z" transform="matrix(0.924, -0.383, 0.383, 0.924, 599.555, 1261.112)" fill="#dd2566"/>
      <path id="Trazado_608268" data-name="Trazado 608268" d="M1027.023,557.441v20.265h9.756V557.441Zm.912,1.388h7.852v2.062h-7.852Zm0,2.917h7.852v2.063h-7.852Zm.674,7.236a.5.5,0,1,1,.476-.5A.486.486,0,0,1,1028.61,568.982Zm7.218-2.221h-7.852V564.7h7.852Z" transform="translate(-420.438 686.839)" fill="#dd2566"/>
      <path id="Trazado_622267" data-name="Trazado 622267" d="M0,0V12.16" transform="translate(637.792 1173.458)" fill="none" stroke="#00498a" stroke-width="3"/>
      <path id="Trazado_622268" data-name="Trazado 622268" d="M0,0V12.16" transform="translate(637.792 1189.549)" fill="none" stroke="#00498a" stroke-width="3"/>
      <path id="Trazado_608269" data-name="Trazado 608269" d="M1109.566,272.321,1120.1,266.9l-.524-1.018-10.007,5.153v-1.545h-23.681V272.4l-2.91.022.009,1.145,2.9-.022v6.38h2.007v.6h2.258v-.6h14.5v.6h2.157v-.6h2.76Z" transform="translate(-460.866 897.509)" fill="#44ab95"/>
      <path id="Trazado_608270" data-name="Trazado 608270" d="M1129.991,398.438h-9.18l-.468,8.743h10.073Z" transform="translate(-487.867 801.729)" fill="#44ab95"/>
      <path id="Trazado_608271" data-name="Trazado 608271" d="M1117.353,428.818h-8.269l.035.717h-11l.038-.717h-7.716a.224.224,0,0,0-.214.232v9.642a.224.224,0,0,0,.214.232h7.408l.7-1.827h10.632l.725,1.827h7.444a.224.224,0,0,0,.214-.232V429.05A.224.224,0,0,0,1117.353,428.818Zm-8.7,7.119h-10.073v-.789h10.073Z" transform="translate(-466.105 779.776)" fill="#44ab95"/>
      <path id="Trazado_608272" data-name="Trazado 608272" d="M1127.444,460.331h-9.279l-1.737,4.5h12.8Zm-8.89.915h8.385l.2.5h-8.783Zm-.282,1.138h8.881l.2.5h-9.28Zm-.2,1.293h9.315l.2.5h-9.713Z" transform="translate(-485.038 757.007)" fill="#44ab95"/>
      <path id="Trazado_622269" data-name="Trazado 622269" d="M0,0V21.939" transform="translate(563.765 1191.116)" fill="none" stroke="#00498a" stroke-width="3"/>
      <path id="Trazado_622270" data-name="Trazado 622270" d="M0,0V35.2" transform="translate(529.591 1208.14)" fill="none" stroke="#00498a" stroke-width="3"/>
      <path id="Trazado_622271" data-name="Trazado 622271" d="M0,0V35.2" transform="translate(598.684 1208.14)" fill="none" stroke="#00498a" stroke-width="3"/>
      <path id="Trazado_622272" data-name="Trazado 622272" d="M0,0H24.7" transform="translate(529.591 1208.909)" fill="none" stroke="#00498a" stroke-width="3"/>
      <path id="Trazado_622273" data-name="Trazado 622273" d="M0,0H25.726" transform="translate(572.6 1208.909)" fill="none" stroke="#00498a" stroke-width="3"/>
      <path id="Trazado_622274" data-name="Trazado 622274" d="M0,0V15.8" transform="translate(573.432 1193.107)" fill="none" stroke="#00498a" stroke-width="3"/>
      <path id="Trazado_622275" data-name="Trazado 622275" d="M0,0V15.8" transform="translate(553.457 1193.107)" fill="none" stroke="#00498a" stroke-width="3"/>
      <path id="Trazado_608273" data-name="Trazado 608273" d="M812.25,338.185v8.394h34.522v-8.394Zm8.849,5.373h-2.913v-2.8H821.1Zm4.843,0h-2.913v-2.8h2.913Zm4.589,0h-2.913v-2.8h2.913Zm4.443,0H832.06v-2.8h2.913Zm4.3,0h-2.913v-2.8h2.913Z" transform="translate(-265.25 845.266)" fill="#44ab95"/>
      <path id="Trazado_622310" data-name="Trazado 622310" d="M0,0H4.261V1.992H0Z" transform="translate(550.131 1191.116)" fill="#44ab95"/>
      <path id="Trazado_622311" data-name="Trazado 622311" d="M0,0H4.261V1.992H0Z" transform="translate(572.563 1191.116)" fill="#44ab95"/>
      <path id="Trazado_622276" data-name="Trazado 622276" d="M28.284,0H0" transform="translate(440.283 1320.438)" fill="none" stroke="#00498a" stroke-width="3"/>
      <path id="Trazado_622277" data-name="Trazado 622277" d="M28.284,0H0" transform="translate(487.456 1320.438)" fill="none" stroke="#00498a" stroke-width="3"/>
      <path id="Trazado_608274" data-name="Trazado 608274" d="M535.788,787.666H546.9v-17H535.788Zm9.742-16.305a.388.388,0,1,1,.775,0V787.02a.388.388,0,1,1-.775,0Zm-1.06,0a.388.388,0,1,1,.775,0V787.02a.388.388,0,1,1-.775,0Zm-1.163,0a.388.388,0,1,1,.775,0V787.02a.388.388,0,1,1-.775,0Zm-1.111,0a.388.388,0,1,1,.775,0V787.02a.388.388,0,1,1-.775,0Zm-1.163,0a.388.388,0,1,1,.775,0V787.02a.388.388,0,1,1-.775,0Zm-1.137,0a.388.388,0,1,1,.775,0V787.02a.388.388,0,1,1-.775,0Zm-1.163,0a.388.388,0,1,1,.775,0V787.02a.388.388,0,1,1-.775,0Zm-1.111,0a.388.388,0,1,1,.775,0V787.02a.388.388,0,1,1-.775,0Zm-1.163,0a.388.388,0,1,1,.775,0V787.02a.388.388,0,1,1-.775,0Z" transform="translate(-65.49 532.772)" fill="#44ab95"/>
      <path id="Trazado_608275" data-name="Trazado 608275" d="M529.548,762.933v20.982H550.53V762.933Zm13.618,19.225a.7.7,0,0,1-.707.7H531.211a.7.7,0,0,1-.707-.7V765a.7.7,0,0,1,.707-.7h11.247a.7.7,0,0,1,.707.7Z" transform="translate(-60.981 538.358)" fill="#44ab95"/>
      <path id="Trazado_608276" data-name="Trazado 608276" d="M80.161,913.158H78.752V912.4h3.736v.756H81.064v4.192h-.9Z" transform="translate(264.747 430.357)" fill="#00498a"/>
      <path id="Trazado_608277" data-name="Trazado 608277" d="M92.414,915.947l-.426,1.4h-.932l1.586-4.948h1.152L95.4,917.35h-.969l-.448-1.4Zm1.417-.683-.389-1.218c-.1-.3-.176-.639-.25-.925h-.014c-.074.286-.147.631-.235.925l-.382,1.218Z" transform="translate(255.856 430.357)" fill="#00498a"/>
      <path id="Trazado_608278" data-name="Trazado 608278" d="M109.208,912.372a7.535,7.535,0,0,1,1.314-.1,2.345,2.345,0,0,1,1.417.316,1.044,1.044,0,0,1,.514.925,1.151,1.151,0,0,1-.822,1.072v.015a1.247,1.247,0,0,1,1,1.226,1.284,1.284,0,0,1-.477,1.02,2.75,2.75,0,0,1-1.835.463,8.717,8.717,0,0,1-1.109-.066Zm.9,1.953h.462c.624,0,.976-.294.976-.712,0-.462-.352-.676-.925-.676a2.463,2.463,0,0,0-.514.037Zm0,2.276a3.965,3.965,0,0,0,.477.022c.58,0,1.094-.22,1.094-.83,0-.572-.5-.807-1.123-.807H110.1Z" transform="translate(242.741 430.454)" fill="#00498a"/>
      <path id="Trazado_608279" data-name="Trazado 608279" d="M124.449,912.4h.9v4.191h2.033v.756h-2.936Z" transform="translate(231.728 430.357)" fill="#00498a"/>
      <path id="Trazado_608280" data-name="Trazado 608280" d="M140.261,915.155H138.4v1.453h2.085v.741h-2.987V912.4h2.877v.741H138.4v1.277h1.865Z" transform="translate(222.302 430.357)" fill="#00498a"/>
      <path id="Trazado_608281" data-name="Trazado 608281" d="M151.128,913.158h-1.409V912.4h3.736v.756h-1.424v4.192h-.9Z" transform="translate(213.469 430.357)" fill="#00498a"/>
      <path id="Trazado_608282" data-name="Trazado 608282" d="M391.481,961.468a7.824,7.824,0,0,1,1.38-.1,2.238,2.238,0,0,1,1.461.4,1.4,1.4,0,0,1,.484,1.094,1.5,1.5,0,0,1-.426,1.123,2.184,2.184,0,0,1-1.564.529,2.525,2.525,0,0,1-.441-.03v1.865h-.9Zm.9,2.305a1.837,1.837,0,0,0,.441.037c.675,0,1.086-.331,1.086-.91,0-.551-.382-.844-1.006-.844a2.484,2.484,0,0,0-.521.044Z" transform="translate(38.78 394.979)" fill="#00498a"/>
      <path id="Trazado_608283" data-name="Trazado 608283" d="M407.175,961.5v1.982h2.092V961.5h.9v4.948h-.9v-2.18h-2.092v2.18h-.9V961.5Z" transform="translate(28.094 394.883)" fill="#00498a"/>
      <path id="Trazado_608284" data-name="Trazado 608284" d="M427.773,963.71a2.339,2.339,0,0,1-2.371,2.606,2.286,2.286,0,0,1-2.276-2.518,2.368,2.368,0,0,1,2.349-2.591A2.285,2.285,0,0,1,427.773,963.71Zm-3.692.074c0,1.006.506,1.806,1.372,1.806s1.366-.808,1.366-1.843c0-.932-.462-1.813-1.366-1.813S424.081,962.763,424.081,963.784Z" transform="translate(15.915 395.093)" fill="#00498a"/>
      <path id="Trazado_608285" data-name="Trazado 608285" d="M442.682,966.446V961.5h1.028l1.277,2.122a13.579,13.579,0,0,1,.844,1.659h.015c-.059-.661-.081-1.3-.081-2.055V961.5h.837v4.948h-.932l-1.292-2.173a17.167,17.167,0,0,1-.888-1.71l-.022.007c.037.639.044,1.292.044,2.107v1.769Z" transform="translate(1.785 394.883)" fill="#00498a"/>
      <path id="Trazado_608286" data-name="Trazado 608286" d="M463.336,964.251h-1.865V965.7h2.085v.741h-2.987V961.5h2.877v.741h-1.975v1.277h1.865Z" transform="translate(-11.14 394.883)" fill="#00498a"/>
      <path id="Trazado_608287" data-name="Trazado 608287" d="M42.83,625.162a2.5,2.5,0,0,0,1.2.316c.58,0,.9-.272.9-.675,0-.374-.249-.595-.881-.822-.815-.293-1.336-.727-1.336-1.438,0-.807.675-1.424,1.747-1.424a2.61,2.61,0,0,1,1.189.25l-.22.727a2.1,2.1,0,0,0-.984-.235c-.573,0-.822.308-.822.595,0,.382.286.558.947.815.859.323,1.277.756,1.277,1.468,0,.793-.6,1.483-1.879,1.483a2.939,2.939,0,0,1-1.336-.308Z" transform="translate(290.846 640.829)" fill="#00498a"/>
      <path id="Trazado_608288" data-name="Trazado 608288" d="M61.011,624.337c-.029-.639-.066-1.409-.059-2.077H60.93c-.161.6-.367,1.27-.587,1.894l-.719,2.143h-.7l-.661-2.114c-.191-.631-.367-1.306-.5-1.923h-.015c-.022.646-.051,1.431-.088,2.107l-.11,1.989h-.844l.33-4.948h1.189l.646,1.989c.176.58.33,1.167.455,1.718h.022c.132-.536.3-1.145.492-1.725l.683-1.982H61.7l.286,4.948h-.881Z" transform="translate(280.674 640.619)" fill="#00498a"/>
      <path id="Trazado_608289" data-name="Trazado 608289" d="M78.917,624.954l-.426,1.4h-.932l1.586-4.948H80.3l1.607,4.948h-.969l-.448-1.4Zm1.417-.683-.389-1.219c-.1-.3-.176-.639-.249-.925h-.015c-.074.286-.147.631-.235.925l-.382,1.219Z" transform="translate(265.609 640.619)" fill="#00498a"/>
      <path id="Trazado_608290" data-name="Trazado 608290" d="M95.712,621.378a8.548,8.548,0,0,1,1.365-.1,2.294,2.294,0,0,1,1.527.4,1.253,1.253,0,0,1,.426.991,1.32,1.32,0,0,1-.9,1.241v.022a1.26,1.26,0,0,1,.69.954,9.865,9.865,0,0,0,.389,1.38h-.932a7.011,7.011,0,0,1-.33-1.167c-.14-.646-.375-.851-.888-.866h-.455v2.033h-.9Zm.9,2.187h.536c.609,0,.991-.323.991-.815,0-.543-.382-.793-.969-.793a2.564,2.564,0,0,0-.558.044Z" transform="translate(252.493 640.715)" fill="#00498a"/>
      <path id="Trazado_608291" data-name="Trazado 608291" d="M110.641,622.164h-1.409v-.756h3.736v.756h-1.424v4.192h-.9Z" transform="translate(242.724 640.619)" fill="#00498a"/>
      <path id="Trazado_608292" data-name="Trazado 608292" d="M124.791,621.378a7.807,7.807,0,0,1,1.38-.1,2.238,2.238,0,0,1,1.461.4,1.4,1.4,0,0,1,.484,1.094,1.5,1.5,0,0,1-.426,1.123,2.184,2.184,0,0,1-1.564.529,2.56,2.56,0,0,1-.441-.029v1.864h-.9Zm.9,2.3a1.815,1.815,0,0,0,.441.037c.675,0,1.086-.33,1.086-.91,0-.551-.382-.844-1.006-.844a2.482,2.482,0,0,0-.521.044Z" transform="translate(231.481 640.715)" fill="#00498a"/>
      <path id="Trazado_608293" data-name="Trazado 608293" d="M140.485,621.408v1.982h2.092v-1.982h.9v4.948h-.9v-2.18h-2.092v2.18h-.9v-4.948Z" transform="translate(220.794 640.619)" fill="#00498a"/>
      <path id="Trazado_608294" data-name="Trazado 608294" d="M161.083,623.62a2.339,2.339,0,0,1-2.371,2.606,2.286,2.286,0,0,1-2.276-2.518,2.368,2.368,0,0,1,2.349-2.591A2.285,2.285,0,0,1,161.083,623.62Zm-3.692.073c0,1.006.506,1.806,1.372,1.806s1.366-.808,1.366-1.843c0-.932-.463-1.813-1.366-1.813S157.391,622.673,157.391,623.694Z" transform="translate(208.615 640.829)" fill="#00498a"/>
      <path id="Trazado_608295" data-name="Trazado 608295" d="M175.991,626.356v-4.948h1.028l1.277,2.121a13.669,13.669,0,0,1,.844,1.659h.014c-.059-.661-.081-1.3-.081-2.055v-1.725h.837v4.948h-.932l-1.292-2.173a17.223,17.223,0,0,1-.888-1.71l-.022.008c.037.639.044,1.292.044,2.107v1.769Z" transform="translate(194.486 640.619)" fill="#00498a"/>
      <path id="Trazado_608296" data-name="Trazado 608296" d="M196.646,624.161h-1.864v1.453h2.085v.741h-2.987v-4.948h2.877v.741h-1.975v1.278h1.864Z" transform="translate(181.561 640.619)" fill="#00498a"/>
      <path id="Trazado_608297" data-name="Trazado 608297" d="M206.91,625.162a2.5,2.5,0,0,0,1.2.316c.58,0,.9-.272.9-.675,0-.374-.249-.595-.881-.822-.815-.293-1.336-.727-1.336-1.438,0-.807.675-1.424,1.747-1.424a2.61,2.61,0,0,1,1.189.25l-.22.727a2.1,2.1,0,0,0-.984-.235c-.573,0-.822.308-.822.595,0,.382.286.558.947.815.859.323,1.277.756,1.277,1.468,0,.793-.6,1.483-1.879,1.483a2.939,2.939,0,0,1-1.336-.308Z" transform="translate(172.288 640.829)" fill="#00498a"/>
      <path id="Trazado_608298" data-name="Trazado 608298" d="M200.138,467.483h-1.409v-.756h3.736v.756h-1.424v4.192h-.9Z" transform="translate(178.057 752.386)" fill="#00498a"/>
      <path id="Trazado_608299" data-name="Trazado 608299" d="M215.094,471.675l-1.6-4.948h.983l.676,2.246c.191.624.352,1.2.484,1.806h.015c.132-.587.308-1.189.507-1.791l.719-2.261h.962l-1.71,4.948Z" transform="translate(167.388 752.386)" fill="#00498a"/>
      <path id="Trazado_608300" data-name="Trazado 608300" d="M601.131,412.6a2.588,2.588,0,0,0,1.239.327c.6,0,.935-.281.935-.7,0-.387-.259-.615-.912-.851-.843-.3-1.383-.752-1.383-1.489,0-.836.7-1.474,1.809-1.474a2.707,2.707,0,0,1,1.231.258l-.228.752a2.168,2.168,0,0,0-1.018-.243c-.593,0-.851.319-.851.615,0,.4.3.578.98.844.889.334,1.322.783,1.322,1.52,0,.821-.623,1.535-1.945,1.535a3.044,3.044,0,0,1-1.383-.319Z" transform="translate(-112.556 794.52)" fill="#00498a"/>
      <path id="Trazado_608301" data-name="Trazado 608301" d="M615.679,413.838l-1.254-5.122h1l.486,2.325c.129.623.251,1.277.334,1.786h.015c.084-.54.228-1.147.372-1.793l.555-2.318h.98l.509,2.356c.129.608.236,1.178.312,1.733H619c.091-.562.213-1.147.35-1.771l.532-2.318h.95l-1.376,5.122h-1l-.532-2.409a14.545,14.545,0,0,1-.281-1.626h-.015c-.091.547-.19,1.041-.342,1.626l-.593,2.409Z" transform="translate(-122.31 794.302)" fill="#00498a"/>
      <path id="Trazado_608302" data-name="Trazado 608302" d="M640.689,408.716v5.122h-.934v-5.122Z" transform="translate(-140.612 794.302)" fill="#00498a"/>
      <path id="Trazado_608303" data-name="Trazado 608303" d="M646.717,409.5h-1.459v-.783h3.868v.783h-1.474v4.339h-.935Z" transform="translate(-144.589 794.302)" fill="#00498a"/>
      <path id="Trazado_608304" data-name="Trazado 608304" d="M663.57,413.468a3.24,3.24,0,0,1-1.322.228,2.416,2.416,0,0,1-2.614-2.576,2.576,2.576,0,0,1,2.736-2.705,2.948,2.948,0,0,1,1.246.228l-.205.745a2.486,2.486,0,0,0-1-.2,1.706,1.706,0,0,0-1.794,1.884,1.681,1.681,0,0,0,1.786,1.847,2.621,2.621,0,0,0,1.018-.19Z" transform="translate(-154.976 794.52)" fill="#00498a"/>
      <path id="Trazado_608305" data-name="Trazado 608305" d="M677.628,408.716v2.052h2.166v-2.052h.934v5.122h-.934v-2.257h-2.166v2.257h-.934v-5.122Z" transform="translate(-167.303 794.302)" fill="#00498a"/>
      <path id="Trazado_608306" data-name="Trazado 608306" d="M406.326,476.335c-.026-.566-.059-1.249-.052-1.841h-.019c-.143.534-.325,1.126-.521,1.679l-.638,1.9h-.618l-.585-1.874c-.169-.56-.325-1.158-.442-1.7h-.013c-.02.572-.046,1.268-.078,1.867l-.1,1.764h-.748l.293-4.385h1.054l.573,1.763c.156.514.293,1.035.4,1.523h.019c.117-.475.267-1.015.436-1.53l.605-1.756h1.041l.254,4.385h-.781Z" transform="translate(30.81 747.319)" fill="#00498a"/>
      <path id="Trazado_608307" data-name="Trazado 608307" d="M424.755,476.179H423.1v1.288h1.848v.657H422.3v-4.385h2.55v.657H423.1v1.132h1.652Z" transform="translate(16.511 747.319)" fill="#00498a"/>
      <path id="Trazado_608308" data-name="Trazado 608308" d="M434.381,474.409h-1.249v-.67h3.312v.67h-1.262v3.715h-.8Z" transform="translate(8.686 747.319)" fill="#00498a"/>
      <path id="Trazado_608309" data-name="Trazado 608309" d="M445.239,476.882l-.378,1.243h-.826l1.406-4.385h1.021l1.425,4.385h-.859l-.4-1.243Zm1.256-.6-.345-1.08c-.085-.267-.156-.566-.221-.82h-.013c-.065.254-.13.56-.208.82l-.338,1.08Z" transform="translate(0.808 747.319)" fill="#00498a"/>
      <path id="Trazado_608310" data-name="Trazado 608310" d="M460.119,473.739h.8v3.715h1.8v.67h-2.6Z" transform="translate(-10.814 747.319)" fill="#00498a"/>
      <path id="Trazado_608311" data-name="Trazado 608311" d="M471.25,473.739h.8v3.715h1.8v.67h-2.6Z" transform="translate(-18.857 747.319)" fill="#00498a"/>
      <path id="Trazado_608312" data-name="Trazado 608312" d="M483.608,473.739v4.385h-.8v-4.385Z" transform="translate(-27.208 747.319)" fill="#00498a"/>
      <path id="Trazado_608313" data-name="Trazado 608313" d="M491.547,477.808a2.765,2.765,0,0,1-1.132.2,2.069,2.069,0,0,1-2.238-2.206,2.206,2.206,0,0,1,2.342-2.316,2.518,2.518,0,0,1,1.067.2l-.176.638a2.127,2.127,0,0,0-.859-.169,1.46,1.46,0,0,0-1.535,1.614,1.44,1.44,0,0,0,1.529,1.581,2.244,2.244,0,0,0,.872-.163Z" transform="translate(-31.088 747.505)" fill="#00498a"/>
      <path id="Trazado_608314" data-name="Trazado 608314" d="M551.473,891.771a8.076,8.076,0,0,1,1.428-.106,2.317,2.317,0,0,1,1.512.418,1.446,1.446,0,0,1,.5,1.132,1.551,1.551,0,0,1-.441,1.162,2.26,2.26,0,0,1-1.619.547,2.643,2.643,0,0,1-.456-.03v1.93h-.927Zm.927,2.386a1.881,1.881,0,0,0,.456.038c.7,0,1.125-.342,1.125-.942,0-.57-.4-.874-1.041-.874a2.581,2.581,0,0,0-.54.046Z" transform="translate(-76.823 445.343)" fill="#00498a"/>
      <path id="Trazado_608315" data-name="Trazado 608315" d="M569.756,896.553a3.239,3.239,0,0,1-1.322.228,2.416,2.416,0,0,1-2.614-2.576,2.576,2.576,0,0,1,2.736-2.705,2.948,2.948,0,0,1,1.246.228l-.205.745a2.487,2.487,0,0,0-1-.2,1.705,1.705,0,0,0-1.793,1.884,1.681,1.681,0,0,0,1.786,1.847,2.619,2.619,0,0,0,1.018-.19Z" transform="translate(-87.189 445.461)" fill="#00498a"/>
    </g>
  </g>
</svg>
