<svg xmlns="http://www.w3.org/2000/svg" width="60" height="60" viewBox="0 0 60 60">
  <g id="Grupo_894055" data-name="Grupo 894055" transform="translate(-915 -1854)">
    <path id="Trazado_622317" data-name="Trazado 622317" d="M30,0A30,30,0,1,1,0,30,30,30,0,0,1,30,0Z" transform="translate(915 1854)" fill="#fecb2f"/>
    <path id="Trazado_622318" data-name="Trazado 622318" d="M16.187,31H1.3V27.777L8.159,20.57q2.534-2.886,2.534-4.585a3.189,3.189,0,0,0-.6-2.095,2.144,2.144,0,0,0-1.743-.718,2.171,2.171,0,0,0-1.831.959,3.943,3.943,0,0,0-.7,2.4H.864A7,7,0,0,1,1.846,12.9,6.882,6.882,0,0,1,4.57,10.3a8.094,8.094,0,0,1,3.9-.937,7.962,7.962,0,0,1,5.325,1.6,5.7,5.7,0,0,1,1.868,4.585A6.658,6.658,0,0,1,15.19,18a10.76,10.76,0,0,1-1.458,2.5,36.715,36.715,0,0,1-3.186,3.508L7.793,27.191h8.394Z" transform="translate(936 1867)" fill="#fff"/>
  </g>
</svg>
