<svg xmlns="http://www.w3.org/2000/svg" xmlns:xlink="http://www.w3.org/1999/xlink" width="193" height="214" viewBox="0 0 193 214">
  <defs>
    <filter id="Trazado_622305" x="0" y="0" width="193" height="214" filterUnits="userSpaceOnUse">
      <feOffset dy="5" input="SourceAlpha"/>
      <feGaussianBlur stdDeviation="3" result="blur"/>
      <feFlood flood-opacity="0.161"/>
      <feComposite operator="in" in2="blur"/>
      <feComposite in="SourceGraphic"/>
    </filter>
  </defs>
  <g id="Grupo_894048" data-name="Grupo 894048" transform="translate(-256 -3444)">
    <g transform="matrix(1, 0, 0, 1, 256, 3444)" filter="url(#Trazado_622305)">
      <g id="Trazado_622305-2" data-name="Trazado 622305" transform="translate(9 4)" fill="#fdfdfd" stroke-linecap="round">
        <path d="M 155 194 L 20 194 C 15.19202613830566 194 10.67184257507324 192.127685546875 7.272078990936279 188.7279205322266 C 3.872315883636475 185.3281860351562 2 180.8079681396484 2 176 L 2 20 C 2 15.19202613830566 3.872315883636475 10.67184257507324 7.272078990936279 7.272078990936279 C 10.67184257507324 3.872315883636475 15.19202613830566 2 20 2 L 155 2 C 159.8079681396484 2 164.3281860351562 3.872315883636475 167.7279205322266 7.272078990936279 C 171.127685546875 10.67184257507324 173 15.19202613830566 173 20 L 173 176 C 173 180.8079681396484 171.127685546875 185.3281860351562 167.7279205322266 188.7279205322266 C 164.3281860351562 192.127685546875 159.8079681396484 194 155 194 Z" stroke="none"/>
        <path d="M 20 4 C 15.72625732421875 4 11.70831298828125 5.664276123046875 8.686309814453125 8.686309814453125 C 5.664276123046875 11.70831298828125 4 15.72625732421875 4 20 L 4 176 C 4 180.2737426757812 5.664276123046875 184.2916870117188 8.686309814453125 187.3136901855469 C 11.70831298828125 190.3357238769531 15.72625732421875 192 20 192 L 155 192 C 159.2737426757812 192 163.2916870117188 190.3357238769531 166.3136901855469 187.3136901855469 C 169.3357238769531 184.2916870117188 171 180.2737426757812 171 176 L 171 20 C 171 15.72625732421875 169.3357238769531 11.70831298828125 166.3136901855469 8.686309814453125 C 163.2916870117188 5.664276123046875 159.2737426757812 4 155 4 L 20 4 M 20 0 L 155 0 C 166.0457000732422 0 175 8.954299926757812 175 20 L 175 176 C 175 187.0457000732422 166.0457000732422 196 155 196 L 20 196 C 8.954299926757812 196 0 187.0457000732422 0 176 L 0 20 C 0 8.954299926757812 8.954299926757812 0 20 0 Z" stroke="none" fill="#f6cc53"/>
      </g>
    </g>
    <path id="Trazado_622306" data-name="Trazado 622306" d="M23.465,17a3.036,3.036,0,0,1-.2-.891,3.225,3.225,0,0,1-2.406,1.047,2.984,2.984,0,0,1-2.051-.707,2.287,2.287,0,0,1-.8-1.793,2.39,2.39,0,0,1,1-2.051,4.733,4.733,0,0,1,2.824-.73h1.406v-.664A1.623,1.623,0,0,0,22.785,10a1.821,1.821,0,0,0-1.336-.449,2.107,2.107,0,0,0-1.3.391,1.151,1.151,0,0,0-.523.945H18.176a2,2,0,0,1,.449-1.223,3.066,3.066,0,0,1,1.219-.934,4.1,4.1,0,0,1,1.691-.344,3.342,3.342,0,0,1,2.289.73,2.635,2.635,0,0,1,.859,2.012v3.891a4.757,4.757,0,0,0,.3,1.852V17Zm-2.4-1.1a2.54,2.54,0,0,0,1.289-.352,2.127,2.127,0,0,0,.883-.914V12.9H22.105q-2.656,0-2.656,1.555a1.316,1.316,0,0,0,.453,1.063A1.742,1.742,0,0,0,21.066,15.9Zm5.914.344a.905.905,0,0,1,.223-.625.848.848,0,0,1,.668-.25.874.874,0,0,1,.676.25.887.887,0,0,1,.23.625.839.839,0,0,1-.23.6.89.89,0,0,1-.676.242.8.8,0,0,1-.891-.844Zm16.734-2.852a4.185,4.185,0,0,1-1.332,2.785,4.365,4.365,0,0,1-2.98.98,4.008,4.008,0,0,1-3.23-1.445,5.815,5.815,0,0,1-1.215-3.867V10.75a6.481,6.481,0,0,1,.566-2.789,4.231,4.231,0,0,1,1.605-1.848,4.47,4.47,0,0,1,2.406-.645A4.11,4.11,0,0,1,42.441,6.48a4.235,4.235,0,0,1,1.273,2.8H42.207a3.268,3.268,0,0,0-.848-1.975A2.565,2.565,0,0,0,39.535,6.7a2.684,2.684,0,0,0-2.254,1.063,4.882,4.882,0,0,0-.816,3.026v1.1a5.018,5.018,0,0,0,.773,2.948A2.5,2.5,0,0,0,39.4,15.93a2.887,2.887,0,0,0,1.918-.566,3.143,3.143,0,0,0,.887-1.973ZM47.105,17H45.66V5h1.445Zm3.883,0H49.543V8.547h1.445ZM49.426,6.3a.863.863,0,0,1,.215-.594.807.807,0,0,1,.637-.242.819.819,0,0,1,.641.242.854.854,0,0,1,.219.594.826.826,0,0,1-.219.586.834.834,0,0,1-.641.234.821.821,0,0,1-.637-.234A.834.834,0,0,1,49.426,6.3Zm7.383,10.852a3.693,3.693,0,0,1-2.8-1.129,4.19,4.19,0,0,1-1.078-3.02v-.266a5.073,5.073,0,0,1,.48-2.246,3.748,3.748,0,0,1,1.344-1.547,3.378,3.378,0,0,1,1.871-.559,3.166,3.166,0,0,1,2.563,1.086,4.7,4.7,0,0,1,.914,3.109v.6H54.379a3,3,0,0,0,.73,2.02,2.3,2.3,0,0,0,1.777.77,2.517,2.517,0,0,0,1.3-.312,3.259,3.259,0,0,0,.93-.828l.883.688A3.55,3.55,0,0,1,56.809,17.156Zm-.18-7.578a1.928,1.928,0,0,0-1.469.637A3.1,3.1,0,0,0,54.426,12H58.66v-.109a2.753,2.753,0,0,0-.594-1.707A1.815,1.815,0,0,0,56.629,9.578Zm6.516-1.031.047,1.063a3.08,3.08,0,0,1,2.531-1.219q2.68,0,2.7,3.023V17H66.98V11.406a1.946,1.946,0,0,0-.418-1.352,1.675,1.675,0,0,0-1.277-.437,2.086,2.086,0,0,0-1.234.375,2.546,2.546,0,0,0-.828.984V17H61.777V8.547ZM72.566,6.5V8.547h1.578V9.664H72.566v5.249a1.173,1.173,0,0,0,.211.763.888.888,0,0,0,.719.254,3.5,3.5,0,0,0,.688-.094V17a4.215,4.215,0,0,1-1.109.155,1.8,1.8,0,0,1-1.461-.586,2.517,2.517,0,0,1-.492-1.664V9.664H69.582V8.547h1.539V6.5ZM79.34,17.156a3.693,3.693,0,0,1-2.8-1.129,4.19,4.19,0,0,1-1.078-3.02v-.266a5.073,5.073,0,0,1,.48-2.246,3.748,3.748,0,0,1,1.344-1.547,3.378,3.378,0,0,1,1.871-.559,3.166,3.166,0,0,1,2.563,1.086,4.7,4.7,0,0,1,.914,3.109v.6H76.91a3,3,0,0,0,.73,2.02,2.3,2.3,0,0,0,1.777.77,2.517,2.517,0,0,0,1.3-.312,3.259,3.259,0,0,0,.93-.828l.883.688A3.55,3.55,0,0,1,79.34,17.156Zm-.18-7.578a1.928,1.928,0,0,0-1.469.637A3.1,3.1,0,0,0,76.957,12h4.234v-.109a2.753,2.753,0,0,0-.594-1.707A1.815,1.815,0,0,0,79.16,9.578Zm8.156,3.18H83.5v-1.18h3.813ZM92.3,11.93a7.053,7.053,0,0,1-2.809-1.363,2.6,2.6,0,0,1-.879-2,2.751,2.751,0,0,1,1.074-2.223,4.269,4.269,0,0,1,2.793-.879,4.66,4.66,0,0,1,2.09.453,3.436,3.436,0,0,1,1.422,1.25,3.2,3.2,0,0,1,.5,1.742H94.988a2.08,2.08,0,0,0-.656-1.627A2.669,2.669,0,0,0,92.48,6.7a2.732,2.732,0,0,0-1.73.489,1.632,1.632,0,0,0-.621,1.358,1.468,1.468,0,0,0,.59,1.178,5.785,5.785,0,0,0,2.008.88,9.316,9.316,0,0,1,2.219.88A3.367,3.367,0,0,1,96.133,12.6a2.861,2.861,0,0,1,.387,1.508,2.658,2.658,0,0,1-1.078,2.215,4.6,4.6,0,0,1-2.883.832,5.347,5.347,0,0,1-2.187-.449,3.681,3.681,0,0,1-1.566-1.23,3,3,0,0,1-.551-1.773h1.508a1.959,1.959,0,0,0,.762,1.629,3.207,3.207,0,0,0,2.035.6,2.948,2.948,0,0,0,1.82-.484,1.573,1.573,0,0,0,.633-1.32,1.545,1.545,0,0,0-.586-1.293A6.755,6.755,0,0,0,92.3,11.93Zm9.422,5.227a3.693,3.693,0,0,1-2.8-1.129,4.19,4.19,0,0,1-1.078-3.02v-.266a5.073,5.073,0,0,1,.48-2.246,3.748,3.748,0,0,1,1.344-1.547,3.378,3.378,0,0,1,1.871-.559,3.166,3.166,0,0,1,2.563,1.086,4.7,4.7,0,0,1,.914,3.109v.6H99.293a3,3,0,0,0,.73,2.02,2.3,2.3,0,0,0,1.777.77,2.517,2.517,0,0,0,1.3-.312,3.259,3.259,0,0,0,.93-.828l.883.688A3.55,3.55,0,0,1,101.723,17.156Zm-.18-7.578a1.928,1.928,0,0,0-1.469.637A3.1,3.1,0,0,0,99.34,12h4.234v-.109a2.753,2.753,0,0,0-.594-1.707A1.815,1.815,0,0,0,101.543,9.578Zm9.234.266a4.331,4.331,0,0,0-.711-.055A1.9,1.9,0,0,0,108.137,11v6h-1.445V8.547H108.1l.023.977a2.251,2.251,0,0,1,2.016-1.133,1.477,1.477,0,0,1,.641.109Zm4.258,5.2,2.094-6.492h1.477L115.574,17h-1.1L111.41,8.547h1.477ZM121.566,17h-1.445V8.547h1.445ZM120,6.3a.863.863,0,0,1,.215-.594.807.807,0,0,1,.637-.242.819.819,0,0,1,.641.242.854.854,0,0,1,.219.594.826.826,0,0,1-.219.586.834.834,0,0,1-.641.234.821.821,0,0,1-.637-.234A.834.834,0,0,1,120,6.3Zm3.523,6.4a4.952,4.952,0,0,1,.922-3.129,3.137,3.137,0,0,1,4.766-.168V5h1.445V17h-1.328l-.07-.906a2.943,2.943,0,0,1-2.414,1.063,2.887,2.887,0,0,1-2.395-1.2,5.008,5.008,0,0,1-.926-3.141Zm1.445.164a3.749,3.749,0,0,0,.594,2.25,1.92,1.92,0,0,0,1.641.813,2.108,2.108,0,0,0,2.008-1.234V10.813a2.125,2.125,0,0,0-1.992-1.2,1.929,1.929,0,0,0-1.656.82A4.128,4.128,0,0,0,124.973,12.867Zm7.547-.172a4.993,4.993,0,0,1,.488-2.234,3.642,3.642,0,0,1,1.359-1.531,3.7,3.7,0,0,1,1.988-.539,3.565,3.565,0,0,1,2.793,1.2,4.6,4.6,0,0,1,1.066,3.18v.1a5.036,5.036,0,0,1-.473,2.215,3.589,3.589,0,0,1-1.352,1.527,3.743,3.743,0,0,1-2.02.547,3.556,3.556,0,0,1-2.785-1.2A4.575,4.575,0,0,1,132.52,12.8Zm1.453.172a3.616,3.616,0,0,0,.652,2.258,2.211,2.211,0,0,0,3.5-.012,3.954,3.954,0,0,0,.648-2.418,3.61,3.61,0,0,0-.66-2.254,2.1,2.1,0,0,0-1.754-.863,2.075,2.075,0,0,0-1.727.852A3.925,3.925,0,0,0,133.973,12.867Zm12.141-3.023a4.331,4.331,0,0,0-.711-.055A1.9,1.9,0,0,0,143.473,11v6h-1.445V8.547h1.406l.023.977a2.251,2.251,0,0,1,2.016-1.133,1.477,1.477,0,0,1,.641.109Z" transform="translate(267 3561.624)" fill="#12263f"/>
    <g id="Grupo_893975" data-name="Grupo 893975" transform="translate(317 3475.881)">
      <g id="Grupo_891631" data-name="Grupo 891631" transform="translate(45.608 20.159)">
        <g id="Grupo_891630" data-name="Grupo 891630">
          <g id="Grupo_891629" data-name="Grupo 891629">
            <g id="Grupo_891628" data-name="Grupo 891628">
              <path id="Trazado_621053" data-name="Trazado 621053" d="M-791.277,1432.544a4.664,4.664,0,0,1,.719-.817l2.087-2.1c1.777-1.756,4.253-4.156,7.01-6.784l.063-.06,0,.355c-2.777-2.58-5.27-4.932-7.057-6.651l-2.1-2.054a4.582,4.582,0,0,1-.725-.8,4.58,4.58,0,0,1,.852.663l2.2,1.941c1.847,1.655,4.377,3.967,7.155,6.546l.189.176-.187.179-.063.06c-2.756,2.629-5.27,4.989-7.107,6.68l-2.193,1.984A4.72,4.72,0,0,1-791.277,1432.544Z" transform="translate(791.279 -1413.633)" fill="#f6cc53" stroke="#db4d79" stroke-linecap="round" stroke-linejoin="round" stroke-width="3"/>
            </g>
          </g>
        </g>
      </g>
      <g id="Grupo_891635" data-name="Grupo 891635" transform="translate(13.775 20.159)">
        <g id="Grupo_891634" data-name="Grupo 891634">
          <g id="Grupo_891633" data-name="Grupo 891633">
            <g id="Grupo_891632" data-name="Grupo 891632">
              <path id="Trazado_621054" data-name="Trazado 621054" d="M-815.4,1413.633a4.74,4.74,0,0,1-.72.817l-2.086,2.1c-1.777,1.755-4.253,4.155-7.01,6.784l-.063.06,0-.355c2.777,2.579,5.269,4.933,7.057,6.652l2.1,2.053a4.7,4.7,0,0,1,.725.8,4.7,4.7,0,0,1-.852-.663l-2.2-1.942c-1.846-1.654-4.376-3.967-7.154-6.546l-.19-.175.188-.179.063-.06c2.756-2.629,5.27-4.989,7.107-6.681l2.193-1.984A4.692,4.692,0,0,1-815.4,1413.633Z" transform="translate(825.804 -1413.632)" fill="#f6cc53" stroke="#db4d79" stroke-linecap="round" stroke-linejoin="round" stroke-width="3"/>
            </g>
          </g>
        </g>
      </g>
      <g id="Grupo_891639" data-name="Grupo 891639" transform="translate(29.671 15.445)">
        <g id="Grupo_891638" data-name="Grupo 891638">
          <g id="Grupo_891637" data-name="Grupo 891637">
            <g id="Grupo_891636" data-name="Grupo 891636">
              <path id="Trazado_621055" data-name="Trazado 621055" d="M-808.558,1436.6c-.125-.047,2.125-6.371,5.025-14.124s5.353-14,5.479-13.955-2.124,6.37-5.026,14.126S-808.433,1436.645-808.558,1436.6Z" transform="translate(808.563 -1408.518)" fill="#f6cc53" stroke="#db4d79" stroke-linecap="round" stroke-linejoin="round" stroke-width="3"/>
            </g>
          </g>
        </g>
      </g>
      <g id="Grupo_891643" data-name="Grupo 891643">
        <g id="Grupo_891642" data-name="Grupo 891642">
          <g id="Grupo_891641" data-name="Grupo 891641">
            <g id="Grupo_891640" data-name="Grupo 891640">
              <path id="Trazado_621056" data-name="Trazado 621056" d="M-770.776,1448.825s-.015-.367-.022-1.057-.013-1.72-.023-3.043c-.012-2.671-.03-6.563-.053-11.522-.025-9.92-.061-24.1-.1-41.19l.2.2-69.719.04h-.006l.242-.243c-.009,20.538-.019,39.933-.026,56.813l-.216-.217,50.347.109c6.123.023,10.953.043,14.271.057l3.788.026.979.012c.221,0,.34.013.34.013s-.1.008-.315.013l-.955.012-3.745.026-14.222.058-50.488.109h-.216v-.217c-.008-16.879-.017-36.275-.027-56.813v-.243h.249l69.719.041h.2v.2c-.043,17.146-.079,31.367-.105,41.317-.022,4.94-.04,8.816-.052,11.477-.01,1.306-.017,2.309-.023,3C-770.761,1448.487-770.776,1448.825-770.776,1448.825Z" transform="translate(840.744 -1391.769)" fill="#f6cc53" stroke="#db4d79" stroke-linecap="round" stroke-linejoin="round" stroke-width="1"/>
            </g>
          </g>
        </g>
      </g>
      <g id="Grupo_891647" data-name="Grupo 891647" transform="translate(0.212 8.43)">
        <g id="Grupo_891646" data-name="Grupo 891646">
          <g id="Grupo_891645" data-name="Grupo 891645">
            <g id="Grupo_891644" data-name="Grupo 891644">
              <path id="Trazado_621057" data-name="Trazado 621057" d="M-770.213,1401.155c0,.134-15.739.242-35.149.242s-35.153-.109-35.153-.242,15.735-.243,35.153-.243S-770.213,1401.02-770.213,1401.155Z" transform="translate(840.514 -1400.911)" fill="#f6cc53" stroke="#db4d79" stroke-linecap="round" stroke-linejoin="round" stroke-width="1"/>
            </g>
          </g>
        </g>
      </g>
      <g id="Grupo_891657" data-name="Grupo 891657" transform="translate(4.055 3.585)">
        <g id="Grupo_891650" data-name="Grupo 891650">
          <g id="Grupo_891649" data-name="Grupo 891649">
            <g id="Grupo_891648" data-name="Grupo 891648">
              <path id="Trazado_621058" data-name="Trazado 621058" d="M-834.468,1396.6a.941.941,0,0,1-.939.943.941.941,0,0,1-.94-.943.94.94,0,0,1,.94-.942A.94.94,0,0,1-834.468,1396.6Z" transform="translate(836.346 -1395.656)" fill="#f6cc53" stroke="#db4d79" stroke-linecap="round" stroke-linejoin="round" stroke-width="1"/>
            </g>
          </g>
        </g>
        <g id="Grupo_891653" data-name="Grupo 891653" transform="translate(3.423)">
          <g id="Grupo_891652" data-name="Grupo 891652">
            <g id="Grupo_891651" data-name="Grupo 891651">
              <path id="Trazado_621059" data-name="Trazado 621059" d="M-830.757,1396.6a.941.941,0,0,1-.939.943.941.941,0,0,1-.939-.943.94.94,0,0,1,.939-.942A.94.94,0,0,1-830.757,1396.6Z" transform="translate(832.634 -1395.656)" fill="#f6cc53" stroke="#db4d79" stroke-linecap="round" stroke-linejoin="round" stroke-width="1"/>
            </g>
          </g>
        </g>
        <g id="Grupo_891656" data-name="Grupo 891656" transform="translate(6.844)">
          <g id="Grupo_891655" data-name="Grupo 891655">
            <g id="Grupo_891654" data-name="Grupo 891654">
              <path id="Trazado_621060" data-name="Trazado 621060" d="M-827.046,1396.6a.94.94,0,0,1-.939.943.941.941,0,0,1-.939-.943.94.94,0,0,1,.939-.942A.939.939,0,0,1-827.046,1396.6Z" transform="translate(828.923 -1395.656)" fill="#f6cc53" stroke="#db4d79" stroke-linecap="round" stroke-linejoin="round" stroke-width="1"/>
            </g>
          </g>
        </g>
      </g>
    </g>
  </g>
</svg>
