<svg xmlns="http://www.w3.org/2000/svg" xmlns:xlink="http://www.w3.org/1999/xlink" width="193" height="214" viewBox="0 0 193 214">
  <defs>
    <filter id="Trazado_622307" x="0" y="0" width="193" height="214" filterUnits="userSpaceOnUse">
      <feOffset dy="5" input="SourceAlpha"/>
      <feGaussianBlur stdDeviation="3" result="blur"/>
      <feFlood flood-opacity="0.161"/>
      <feComposite operator="in" in2="blur"/>
      <feComposite in="SourceGraphic"/>
    </filter>
  </defs>
  <g id="Grupo_894049" data-name="Grupo 894049" transform="translate(-480 -3444)">
    <g transform="matrix(1, 0, 0, 1, 480, 3444)" filter="url(#Trazado_622307)">
      <g id="Trazado_622307-2" data-name="Trazado 622307" transform="translate(9 4)" fill="#fdfdfd" stroke-linecap="round">
        <path d="M 155 194 L 20 194 C 15.19202613830566 194 10.67184257507324 192.127685546875 7.272078990936279 188.7279205322266 C 3.872315883636475 185.3281860351562 2 180.8079681396484 2 176 L 2 20 C 2 15.19202613830566 3.872315883636475 10.67184257507324 7.272078990936279 7.272078990936279 C 10.67184257507324 3.872315883636475 15.19202613830566 2 20 2 L 155 2 C 159.8079681396484 2 164.3281860351562 3.872315883636475 167.7279205322266 7.272078990936279 C 171.127685546875 10.67184257507324 173 15.19202613830566 173 20 L 173 176 C 173 180.8079681396484 171.127685546875 185.3281860351562 167.7279205322266 188.7279205322266 C 164.3281860351562 192.127685546875 159.8079681396484 194 155 194 Z" stroke="none"/>
        <path d="M 20 4 C 15.72625732421875 4 11.70831298828125 5.664276123046875 8.686309814453125 8.686309814453125 C 5.664276123046875 11.70831298828125 4 15.72625732421875 4 20 L 4 176 C 4 180.2737426757812 5.664276123046875 184.2916870117188 8.686309814453125 187.3136901855469 C 11.70831298828125 190.3357238769531 15.72625732421875 192 20 192 L 155 192 C 159.2737426757812 192 163.2916870117188 190.3357238769531 166.3136901855469 187.3136901855469 C 169.3357238769531 184.2916870117188 171 180.2737426757812 171 176 L 171 20 C 171 15.72625732421875 169.3357238769531 11.70831298828125 166.3136901855469 8.686309814453125 C 163.2916870117188 5.664276123046875 159.2737426757812 4 155 4 L 20 4 M 20 0 L 155 0 C 166.0457000732422 0 175 8.954299926757812 175 20 L 175 176 C 175 187.0457000732422 166.0457000732422 196 155 196 L 20 196 C 8.954299926757812 196 0 187.0457000732422 0 176 L 0 20 C 0 8.954299926757812 8.954299926757812 0 20 0 Z" stroke="none" fill="#63c8af"/>
      </g>
    </g>
    <path id="Trazado_622308" data-name="Trazado 622308" d="M23.9,12.867a5.026,5.026,0,0,1-.891,3.113,2.846,2.846,0,0,1-2.391,1.176,2.947,2.947,0,0,1-2.477-1.133L18.07,17H16.742V5h1.445V9.477A2.93,2.93,0,0,1,20.6,8.391,2.863,2.863,0,0,1,23.02,9.555a5.177,5.177,0,0,1,.879,3.188ZM22.453,12.7a3.906,3.906,0,0,0-.57-2.281,1.888,1.888,0,0,0-1.641-.8,2.122,2.122,0,0,0-2.055,1.328V14.6a2.181,2.181,0,0,0,2.07,1.328,1.878,1.878,0,0,0,1.617-.8A4.153,4.153,0,0,0,22.453,12.7Zm3.3,3.539a.905.905,0,0,1,.223-.625.848.848,0,0,1,.668-.25.874.874,0,0,1,.676.25.887.887,0,0,1,.23.625.839.839,0,0,1-.23.6.89.89,0,0,1-.676.242.8.8,0,0,1-.891-.844ZM40.4,14.023H35.633L34.563,17H33.016L37.359,5.625h1.313L43.023,17H41.484ZM36.086,12.8h3.867l-1.937-5.32ZM48.414,9.844a4.331,4.331,0,0,0-.711-.055A1.9,1.9,0,0,0,45.773,11v6H44.328V8.547h1.406l.023.977a2.251,2.251,0,0,1,2.016-1.133,1.477,1.477,0,0,1,.641.109Zm.977,2.859A4.961,4.961,0,0,1,50.3,9.551a3.226,3.226,0,0,1,4.82-.152l.063-.852h1.328v11.7H55.07V16.219a3.033,3.033,0,0,1-2.328.938A2.915,2.915,0,0,1,50.3,15.965a5.072,5.072,0,0,1-.91-3.16Zm1.445.164a3.761,3.761,0,0,0,.613,2.281,1.951,1.951,0,0,0,1.652.828,2.164,2.164,0,0,0,1.969-1.141V10.7a2.171,2.171,0,0,0-1.953-1.117,1.965,1.965,0,0,0-1.664.832A4.094,4.094,0,0,0,50.836,12.867Zm13.219,3.3a3.07,3.07,0,0,1-2.477.992,2.628,2.628,0,0,1-2.059-.785,3.4,3.4,0,0,1-.715-2.324v-5.5H60.25v5.461q0,1.922,1.563,1.922a2.163,2.163,0,0,0,2.2-1.234V8.547h1.445V17H64.086ZM69.227,17H67.781V8.547h1.445ZM67.664,6.3a.863.863,0,0,1,.215-.594.807.807,0,0,1,.637-.242.819.819,0,0,1,.641.242.854.854,0,0,1,.219.594.826.826,0,0,1-.219.586.834.834,0,0,1-.641.234.821.821,0,0,1-.637-.234A.834.834,0,0,1,67.664,6.3Zm5.836.2V8.547h1.578V9.664H73.5v5.249a1.173,1.173,0,0,0,.211.763.888.888,0,0,0,.719.254,3.5,3.5,0,0,0,.688-.094V17a4.215,4.215,0,0,1-1.109.155,1.8,1.8,0,0,1-1.461-.586,2.517,2.517,0,0,1-.492-1.664V9.664H70.516V8.547h1.539V6.5Zm6.773,10.656a3.693,3.693,0,0,1-2.8-1.129,4.19,4.19,0,0,1-1.078-3.02v-.266a5.073,5.073,0,0,1,.48-2.246,3.748,3.748,0,0,1,1.344-1.547,3.378,3.378,0,0,1,1.871-.559,3.166,3.166,0,0,1,2.563,1.086,4.7,4.7,0,0,1,.914,3.109v.6H77.844a3,3,0,0,0,.73,2.02,2.3,2.3,0,0,0,1.777.77,2.517,2.517,0,0,0,1.3-.312,3.259,3.259,0,0,0,.93-.828l.883.688A3.55,3.55,0,0,1,80.273,17.156Zm-.18-7.578a1.928,1.928,0,0,0-1.469.637A3.1,3.1,0,0,0,77.891,12h4.234v-.109a2.753,2.753,0,0,0-.594-1.707A1.815,1.815,0,0,0,80.094,9.578Zm8.539,6.4a2.082,2.082,0,0,0,1.352-.469,1.649,1.649,0,0,0,.641-1.172h1.367a2.621,2.621,0,0,1-.5,1.383,3.293,3.293,0,0,1-1.23,1.047,3.55,3.55,0,0,1-1.629.391A3.482,3.482,0,0,1,85.887,16a4.59,4.59,0,0,1-1.02-3.152v-.242a5.089,5.089,0,0,1,.453-2.2,3.451,3.451,0,0,1,1.3-1.492,3.7,3.7,0,0,1,2-.531,3.39,3.39,0,0,1,2.363.852,3.043,3.043,0,0,1,1,2.211H90.625A1.992,1.992,0,0,0,90,10.105a1.932,1.932,0,0,0-1.379-.527,2.023,2.023,0,0,0-1.707.793,3.724,3.724,0,0,0-.605,2.293v.273a3.65,3.65,0,0,0,.6,2.25A2.033,2.033,0,0,0,88.633,15.977ZM95.578,6.5V8.547h1.578V9.664H95.578v5.249a1.173,1.173,0,0,0,.211.763.888.888,0,0,0,.719.254,3.5,3.5,0,0,0,.688-.094V17a4.215,4.215,0,0,1-1.109.155,1.8,1.8,0,0,1-1.461-.586,2.517,2.517,0,0,1-.492-1.664V9.664H92.594V8.547h1.539V6.5Zm8.484,9.664a3.07,3.07,0,0,1-2.477.992,2.628,2.628,0,0,1-2.059-.785,3.4,3.4,0,0,1-.715-2.324v-5.5h1.445v5.461q0,1.922,1.563,1.922a2.163,2.163,0,0,0,2.2-1.234V8.547h1.445V17h-1.375Zm7.688-6.32a4.331,4.331,0,0,0-.711-.055A1.9,1.9,0,0,0,109.109,11v6h-1.445V8.547h1.406l.023.977a2.251,2.251,0,0,1,2.016-1.133,1.477,1.477,0,0,1,.641.109ZM117.984,17a3.036,3.036,0,0,1-.2-.891,3.225,3.225,0,0,1-2.406,1.047,2.984,2.984,0,0,1-2.051-.707,2.288,2.288,0,0,1-.8-1.793,2.39,2.39,0,0,1,1-2.051,4.733,4.733,0,0,1,2.824-.73h1.406v-.664A1.623,1.623,0,0,0,117.3,10a1.821,1.821,0,0,0-1.336-.449,2.108,2.108,0,0,0-1.3.391,1.151,1.151,0,0,0-.523.945H112.7a2,2,0,0,1,.449-1.223,3.066,3.066,0,0,1,1.219-.934,4.1,4.1,0,0,1,1.691-.344,3.342,3.342,0,0,1,2.289.73,2.635,2.635,0,0,1,.859,2.012v3.891a4.757,4.757,0,0,0,.3,1.852V17Zm-2.4-1.1a2.54,2.54,0,0,0,1.289-.352,2.127,2.127,0,0,0,.883-.914V12.9h-1.133q-2.656,0-2.656,1.555a1.316,1.316,0,0,0,.453,1.063A1.742,1.742,0,0,0,115.586,15.9Zm16.984-3.031a5.062,5.062,0,0,1-.883,3.109,2.829,2.829,0,0,1-2.391,1.18,3.1,3.1,0,0,1-2.422-.977v4.07H125.43V8.547h1.32l.07.938a2.977,2.977,0,0,1,2.453-1.094,2.882,2.882,0,0,1,2.41,1.148,5.117,5.117,0,0,1,.887,3.2Zm-1.445-.164a3.735,3.735,0,0,0-.609-2.258,1.963,1.963,0,0,0-1.672-.828,2.125,2.125,0,0,0-1.969,1.164V14.82a2.129,2.129,0,0,0,1.984,1.156,1.954,1.954,0,0,0,1.652-.824A4.077,4.077,0,0,0,131.125,12.7Zm2.9-.008a4.993,4.993,0,0,1,.488-2.234,3.642,3.642,0,0,1,1.359-1.531,3.7,3.7,0,0,1,1.988-.539,3.565,3.565,0,0,1,2.793,1.2,4.6,4.6,0,0,1,1.066,3.18v.1a5.036,5.036,0,0,1-.473,2.215,3.589,3.589,0,0,1-1.352,1.527,3.743,3.743,0,0,1-2.02.547,3.556,3.556,0,0,1-2.785-1.2,4.575,4.575,0,0,1-1.066-3.164Zm1.453.172a3.616,3.616,0,0,0,.652,2.258,2.211,2.211,0,0,0,3.5-.012,3.954,3.954,0,0,0,.648-2.418,3.61,3.61,0,0,0-.66-2.254,2.1,2.1,0,0,0-1.754-.863,2.075,2.075,0,0,0-1.727.852A3.925,3.925,0,0,0,135.477,12.867Zm12.141-3.023a4.331,4.331,0,0,0-.711-.055A1.9,1.9,0,0,0,144.977,11v6h-1.445V8.547h1.406l.023.977a2.251,2.251,0,0,1,2.016-1.133,1.477,1.477,0,0,1,.641.109ZM29.1,39.977a2.082,2.082,0,0,0,1.352-.469,1.649,1.649,0,0,0,.641-1.172h1.367a2.621,2.621,0,0,1-.5,1.383,3.293,3.293,0,0,1-1.23,1.047,3.55,3.55,0,0,1-1.629.391A3.482,3.482,0,0,1,26.352,40a4.59,4.59,0,0,1-1.02-3.152v-.242a5.089,5.089,0,0,1,.453-2.2,3.451,3.451,0,0,1,1.3-1.492,3.7,3.7,0,0,1,2-.531,3.39,3.39,0,0,1,2.363.852,3.043,3.043,0,0,1,1,2.211H31.09a1.992,1.992,0,0,0-.621-1.348,1.932,1.932,0,0,0-1.379-.527,2.023,2.023,0,0,0-1.707.793,3.724,3.724,0,0,0-.605,2.293v.273a3.65,3.65,0,0,0,.6,2.25A2.033,2.033,0,0,0,29.1,39.977ZM39.3,41a3.036,3.036,0,0,1-.2-.891,3.225,3.225,0,0,1-2.406,1.047,2.984,2.984,0,0,1-2.051-.707,2.287,2.287,0,0,1-.8-1.793,2.39,2.39,0,0,1,1-2.051,4.733,4.733,0,0,1,2.824-.73h1.406v-.664A1.623,1.623,0,0,0,38.621,34a1.821,1.821,0,0,0-1.336-.449,2.107,2.107,0,0,0-1.3.391,1.151,1.151,0,0,0-.523.945H34.012a2,2,0,0,1,.449-1.223,3.066,3.066,0,0,1,1.219-.934,4.1,4.1,0,0,1,1.691-.344,3.342,3.342,0,0,1,2.289.73,2.635,2.635,0,0,1,.859,2.012v3.891a4.757,4.757,0,0,0,.3,1.852V41Zm-2.4-1.1a2.54,2.54,0,0,0,1.289-.352,2.127,2.127,0,0,0,.883-.914V36.9H37.941q-2.656,0-2.656,1.555a1.316,1.316,0,0,0,.453,1.063A1.742,1.742,0,0,0,36.9,39.9Zm13.023-3.031a5.062,5.062,0,0,1-.883,3.109,2.829,2.829,0,0,1-2.391,1.18,3.1,3.1,0,0,1-2.422-.977v4.07H42.785v-11.7h1.32l.07.938a2.977,2.977,0,0,1,2.453-1.094,2.882,2.882,0,0,1,2.41,1.148,5.117,5.117,0,0,1,.887,3.2ZM48.48,36.7a3.735,3.735,0,0,0-.609-2.258,1.963,1.963,0,0,0-1.672-.828,2.125,2.125,0,0,0-1.969,1.164V38.82a2.129,2.129,0,0,0,1.984,1.156,1.954,1.954,0,0,0,1.652-.824A4.077,4.077,0,0,0,48.48,36.7Zm8.5,4.3a3.036,3.036,0,0,1-.2-.891,3.225,3.225,0,0,1-2.406,1.047,2.984,2.984,0,0,1-2.051-.707,2.287,2.287,0,0,1-.8-1.793,2.39,2.39,0,0,1,1-2.051,4.733,4.733,0,0,1,2.824-.73h1.406v-.664A1.623,1.623,0,0,0,56.3,34a1.821,1.821,0,0,0-1.336-.449,2.107,2.107,0,0,0-1.3.391,1.151,1.151,0,0,0-.523.945H51.691a2,2,0,0,1,.449-1.223,3.066,3.066,0,0,1,1.219-.934,4.1,4.1,0,0,1,1.691-.344,3.342,3.342,0,0,1,2.289.73,2.635,2.635,0,0,1,.859,2.012v3.891a4.757,4.757,0,0,0,.3,1.852V41Zm-2.4-1.1a2.54,2.54,0,0,0,1.289-.352,2.127,2.127,0,0,0,.883-.914V36.9H55.621q-2.656,0-2.656,1.555a1.316,1.316,0,0,0,.453,1.063A1.742,1.742,0,0,0,54.582,39.9Zm10.8-1.141a1.064,1.064,0,0,0-.441-.91,4.249,4.249,0,0,0-1.539-.559,7.277,7.277,0,0,1-1.742-.562,2.479,2.479,0,0,1-.953-.781,1.869,1.869,0,0,1-.309-1.078,2.193,2.193,0,0,1,.879-1.758,3.432,3.432,0,0,1,2.246-.719,3.532,3.532,0,0,1,2.332.742,2.357,2.357,0,0,1,.895,1.9H65.3a1.3,1.3,0,0,0-.5-1.023,1.888,1.888,0,0,0-1.27-.43,1.976,1.976,0,0,0-1.234.344,1.082,1.082,0,0,0-.445.9.877.877,0,0,0,.414.789,5.1,5.1,0,0,0,1.5.508,7.8,7.8,0,0,1,1.754.578,2.558,2.558,0,0,1,1,.809,1.988,1.988,0,0,1,.324,1.152,2.163,2.163,0,0,1-.906,1.816,3.8,3.8,0,0,1-2.352.684,4.257,4.257,0,0,1-1.8-.359,2.922,2.922,0,0,1-1.223-1,2.42,2.42,0,0,1-.441-1.395h1.445a1.5,1.5,0,0,0,.582,1.152,2.258,2.258,0,0,0,1.434.426,2.331,2.331,0,0,0,1.316-.332A1.02,1.02,0,0,0,65.387,38.758Zm7.234-2.375a12.079,12.079,0,0,1,.473-3.391,9.849,9.849,0,0,1,1.41-2.953,6,6,0,0,1,1.945-1.875l.3.953a6.222,6.222,0,0,0-1.871,2.672,11.583,11.583,0,0,0-.8,4.023l-.008.664a11.643,11.643,0,0,0,1.1,5.234,6.252,6.252,0,0,0,1.578,2.078l-.3.883a6.192,6.192,0,0,1-1.984-1.937A10.859,10.859,0,0,1,72.621,36.383Zm7.258,3.391H85.27V41h-6.9V29.625h1.508ZM91.973,41a3.036,3.036,0,0,1-.2-.891,3.225,3.225,0,0,1-2.406,1.047,2.984,2.984,0,0,1-2.051-.707,2.288,2.288,0,0,1-.8-1.793,2.39,2.39,0,0,1,1-2.051,4.733,4.733,0,0,1,2.824-.73h1.406v-.664A1.623,1.623,0,0,0,91.293,34a1.821,1.821,0,0,0-1.336-.449,2.107,2.107,0,0,0-1.3.391,1.151,1.151,0,0,0-.523.945H86.684a2,2,0,0,1,.449-1.223,3.066,3.066,0,0,1,1.219-.934,4.1,4.1,0,0,1,1.691-.344,3.342,3.342,0,0,1,2.289.73,2.635,2.635,0,0,1,.859,2.012v3.891a4.757,4.757,0,0,0,.3,1.852V41Zm-2.4-1.1a2.54,2.54,0,0,0,1.289-.352,2.127,2.127,0,0,0,.883-.914V36.9H90.613q-2.656,0-2.656,1.555a1.316,1.316,0,0,0,.453,1.063A1.742,1.742,0,0,0,89.574,39.9Zm8.648-1.016,1.969-6.336h1.547L98.34,42.3q-.789,2.109-2.508,2.109l-.273-.023-.539-.1V43.117l.391.031a1.923,1.923,0,0,0,1.145-.3,2.149,2.149,0,0,0,.676-1.086l.32-.859-3.016-8.359h1.578Zm8.313,2.273a3.693,3.693,0,0,1-2.8-1.129,4.19,4.19,0,0,1-1.078-3.02v-.266a5.073,5.073,0,0,1,.48-2.246,3.748,3.748,0,0,1,1.344-1.547,3.378,3.378,0,0,1,1.871-.559,3.166,3.166,0,0,1,2.563,1.086,4.7,4.7,0,0,1,.914,3.109v.6h-5.727a3,3,0,0,0,.73,2.02,2.3,2.3,0,0,0,1.777.77,2.517,2.517,0,0,0,1.3-.312,3.259,3.259,0,0,0,.93-.828l.883.688A3.55,3.55,0,0,1,106.535,41.156Zm-.18-7.578a1.928,1.928,0,0,0-1.469.637A3.1,3.1,0,0,0,104.152,36h4.234v-.109a2.753,2.753,0,0,0-.594-1.707A1.815,1.815,0,0,0,106.355,33.578Zm9.234.266a4.331,4.331,0,0,0-.711-.055A1.9,1.9,0,0,0,112.949,35v6H111.5V32.547h1.406l.023.977a2.251,2.251,0,0,1,2.016-1.133,1.477,1.477,0,0,1,.641.109Zm4.836,7.313a3.693,3.693,0,0,1-2.8-1.129,4.19,4.19,0,0,1-1.078-3.02v-.266a5.073,5.073,0,0,1,.48-2.246,3.748,3.748,0,0,1,1.344-1.547,3.378,3.378,0,0,1,1.871-.559,3.166,3.166,0,0,1,2.563,1.086,4.7,4.7,0,0,1,.914,3.109v.6H118a3,3,0,0,0,.73,2.02,2.3,2.3,0,0,0,1.777.77,2.517,2.517,0,0,0,1.3-.312,3.259,3.259,0,0,0,.93-.828l.883.688A3.55,3.55,0,0,1,120.426,41.156Zm-.18-7.578a1.928,1.928,0,0,0-1.469.637A3.1,3.1,0,0,0,118.043,36h4.234v-.109a2.753,2.753,0,0,0-.594-1.707A1.815,1.815,0,0,0,120.246,33.578Zm4.8,3.125a4.952,4.952,0,0,1,.922-3.129,3.137,3.137,0,0,1,4.766-.168V29h1.445V41h-1.328l-.07-.906a2.943,2.943,0,0,1-2.414,1.063,2.887,2.887,0,0,1-2.395-1.2,5.008,5.008,0,0,1-.926-3.141Zm1.445.164a3.749,3.749,0,0,0,.594,2.25,1.919,1.919,0,0,0,1.641.813A2.108,2.108,0,0,0,130.73,38.7V34.813a2.125,2.125,0,0,0-1.992-1.2,1.929,1.929,0,0,0-1.656.82A4.128,4.128,0,0,0,126.488,36.867Zm11.266-.406a12.085,12.085,0,0,1-.457,3.34,9.876,9.876,0,0,1-1.4,2.949,6.127,6.127,0,0,1-1.973,1.922l-.3-.883a6.281,6.281,0,0,0,1.934-2.863,12.387,12.387,0,0,0,.746-4.309v-.25a12.861,12.861,0,0,0-.344-3.051A10.3,10.3,0,0,0,135,30.789a5.838,5.838,0,0,0-1.379-1.742l.3-.883a6.1,6.1,0,0,1,1.965,1.906,9.9,9.9,0,0,1,1.4,2.945A12.364,12.364,0,0,1,137.754,36.461Z" transform="translate(494 3561.624)" fill="#12263f"/>
    <g id="Grupo_893976" data-name="Grupo 893976" transform="translate(541 3475.881)">
      <g id="Grupo_891631" data-name="Grupo 891631" transform="translate(45.608 20.159)">
        <g id="Grupo_891630" data-name="Grupo 891630">
          <g id="Grupo_891629" data-name="Grupo 891629">
            <g id="Grupo_891628" data-name="Grupo 891628">
              <path id="Trazado_621053" data-name="Trazado 621053" d="M-791.277,1432.544a4.664,4.664,0,0,1,.719-.817l2.087-2.1c1.777-1.756,4.253-4.156,7.01-6.784l.063-.06,0,.355c-2.777-2.58-5.27-4.932-7.057-6.651l-2.1-2.054a4.582,4.582,0,0,1-.725-.8,4.58,4.58,0,0,1,.852.663l2.2,1.941c1.847,1.655,4.377,3.967,7.155,6.546l.189.176-.187.179-.063.06c-2.756,2.629-5.27,4.989-7.107,6.68l-2.193,1.984A4.72,4.72,0,0,1-791.277,1432.544Z" transform="translate(791.279 -1413.633)" fill="#f6cc53" stroke="#db4d79" stroke-linecap="round" stroke-linejoin="round" stroke-width="3"/>
            </g>
          </g>
        </g>
      </g>
      <g id="Grupo_891635" data-name="Grupo 891635" transform="translate(13.775 20.159)">
        <g id="Grupo_891634" data-name="Grupo 891634">
          <g id="Grupo_891633" data-name="Grupo 891633">
            <g id="Grupo_891632" data-name="Grupo 891632">
              <path id="Trazado_621054" data-name="Trazado 621054" d="M-815.4,1413.633a4.74,4.74,0,0,1-.72.817l-2.086,2.1c-1.777,1.755-4.253,4.155-7.01,6.784l-.063.06,0-.355c2.777,2.579,5.269,4.933,7.057,6.652l2.1,2.053a4.7,4.7,0,0,1,.725.8,4.7,4.7,0,0,1-.852-.663l-2.2-1.942c-1.846-1.654-4.376-3.967-7.154-6.546l-.19-.175.188-.179.063-.06c2.756-2.629,5.27-4.989,7.107-6.681l2.193-1.984A4.692,4.692,0,0,1-815.4,1413.633Z" transform="translate(825.804 -1413.632)" fill="#f6cc53" stroke="#db4d79" stroke-linecap="round" stroke-linejoin="round" stroke-width="3"/>
            </g>
          </g>
        </g>
      </g>
      <g id="Grupo_891639" data-name="Grupo 891639" transform="translate(29.671 15.445)">
        <g id="Grupo_891638" data-name="Grupo 891638">
          <g id="Grupo_891637" data-name="Grupo 891637">
            <g id="Grupo_891636" data-name="Grupo 891636">
              <path id="Trazado_621055" data-name="Trazado 621055" d="M-808.558,1436.6c-.125-.047,2.125-6.371,5.025-14.124s5.353-14,5.479-13.955-2.124,6.37-5.026,14.126S-808.433,1436.645-808.558,1436.6Z" transform="translate(808.563 -1408.518)" fill="#f6cc53" stroke="#db4d79" stroke-linecap="round" stroke-linejoin="round" stroke-width="3"/>
            </g>
          </g>
        </g>
      </g>
      <g id="Grupo_891643" data-name="Grupo 891643">
        <g id="Grupo_891642" data-name="Grupo 891642">
          <g id="Grupo_891641" data-name="Grupo 891641">
            <g id="Grupo_891640" data-name="Grupo 891640">
              <path id="Trazado_621056" data-name="Trazado 621056" d="M-770.776,1448.825s-.015-.367-.022-1.057-.013-1.72-.023-3.043c-.012-2.671-.03-6.563-.053-11.522-.025-9.92-.061-24.1-.1-41.19l.2.2-69.719.04h-.006l.242-.243c-.009,20.538-.019,39.933-.026,56.813l-.216-.217,50.347.109c6.123.023,10.953.043,14.271.057l3.788.026.979.012c.221,0,.34.013.34.013s-.1.008-.315.013l-.955.012-3.745.026-14.222.058-50.488.109h-.216v-.217c-.008-16.879-.017-36.275-.027-56.813v-.243h.249l69.719.041h.2v.2c-.043,17.146-.079,31.367-.105,41.317-.022,4.94-.04,8.816-.052,11.477-.01,1.306-.017,2.309-.023,3C-770.761,1448.487-770.776,1448.825-770.776,1448.825Z" transform="translate(840.744 -1391.769)" fill="#f6cc53" stroke="#db4d79" stroke-linecap="round" stroke-linejoin="round" stroke-width="1"/>
            </g>
          </g>
        </g>
      </g>
      <g id="Grupo_891647" data-name="Grupo 891647" transform="translate(0.212 8.43)">
        <g id="Grupo_891646" data-name="Grupo 891646">
          <g id="Grupo_891645" data-name="Grupo 891645">
            <g id="Grupo_891644" data-name="Grupo 891644">
              <path id="Trazado_621057" data-name="Trazado 621057" d="M-770.213,1401.155c0,.134-15.739.242-35.149.242s-35.153-.109-35.153-.242,15.735-.243,35.153-.243S-770.213,1401.02-770.213,1401.155Z" transform="translate(840.514 -1400.911)" fill="#f6cc53" stroke="#db4d79" stroke-linecap="round" stroke-linejoin="round" stroke-width="1"/>
            </g>
          </g>
        </g>
      </g>
      <g id="Grupo_891657" data-name="Grupo 891657" transform="translate(4.055 3.585)">
        <g id="Grupo_891650" data-name="Grupo 891650">
          <g id="Grupo_891649" data-name="Grupo 891649">
            <g id="Grupo_891648" data-name="Grupo 891648">
              <path id="Trazado_621058" data-name="Trazado 621058" d="M-834.468,1396.6a.941.941,0,0,1-.939.943.941.941,0,0,1-.94-.943.94.94,0,0,1,.94-.942A.94.94,0,0,1-834.468,1396.6Z" transform="translate(836.346 -1395.656)" fill="#f6cc53" stroke="#db4d79" stroke-linecap="round" stroke-linejoin="round" stroke-width="1"/>
            </g>
          </g>
        </g>
        <g id="Grupo_891653" data-name="Grupo 891653" transform="translate(3.423)">
          <g id="Grupo_891652" data-name="Grupo 891652">
            <g id="Grupo_891651" data-name="Grupo 891651">
              <path id="Trazado_621059" data-name="Trazado 621059" d="M-830.757,1396.6a.941.941,0,0,1-.939.943.941.941,0,0,1-.939-.943.94.94,0,0,1,.939-.942A.94.94,0,0,1-830.757,1396.6Z" transform="translate(832.634 -1395.656)" fill="#f6cc53" stroke="#db4d79" stroke-linecap="round" stroke-linejoin="round" stroke-width="1"/>
            </g>
          </g>
        </g>
        <g id="Grupo_891656" data-name="Grupo 891656" transform="translate(6.844)">
          <g id="Grupo_891655" data-name="Grupo 891655">
            <g id="Grupo_891654" data-name="Grupo 891654">
              <path id="Trazado_621060" data-name="Trazado 621060" d="M-827.046,1396.6a.94.94,0,0,1-.939.943.941.941,0,0,1-.939-.943.94.94,0,0,1,.939-.942A.939.939,0,0,1-827.046,1396.6Z" transform="translate(828.923 -1395.656)" fill="#f6cc53" stroke="#db4d79" stroke-linecap="round" stroke-linejoin="round" stroke-width="1"/>
            </g>
          </g>
        </g>
      </g>
    </g>
  </g>
</svg>
